<svg width="599" height="682" viewBox="0 0 599 682" fill="none" xmlns="http://www.w3.org/2000/svg">
<path d="M343.138 0L580.192 105.776C580.192 105.776 627.342 133.542 572.335 190.395C517.329 247.249 395.526 146.761 395.526 146.761C395.526 146.761 360.166 124.282 343.138 153.37C326.11 182.458 311.707 202.292 362.785 227.414C413.863 252.537 569.717 363.6 569.717 363.6C569.717 363.6 628.651 432.357 564.479 489.211C500.307 546.064 197.766 416.488 197.766 416.488C197.766 416.488 154.544 411.201 128.35 416.488C102.156 421.776 0 325.259 0 325.259V0H343.138Z" fill="#C4ECEA" style="fill:#C4ECEA;fill:color(display-p3 0.7686 0.9255 0.9176);fill-opacity:1;"/>
<path opacity="0.74" d="M237.882 340.676V449.597C237.882 449.597 166.927 433.487 110.696 469.656V365.924C110.696 365.924 158.22 336.581 237.882 340.676Z" fill="#FFBA3C" style="fill:#FFBA3C;fill:color(display-p3 1.0000 0.7294 0.2353);fill-opacity:1;"/>
<path d="M241.677 350.941V459.862C241.677 459.862 170.722 443.752 114.492 479.922V376.189C114.492 376.189 162.015 346.846 241.677 350.941Z" fill="#447DA8" style="fill:#447DA8;fill:color(display-p3 0.2667 0.4902 0.6588);fill-opacity:1;"/>
<path d="M245.273 346.34V455.261C245.273 455.261 174.318 439.151 118.087 475.321V371.588C118.087 371.588 165.611 342.245 245.273 346.34Z" fill="#E3F6FC" style="fill:#E3F6FC;fill:color(display-p3 0.8902 0.9647 0.9882);fill-opacity:1;"/>
<path opacity="0.74" d="M402.254 255.621V340.084C402.254 340.084 355.62 309.933 238.908 324.898V242.643C238.908 242.643 316.37 220.765 402.254 255.615V255.621Z" fill="#FFBA3C" style="fill:#FFBA3C;fill:color(display-p3 1.0000 0.7294 0.2353);fill-opacity:1;"/>
<path d="M361.666 318.159C346.295 318.159 333.835 304.163 333.835 286.899C333.835 269.634 346.295 255.638 361.666 255.638C377.036 255.638 389.496 269.634 389.496 286.899C389.496 304.163 377.036 318.159 361.666 318.159Z" fill="#335C99" style="fill:#335C99;fill:color(display-p3 0.2000 0.3608 0.6000);fill-opacity:1;"/>
<mask id="mask0_154_2757" style="mask-type:luminance" maskUnits="userSpaceOnUse" x="333" y="255" width="57" height="64">
<path d="M361.529 318.159C346.159 318.159 333.699 304.163 333.699 286.899C333.699 269.634 346.159 255.638 361.529 255.638C376.899 255.638 389.359 269.634 389.359 286.899C389.359 304.163 376.899 318.159 361.529 318.159Z" fill="white" style="fill:white;fill-opacity:1;"/>
</mask>
<g mask="url(#mask0_154_2757)">
<path d="M379.661 257.126L361.665 286.899L348.514 253.216L379.661 257.126Z" fill="#34C5B1" style="fill:#34C5B1;fill:color(display-p3 0.2039 0.7725 0.6941);fill-opacity:1;"/>
<path d="M349.46 255.638L361.666 286.899L333.835 302.718L330.844 269.441L349.46 255.638Z" fill="#2B7EE7" style="fill:#2B7EE7;fill:color(display-p3 0.1686 0.4941 0.9059);fill-opacity:1;"/>
</g>
<path d="M313.749 279.091V283.739C313.749 283.739 285.577 274.833 251.347 287.979V283.535C251.347 283.535 280.317 271.347 313.749 279.091Z" fill="#2B7EE7" style="fill:#2B7EE7;fill:color(display-p3 0.1686 0.4941 0.9059);fill-opacity:1;"/>
<path d="M315.213 252.478V257.126C315.213 257.126 299.885 250.428 273.673 255.633V251.189C273.673 251.189 294.443 246.169 315.213 252.478Z" fill="#34C5B1" style="fill:#34C5B1;fill:color(display-p3 0.2039 0.7725 0.6941);fill-opacity:1;"/>
<path d="M253.661 292.9C282.431 278.104 313.179 288.09 313.487 288.194L314.022 286.539C313.709 286.434 282.311 276.215 252.891 291.349L253.661 292.906V292.9Z" fill="#E6F7FF" style="fill:#E6F7FF;fill:color(display-p3 0.9020 0.9686 1.0000);fill-opacity:1;"/>
<path d="M255.125 265.799C283.895 251.003 314.643 260.989 314.951 261.094L315.487 259.438C315.173 259.334 283.776 249.115 254.356 264.248L255.125 265.805V265.799Z" fill="#E6F7FF" style="fill:#E6F7FF;fill:color(display-p3 0.9020 0.9686 1.0000);fill-opacity:1;"/>
<path d="M255.125 269.36C283.895 254.564 314.643 264.55 314.951 264.655L315.487 262.999C315.173 262.895 283.776 252.676 254.356 267.809L255.125 269.366V269.36Z" fill="#E6F7FF" style="fill:#E6F7FF;fill:color(display-p3 0.9020 0.9686 1.0000);fill-opacity:1;"/>
<path d="M255.125 273.851C283.895 259.054 314.643 269.041 314.951 269.145L315.487 267.489C315.173 267.385 283.776 257.166 254.356 272.3L255.125 273.857V273.851Z" fill="#E6F7FF" style="fill:#E6F7FF;fill:color(display-p3 0.9020 0.9686 1.0000);fill-opacity:1;"/>
<path d="M253.832 297.013C282.602 282.216 313.35 292.203 313.658 292.307L314.193 290.652C313.88 290.547 282.483 280.328 253.062 295.462L253.832 297.019V297.013Z" fill="#E6F7FF" style="fill:#E6F7FF;fill:color(display-p3 0.9020 0.9686 1.0000);fill-opacity:1;"/>
<path d="M253.575 300.801C282.346 286.004 313.094 295.991 313.401 296.095L313.937 294.44C313.624 294.335 282.226 284.116 252.806 299.25L253.575 300.807V300.801Z" fill="#E6F7FF" style="fill:#E6F7FF;fill:color(display-p3 0.9020 0.9686 1.0000);fill-opacity:1;"/>
<path d="M253.746 304.92C282.517 290.123 313.264 300.109 313.572 300.214L314.108 298.558C313.794 298.454 282.397 288.235 252.977 303.368L253.746 304.925V304.92Z" fill="#E6F7FF" style="fill:#E6F7FF;fill:color(display-p3 0.9020 0.9686 1.0000);fill-opacity:1;"/>
<path d="M333.778 297.298L333.892 296.728C333.835 296.717 328.439 295.607 322.661 294.817L315.703 282.914L315.213 283.21L322.313 295.351L322.45 295.369C328.262 296.159 333.727 297.28 333.778 297.292V297.298Z" fill="#2B7EE7" style="fill:#2B7EE7;fill:color(display-p3 0.1686 0.4941 0.9059);fill-opacity:1;"/>
<path d="M354.965 253.216V246.75L318.12 251.595" stroke="#34C5B1" style="stroke:#34C5B1;stroke:color(display-p3 0.2039 0.7725 0.6941);stroke-opacity:1;" stroke-width="0.569827" stroke-miterlimit="10"/>
<path d="M135.279 378.827V390.225L143.638 394.675L151.713 388.615V377.241L143.496 373.645L135.279 378.827Z" stroke="#4F97D3" style="stroke:#4F97D3;stroke:color(display-p3 0.3098 0.5922 0.8275);stroke-opacity:1;" stroke-width="1.13965" stroke-miterlimit="10"/>
<path d="M127.062 395.691V407.089L135.416 411.545L143.496 405.48L143.638 394.675L135.279 390.509L127.062 395.691Z" stroke="#4F97D3" style="stroke:#4F97D3;stroke:color(display-p3 0.3098 0.5922 0.8275);stroke-opacity:1;" stroke-width="1.13965" stroke-miterlimit="10"/>
<path d="M144.026 395.093V405.457L152.385 409.907L160.46 403.848L160.602 393.042L152.243 388.877L144.026 395.093Z" stroke="#4F97D3" style="stroke:#4F97D3;stroke:color(display-p3 0.3098 0.5922 0.8275);stroke-opacity:1;" stroke-width="1.13965" stroke-miterlimit="10"/>
<path d="M149.827 380.006C149.827 380.006 144.071 379.6 137.655 381.337L137.592 382.835C137.592 382.835 142.863 381.22 149.775 381.255L149.827 380.006Z" fill="#4F97D3" style="fill:#4F97D3;fill:color(display-p3 0.3098 0.5922 0.8275);fill-opacity:1;"/>
<path d="M140.994 396.784C140.994 396.784 135.239 396.377 128.823 398.114L128.76 399.613C128.76 399.613 134.031 397.998 140.943 398.033L140.994 396.784Z" fill="#4F97D3" style="fill:#4F97D3;fill:color(display-p3 0.3098 0.5922 0.8275);fill-opacity:1;"/>
<path d="M158.431 395.738C158.431 395.738 152.676 395.331 146.26 397.068L146.197 398.567C146.197 398.567 151.468 396.952 158.38 396.987L158.431 395.738Z" fill="#4F97D3" style="fill:#4F97D3;fill:color(display-p3 0.3098 0.5922 0.8275);fill-opacity:1;"/>
<path d="M137.672 384.822C143.673 383.149 149.753 383.451 149.815 383.451L149.844 382.87C149.781 382.87 143.61 382.562 137.524 384.258L137.672 384.816V384.822Z" fill="#4F97D3" style="fill:#4F97D3;fill:color(display-p3 0.3098 0.5922 0.8275);fill-opacity:1;"/>
<path d="M137.672 386.228C140.829 385.321 145.029 384.822 149.582 384.862C149.764 384.862 149.866 384.862 149.884 384.857L149.775 384.287L149.832 384.572L149.809 384.281C149.809 384.281 149.707 384.281 149.587 384.281C144.983 384.247 140.726 384.746 137.524 385.67L137.678 386.228H137.672Z" fill="#4F97D3" style="fill:#4F97D3;fill:color(display-p3 0.3098 0.5922 0.8275);fill-opacity:1;"/>
<path d="M137.598 387.68C140.755 386.774 144.977 386.286 149.507 386.315C149.69 386.315 149.792 386.315 149.804 386.309L149.752 386.024L149.73 385.734C149.73 385.734 149.627 385.734 149.513 385.734C144.92 385.71 140.652 386.198 137.444 387.122L137.598 387.68Z" fill="#4F97D3" style="fill:#4F97D3;fill:color(display-p3 0.3098 0.5922 0.8275);fill-opacity:1;"/>
<path d="M146.738 400.583C152.739 398.91 158.819 399.212 158.881 399.212L158.91 398.631C158.847 398.631 152.676 398.323 146.59 400.02L146.738 400.577V400.583Z" fill="#4F97D3" style="fill:#4F97D3;fill:color(display-p3 0.3098 0.5922 0.8275);fill-opacity:1;"/>
<path d="M146.738 401.989C149.895 401.083 154.095 400.583 158.648 400.624C158.83 400.624 158.933 400.624 158.95 400.618L158.841 400.049L158.898 400.334L158.876 400.043C158.876 400.043 158.773 400.043 158.653 400.043C154.049 400.008 149.793 400.508 146.59 401.432L146.744 401.989H146.738Z" fill="#4F97D3" style="fill:#4F97D3;fill:color(display-p3 0.3098 0.5922 0.8275);fill-opacity:1;"/>
<path d="M146.664 403.442C149.821 402.535 154.043 402.047 158.574 402.076C158.756 402.076 158.858 402.076 158.87 402.071L158.819 401.786L158.796 401.495C158.796 401.495 158.693 401.495 158.579 401.495C153.986 401.472 149.718 401.96 146.51 402.884L146.664 403.442Z" fill="#4F97D3" style="fill:#4F97D3;fill:color(display-p3 0.3098 0.5922 0.8275);fill-opacity:1;"/>
<path d="M129.29 401.548C135.29 399.874 141.37 400.177 141.433 400.177L141.461 399.596C141.399 399.596 135.227 399.288 129.142 400.984L129.29 401.542V401.548Z" fill="#4F97D3" style="fill:#4F97D3;fill:color(display-p3 0.3098 0.5922 0.8275);fill-opacity:1;"/>
<path d="M129.29 402.953C132.446 402.047 136.646 401.547 141.199 401.588C141.381 401.588 141.484 401.588 141.501 401.582L141.393 401.013L141.45 401.298L141.427 401.007C141.427 401.007 141.324 401.007 141.205 401.007C136.6 400.972 132.344 401.472 129.141 402.396L129.295 402.953H129.29Z" fill="#4F97D3" style="fill:#4F97D3;fill:color(display-p3 0.3098 0.5922 0.8275);fill-opacity:1;"/>
<path d="M129.216 404.405C132.372 403.499 136.595 403.011 141.125 403.04C141.307 403.04 141.41 403.04 141.421 403.034L141.37 402.75L141.347 402.459C141.347 402.459 141.245 402.459 141.131 402.459C136.538 402.436 132.27 402.924 129.062 403.848L129.216 404.405Z" fill="#4F97D3" style="fill:#4F97D3;fill:color(display-p3 0.3098 0.5922 0.8275);fill-opacity:1;"/>
<path d="M237.882 353.997L237.762 388.877C237.762 388.877 195.128 386.222 170.933 395.697L171.024 365.459C171.024 365.459 191.823 350.518 237.882 354.003V353.997Z" stroke="#447DA8" style="stroke:#447DA8;stroke:color(display-p3 0.2667 0.4902 0.6588);stroke-opacity:1;" stroke-width="1.70948" stroke-miterlimit="10"/>
<path d="M196.364 361.004V384.822C196.364 384.822 186.392 386.228 174.289 390.51V368.277C174.289 368.277 185.327 361.962 196.364 360.998V361.004Z" fill="white" style="fill:white;fill-opacity:1;"/>
<path d="M199.692 362.543C199.806 362.52 211.374 359.987 221.209 360.853L221.408 358.54C211.226 357.634 200.182 360.057 199.692 360.167V362.543Z" fill="white" style="fill:white;fill-opacity:1;"/>
<path d="M199.704 364.64C199.818 364.617 211.368 361.805 221.204 362.676L221.226 362.183C211.044 361.276 200.211 363.681 199.721 363.792L199.698 364.64H199.704Z" fill="white" style="fill:white;fill-opacity:1;"/>
<path d="M199.527 366.11C199.641 366.087 211.192 363.275 221.027 364.146L221.05 363.652C210.867 362.746 200.035 365.151 199.544 365.262L199.522 366.11H199.527Z" fill="white" style="fill:white;fill-opacity:1;"/>
<path d="M199.619 367.47C199.733 367.446 211.283 364.635 221.118 365.506L221.141 365.012C210.958 364.106 200.126 366.511 199.636 366.621L199.613 367.47H199.619Z" fill="white" style="fill:white;fill-opacity:1;"/>
<path d="M199.442 368.939C199.556 368.916 211.106 366.104 220.942 366.976L220.964 366.482C210.782 365.576 199.949 367.981 199.459 368.091L199.436 368.939H199.442Z" fill="white" style="fill:white;fill-opacity:1;"/>
<path d="M199.482 370.368C199.596 370.345 211.146 367.533 220.981 368.405L221.004 367.911C210.821 367.004 199.989 369.41 199.499 369.52L199.476 370.368H199.482Z" fill="white" style="fill:white;fill-opacity:1;"/>
<path d="M199.305 371.844C199.419 371.82 210.969 369.009 220.805 369.88L220.827 369.386C210.645 368.48 199.812 370.885 199.322 370.996L199.299 371.844H199.305Z" fill="white" style="fill:white;fill-opacity:1;"/>
<path d="M199.442 376.619C199.556 376.596 211.191 374.435 220.998 375.62L221.266 373.314C211.117 372.088 200 374.15 199.516 374.243L199.442 376.619Z" fill="white" style="fill:white;fill-opacity:1;"/>
<path d="M199.39 378.711C199.504 378.688 211.134 376.254 220.941 377.433L220.981 376.939C210.832 375.713 199.926 377.77 199.441 377.863L199.396 378.711H199.39Z" fill="white" style="fill:white;fill-opacity:1;"/>
<path d="M199.168 380.181C199.282 380.157 210.912 377.723 220.719 378.903L220.759 378.409C210.61 377.183 199.704 379.239 199.219 379.332L199.174 380.181H199.168Z" fill="white" style="fill:white;fill-opacity:1;"/>
<path d="M199.219 381.54C199.333 381.517 210.963 379.083 220.77 380.262L220.81 379.768C210.661 378.542 199.755 380.599 199.271 380.692L199.225 381.54H199.219Z" fill="white" style="fill:white;fill-opacity:1;"/>
<path d="M198.997 383.004C199.111 382.981 210.741 380.547 220.548 381.726L220.588 381.232C210.439 380.007 199.533 382.063 199.048 382.156L199.003 383.004H198.997Z" fill="white" style="fill:white;fill-opacity:1;"/>
<path d="M198.986 384.439C199.1 384.416 210.73 381.982 220.537 383.161L220.576 382.667C210.428 381.441 199.521 383.498 199.037 383.591L198.991 384.439H198.986Z" fill="white" style="fill:white;fill-opacity:1;"/>
<path d="M220.485 383.788L220.434 384.41C220.434 384.41 215.659 383.765 212.775 384.143L212.815 383.649C212.815 383.649 216.274 383.295 220.485 383.788Z" fill="white" style="fill:white;fill-opacity:1;"/>
<path d="M235.398 357.355C235.398 357.355 234.19 356.333 230.697 356.96V363.833C230.697 363.833 233.044 363.618 235.398 363.833V357.355Z" fill="white" style="fill:white;fill-opacity:1;"/>
<path d="M228.987 357.157C228.987 357.157 226.639 356.454 224.383 357.088L224.286 363.838C224.286 363.838 226.873 363.646 228.987 363.838V357.157Z" fill="white" style="fill:white;fill-opacity:1;"/>
<path d="M235.398 410.639V442.724C235.398 442.724 221.266 428.009 154.767 451.002V419.26C154.767 419.26 212.775 396.743 235.398 410.633V410.639Z" fill="#4F97D3" style="fill:#4F97D3;fill:color(display-p3 0.3098 0.5922 0.8275);fill-opacity:1;"/>
<path d="M167.115 428.555C167.115 428.555 149.923 426.429 126.088 440.104V466.345C126.088 466.345 157.827 452.118 167.115 452.461V428.555Z" stroke="white" style="stroke:white;stroke-opacity:1;" stroke-width="1.13965" stroke-miterlimit="10"/>
<path d="M128.253 461.913C150.727 450.84 165.047 449.539 165.189 449.527L165.144 448.946C165.001 448.958 150.585 450.259 128.002 461.384L128.253 461.907V461.913Z" fill="white" style="fill:white;fill-opacity:1;"/>
<path d="M128.253 459.333C150.727 448.261 165.047 446.959 165.189 446.948L165.144 446.367C165.001 446.378 150.585 447.68 128.002 458.805L128.253 459.327V459.333Z" fill="white" style="fill:white;fill-opacity:1;"/>
<path d="M128.253 456.336C150.727 445.263 165.047 443.962 165.189 443.95L165.144 443.369C165.001 443.381 150.585 444.682 128.002 455.807L128.253 456.33V456.336Z" fill="white" style="fill:white;fill-opacity:1;"/>
<path d="M128.253 452.85C150.727 441.778 165.047 440.476 165.189 440.465L165.144 439.884C165.001 439.895 150.585 441.197 128.002 452.322L128.253 452.845V452.85Z" fill="white" style="fill:white;fill-opacity:1;"/>
<path d="M128.253 449.434C150.727 438.362 165.047 437.06 165.189 437.049L165.144 436.468C165.001 436.479 150.585 437.781 128.002 448.906L128.253 449.429V449.434Z" fill="white" style="fill:white;fill-opacity:1;"/>
<path d="M165.189 432.099V434.713C165.189 434.713 158.756 434.643 148.567 438.78V435.439C148.567 435.439 157.947 430.937 165.189 432.099Z" fill="white" style="fill:white;fill-opacity:1;"/>
<path d="M357.244 602.012V650.515C357.244 654.244 355.324 657.713 352.172 659.612C339.927 666.99 303.919 683.303 227.158 681.322C151.143 679.358 118.349 665.817 106.782 659.241C103.5 657.376 101.483 653.838 101.483 650.004V604.406L357.238 602.006L357.244 602.012Z" fill="#154662" style="fill:#154662;fill:color(display-p3 0.0824 0.2745 0.3843);fill-opacity:1;"/>
<path d="M229.369 642.213C158.742 642.213 101.488 625.312 101.488 604.464C101.488 583.615 158.742 566.714 229.369 566.714C299.995 566.714 357.249 583.615 357.249 604.464C357.249 625.312 299.995 642.213 229.369 642.213Z" fill="#2680ED" style="fill:#2680ED;fill:color(display-p3 0.1490 0.5020 0.9294);fill-opacity:1;"/>
<path d="M226.856 633.075C162.196 633.075 109.779 619.087 109.779 601.832C109.779 584.577 162.196 570.589 226.856 570.589C291.515 570.589 343.932 584.577 343.932 601.832C343.932 619.087 291.515 633.075 226.856 633.075Z" fill="#D2F1FE" style="fill:#D2F1FE;fill:color(display-p3 0.8235 0.9451 0.9961);fill-opacity:1;"/>
<path d="M319.259 466.752C265.65 432.75 175.087 453.1 175.087 453.1L158.562 464.126L160.83 576.079C160.83 576.079 170.369 571.832 223.334 571.228C276.3 570.624 298.147 586.995 298.147 586.995L319.265 576.637V466.758" fill="#335C99" style="fill:#335C99;fill:color(display-p3 0.2000 0.3608 0.6000);fill-opacity:1;"/>
<mask id="mask1_154_2757" style="mask-type:luminance" maskUnits="userSpaceOnUse" x="158" y="447" width="162" height="140">
<path d="M319.174 466.752C265.564 432.75 175.002 453.1 175.002 453.1L158.477 464.126L160.745 576.079C160.745 576.079 170.284 571.832 223.249 571.228C276.214 570.624 298.062 586.995 298.062 586.995L319.179 576.637V466.758" fill="white" style="fill:white;fill-opacity:1;"/>
</mask>
<g mask="url(#mask1_154_2757)">
<path d="M325.373 464.399L297.691 475.843V587.692L330.974 575.37L325.373 464.399Z" fill="#3973B9" style="fill:#3973B9;fill:color(display-p3 0.2235 0.4510 0.7255);fill-opacity:1;"/>
<path d="M297.691 478.498C297.691 478.498 279.998 462.081 234.925 459.949C181.931 457.439 151.348 465.77 151.348 465.77L178.865 444.374L325.481 448.731L331.054 461.303L297.691 478.504V478.498Z" fill="#66DAED" style="fill:#66DAED;fill:color(display-p3 0.4000 0.8549 0.9294);fill-opacity:1;"/>
</g>
<path d="M312.609 454.076L291.526 468.669L276.858 461.372L297.418 447.848L312.609 454.076Z" fill="#CAD0E4" style="fill:#CAD0E4;fill:color(display-p3 0.7922 0.8157 0.8941);fill-opacity:1;"/>
<path d="M304.335 454.726L283.252 469.319L268.584 462.023L289.144 448.499L304.335 454.726Z" fill="#F9FFF2" style="fill:#F9FFF2;fill:color(display-p3 0.9765 1.0000 0.9490);fill-opacity:1;"/>
<path d="M184.495 460.147L167.115 461.797L187.954 447.813L200.912 448.034L184.495 460.147Z" fill="#2DB2B2" style="fill:#2DB2B2;fill:color(display-p3 0.1765 0.6980 0.6980);fill-opacity:1;"/>
<path d="M184.221 459.595L168.26 461.245L177.44 456.679L187.914 456.237L184.221 459.595Z" fill="#B9EBF9" style="fill:#B9EBF9;fill:color(display-p3 0.7255 0.9216 0.9765);fill-opacity:1;"/>
<path d="M184.318 459.119L168.363 460.775L177.537 456.203L188.016 455.761L184.318 459.119Z" fill="#D0EDF4" style="fill:#D0EDF4;fill:color(display-p3 0.8157 0.9294 0.9569);fill-opacity:1;"/>
<path d="M200.912 448.034V445.612L184.495 458.166V460.147L200.912 448.034Z" fill="#36C9CC" style="fill:#36C9CC;fill:color(display-p3 0.2118 0.7882 0.8000);fill-opacity:1;"/>
<path d="M184.495 458.166L200.912 445.612L187.954 446.936L167.936 461.245L184.495 458.166Z" fill="#3DD8D8" style="fill:#3DD8D8;fill:color(display-p3 0.2392 0.8471 0.8471);fill-opacity:1;"/>
<path d="M185.68 455.917L169.896 457.416L188.82 444.723L200.587 444.92L185.68 455.917Z" fill="#0875BF" style="fill:#0875BF;fill:color(display-p3 0.0314 0.4588 0.7490);fill-opacity:1;"/>
<path d="M185.429 455.418L170.933 456.916L179.27 452.769L188.78 452.368L185.429 455.418Z" fill="#B9EBF9" style="fill:#B9EBF9;fill:color(display-p3 0.7255 0.9216 0.9765);fill-opacity:1;"/>
<path d="M185.521 454.987L171.024 456.486L179.361 452.338L188.877 451.938L185.521 454.987Z" fill="#D0EDF4" style="fill:#D0EDF4;fill:color(display-p3 0.8157 0.9294 0.9569);fill-opacity:1;"/>
<path d="M200.587 444.92V442.724L185.68 454.116V455.917L200.587 444.92Z" fill="#197BDD" style="fill:#197BDD;fill:color(display-p3 0.0980 0.4824 0.8667);fill-opacity:1;"/>
<path d="M185.68 454.116L200.587 442.724L188.82 443.921L170.637 456.916L185.68 454.116Z" fill="#2680ED" style="fill:#2680ED;fill:color(display-p3 0.1490 0.5020 0.9294);fill-opacity:1;"/>
<path d="M219.22 596.708C219.22 596.708 234.788 600.467 236.634 602.727C238.48 604.981 236.634 605.55 236.634 605.55H202.934C202.934 605.55 202.695 596.714 204.353 596.714H219.22" fill="#1C7D7F" style="fill:#1C7D7F;fill:color(display-p3 0.1098 0.4902 0.4980);fill-opacity:1;"/>
<path d="M200.296 496.281L204.718 596.708H216.525L220.183 549.28L224.275 496.281H200.296Z" fill="#214C66" style="fill:#214C66;fill:color(display-p3 0.1294 0.2980 0.4000);fill-opacity:1;"/>
<path d="M245.045 596.447C245.045 596.447 260.612 600.205 262.459 602.465C264.305 604.725 262.459 605.289 262.459 605.289H228.759C228.759 605.289 228.52 596.453 230.178 596.453H245.045" fill="#16A8B5" style="fill:#16A8B5;fill:color(display-p3 0.0863 0.6588 0.7098);fill-opacity:1;"/>
<g style="mix-blend-mode:soft-light">
<path d="M210.832 496.281L220.183 549.28L224.275 496.281H210.832Z" fill="black" style="fill:black;fill-opacity:1;"/>
</g>
<path d="M237.728 490.379L245.033 596.447H230.902L212.456 491.884L237.728 490.379Z" fill="#214C66" style="fill:#214C66;fill:color(display-p3 0.1294 0.2980 0.4000);fill-opacity:1;"/>
<path d="M230.377 366.377C230.377 366.377 228.736 374.632 230.377 376.886C230.377 376.886 217.91 371.17 217.078 371.629C216.246 372.088 219.015 359.679 219.015 359.679L230.377 366.377Z" fill="#F9B480" style="fill:#F9B480;fill:color(display-p3 0.9765 0.7059 0.5020);fill-opacity:1;"/>
<g style="mix-blend-mode:soft-light">
<path d="M218.052 366.377L229.836 372.187L230.377 365.134L223.653 361.039L219.015 361.823L218.052 366.377Z" fill="black" style="fill:black;fill-opacity:1;"/>
</g>
<path d="M207.67 345.01C207.67 356.849 219.043 366.447 228.975 366.447C238.908 366.447 243.643 356.849 243.643 345.01C243.643 333.17 235.591 323.573 225.659 323.573C215.727 323.573 207.675 333.17 207.675 345.01H207.67Z" fill="#F9B480" style="fill:#F9B480;fill:color(display-p3 0.9765 0.7059 0.5020);fill-opacity:1;"/>
<path d="M270.402 420.503C270.402 420.503 281.69 418.261 284.728 414.461C287.77 410.662 281.599 408.344 281.599 408.344L271.998 407.751L268.943 417.726L270.396 420.503H270.402Z" fill="#F9B480" style="fill:#F9B480;fill:color(display-p3 0.9765 0.7059 0.5020);fill-opacity:1;"/>
<path d="M229.597 387.75L239.033 419.609L273.462 412.818L272.339 422.612L237.745 433.255C237.745 433.255 226.93 430.385 225.665 425.546C224.4 420.707 220.878 393.798 220.878 393.798C220.878 393.798 221.818 386.449 229.602 387.756L229.597 387.75Z" fill="white" style="fill:white;fill-opacity:1;"/>
<path d="M246.691 430.501L247.164 419.26H237.739L243.78 431.396L246.691 430.501Z" fill="#EBFAFF" style="fill:#EBFAFF;fill:color(display-p3 0.9216 0.9804 1.0000);fill-opacity:1;"/>
<path d="M277.24 397.068L291.526 412.492L248.441 424.948L235.848 408.867L277.24 397.068Z" fill="#0D3B52" style="fill:#0D3B52;fill:color(display-p3 0.0510 0.2314 0.3216);fill-opacity:1;"/>
<path d="M275.946 398.399L288.87 411.795L249.894 422.612L238.503 408.641L275.946 398.399Z" fill="white" style="fill:white;fill-opacity:1;"/>
<path d="M195.128 509.561C195.128 509.561 243.643 507.482 249.227 505.425C250.35 502.817 249.82 479.039 247.62 452.624C247.62 452.571 247.615 452.513 247.609 452.461C247.176 447.198 246.669 441.835 246.099 436.514C246.082 436.38 246.07 436.247 246.059 436.113C242.874 406.706 237.66 378.74 230.377 376.886L217.078 371.629C217.078 371.629 211.619 373.354 206.519 383.811C205.812 385.246 205.123 386.844 204.45 388.627C201.436 396.627 198.86 408.309 198.08 425.308L195.128 509.561Z" fill="white" style="fill:white;fill-opacity:1;"/>
<mask id="mask2_154_2757" style="mask-type:luminance" maskUnits="userSpaceOnUse" x="195" y="370" width="55" height="140">
<path d="M217.078 370.891C217.078 370.891 200.29 376.213 198.08 424.767L195.128 509.323C195.128 509.323 243.643 507.238 249.227 505.169C251.809 499.128 245.643 380.064 230.377 376.166L217.078 370.891Z" fill="white" style="fill:white;fill-opacity:1;"/>
</mask>
<g mask="url(#mask2_154_2757)">
<path d="M217.077 371.129L231.762 377.09L243.643 382.516L248.441 423.309L217.077 371.129Z" fill="#2ACCBA" style="fill:#2ACCBA;fill:color(display-p3 0.1647 0.8000 0.7294);fill-opacity:1;"/>
</g>
<path d="M212.052 375.742L214.388 370.914C214.872 369.909 216.211 369.735 216.924 370.589C221.385 375.91 234.36 392.177 237.74 405.149L212.052 375.742Z" fill="#C5E9EF" style="fill:#C5E9EF;fill:color(display-p3 0.7725 0.9137 0.9373);fill-opacity:1;"/>
<path d="M233.682 395.198L242.674 416.234L229.021 397.289L233.682 395.198Z" fill="#C5E9EF" style="fill:#C5E9EF;fill:color(display-p3 0.7725 0.9137 0.9373);fill-opacity:1;"/>
<path d="M212.348 373.128L214.736 369.526C215.157 368.887 216.052 368.817 216.565 369.381C220.428 373.633 234.218 389.493 237.734 402.994L212.399 373.999C212.189 373.755 212.166 373.401 212.342 373.134L212.348 373.128Z" fill="white" style="fill:white;fill-opacity:1;"/>
<g style="mix-blend-mode:soft-light">
<path d="M243.37 338.097C243.37 338.097 240.281 343.081 237.74 341.919C237.74 341.919 233.711 347.99 228.981 346.207C228.981 346.207 226.275 346.834 225.659 345.672C225.659 345.672 224.252 351.923 219.784 350.674L217.42 347.636L224.987 337.812L237.74 334.867L243.37 338.097Z" fill="black" style="fill:black;fill-opacity:1;"/>
</g>
<path d="M245.045 334.292C245.045 334.292 243.09 342.193 237.74 340.688C237.74 340.688 233.979 348.211 228.759 345.016C228.759 345.016 229.996 345.957 225.659 345.016C225.659 345.016 223.904 350.849 220.217 350.093C220.217 350.093 213.397 346.468 214.411 350.163C215.425 353.858 217.693 357.617 217.693 357.617C217.693 357.617 217.46 364.385 214.411 363.258C214.411 363.258 209.151 366.267 207.676 361.753C207.676 361.753 199.926 356.716 205.094 349.268C205.094 349.268 201.037 336.552 207.676 330.911C207.676 330.911 209.208 321.505 216.93 320.378C216.93 320.378 225.34 309.468 235.865 321.883C235.865 321.883 242.429 320.326 242.099 327.902C242.099 327.902 247.227 329.801 245.051 334.298L245.045 334.292Z" fill="#214C66" style="fill:#214C66;fill:color(display-p3 0.1294 0.2980 0.4000);fill-opacity:1;"/>
<path d="M234.788 395.198L243.78 416.234L230.132 397.289L234.788 395.198Z" fill="white" style="fill:white;fill-opacity:1;"/>
<g style="mix-blend-mode:soft-light">
<path d="M239.033 509.323L200.98 511.763L200.604 502.822L239.033 500.679V509.323Z" fill="black" style="fill:black;fill-opacity:1;"/>
</g>
<path d="M208.678 394.884C208.678 394.884 215.932 430.844 217.568 434.998C219.203 439.151 225.483 442.341 225.483 442.341L247.62 452.623C247.62 452.571 247.615 452.513 247.609 452.461C247.176 447.197 246.669 441.835 246.099 436.514C246.082 436.38 246.071 436.247 246.059 436.113L233.7 428.474L219.334 390.213C216.069 385.089 212.32 383.608 209.938 385.554C209.322 386.053 208.792 386.78 208.394 387.732C208.035 388.581 207.886 389.493 207.869 390.37C207.812 392.752 208.678 394.884 208.678 394.884Z" fill="#C5E9EF" style="fill:#C5E9EF;fill:color(display-p3 0.7725 0.9137 0.9373);fill-opacity:1;"/>
<path d="M267.587 453.158L269.679 450.445L285.964 457.178C286.471 457.428 286.283 458.357 285.736 458.282C284.209 458.073 279.252 456.492 276.693 455.191L286.226 461.483C286.733 461.889 286.335 462.836 285.765 462.569L275.793 457.556L283.753 464.335C284.186 464.748 283.793 465.572 283.286 465.317C281.861 464.602 277.229 461.239 275.063 459.13L280.841 466.345C281.235 466.903 280.636 467.681 280.152 467.24L274.294 461.721C273.838 461.279 273.297 460.989 272.721 460.908C271.473 460.733 268.886 460.605 264.977 454.506L267.587 453.152V453.158Z" fill="#F9B480" style="fill:#F9B480;fill:color(display-p3 0.9765 0.7059 0.5020);fill-opacity:1;"/>
<path d="M219.819 388.47L234.184 426.731L274.938 451.944L267.638 459.949L225.967 440.598C225.967 440.598 219.688 437.408 218.052 433.255C216.417 429.101 209.168 393.141 209.168 393.141C209.168 393.141 207.544 389.156 208.878 385.989C210.838 381.348 215.716 382.016 219.819 388.47Z" fill="white" style="fill:white;fill-opacity:1;"/>
<path opacity="0.74" d="M429.333 379.001C429.333 379.001 430.039 357.076 351.107 352.045V480.66C351.107 480.66 415.942 469.163 429.333 496.467V379.007V379.001Z" fill="#FDD21B" style="fill:#FDD21B;fill:color(display-p3 0.9922 0.8235 0.1059);fill-opacity:1;"/>
<path d="M420.643 384.665C420.643 384.665 421.349 362.74 342.417 357.709V486.324C342.417 486.324 407.252 474.827 420.643 502.131V384.671V384.665Z" fill="#447DA8" style="fill:#447DA8;fill:color(display-p3 0.2667 0.4902 0.6588);fill-opacity:1;"/>
<path d="M414.802 385.827C414.802 385.827 415.44 365.965 343.933 361.404V477.918C343.933 477.918 402.67 467.501 414.802 492.238V385.827Z" fill="white" style="fill:white;fill-opacity:1;"/>
<path d="M404.574 387.401C404.574 387.401 407.486 398.706 396.75 402.198C386.738 405.457 389.445 421.398 396.813 425.842C402.135 429.049 403.491 432.97 402.745 439.07C401.998 445.17 398.454 450.898 394.499 452.763C390.545 454.628 391.633 462.894 391.57 465.828" stroke="#2076E5" style="stroke:#2076E5;stroke:color(display-p3 0.1255 0.4627 0.8980);stroke-opacity:1;" stroke-width="1.70948" stroke-miterlimit="10"/>
<path d="M391.531 381.946C391.531 381.946 386.704 397.254 396.876 402.198C404.095 405.707 405.879 418.609 398.505 423.048C393.183 426.255 390.134 432.97 390.881 439.07C391.627 445.17 395.172 450.898 399.126 452.763C403.081 454.628 401.958 470.005 402.021 472.939" stroke="#2076E5" style="stroke:#2076E5;stroke:color(display-p3 0.1255 0.4627 0.8980);stroke-opacity:1;" stroke-width="1.70948" stroke-miterlimit="10"/>
<path d="M404.933 393.792L390.51 387.401" stroke="#2076E5" style="stroke:#2076E5;stroke:color(display-p3 0.1255 0.4627 0.8980);stroke-opacity:1;" stroke-width="1.70948" stroke-miterlimit="10"/>
<path d="M402.654 398.207L390.63 393.083" stroke="#2076E5" style="stroke:#2076E5;stroke:color(display-p3 0.1255 0.4627 0.8980);stroke-opacity:1;" stroke-width="1.70948" stroke-miterlimit="10"/>
<path d="M403.731 435.038L391.707 429.92" stroke="#2076E5" style="stroke:#2076E5;stroke:color(display-p3 0.1255 0.4627 0.8980);stroke-opacity:1;" stroke-width="1.70948" stroke-miterlimit="10"/>
<path d="M402.824 440.162L390.801 435.039" stroke="#2076E5" style="stroke:#2076E5;stroke:color(display-p3 0.1255 0.4627 0.8980);stroke-opacity:1;" stroke-width="1.70948" stroke-miterlimit="10"/>
<path d="M401.879 445.507L390.63 440.383" stroke="#2076E5" style="stroke:#2076E5;stroke:color(display-p3 0.1255 0.4627 0.8980);stroke-opacity:1;" stroke-width="1.70948" stroke-miterlimit="10"/>
<path d="M401.856 407.519L390.63 409.68" stroke="#2076E5" style="stroke:#2076E5;stroke:color(display-p3 0.1255 0.4627 0.8980);stroke-opacity:1;" stroke-width="1.70948" stroke-miterlimit="10"/>
<path d="M402.426 412.004L391.2 414.16" stroke="#2076E5" style="stroke:#2076E5;stroke:color(display-p3 0.1255 0.4627 0.8980);stroke-opacity:1;" stroke-width="1.70948" stroke-miterlimit="10"/>
<path d="M402.255 417.616L391.029 419.777" stroke="#2076E5" style="stroke:#2076E5;stroke:color(display-p3 0.1255 0.4627 0.8980);stroke-opacity:1;" stroke-width="1.70948" stroke-miterlimit="10"/>
<path d="M402.426 456.237L391.2 458.398" stroke="#2076E5" style="stroke:#2076E5;stroke:color(display-p3 0.1255 0.4627 0.8980);stroke-opacity:1;" stroke-width="1.70948" stroke-miterlimit="10"/>
<path d="M402.426 461.041L391.2 463.196" stroke="#2076E5" style="stroke:#2076E5;stroke:color(display-p3 0.1255 0.4627 0.8980);stroke-opacity:1;" stroke-width="1.70948" stroke-miterlimit="10"/>
<path d="M373.581 381.737L385.547 386.646L391.2 403.157" stroke="#2076E5" style="stroke:#2076E5;stroke:color(display-p3 0.1255 0.4627 0.8980);stroke-opacity:1;" stroke-width="1.13965" stroke-miterlimit="10"/>
<path d="M358.725 402.064L380.231 409.681L390.63 427.44" stroke="#2076E5" style="stroke:#2076E5;stroke:color(display-p3 0.1255 0.4627 0.8980);stroke-opacity:1;" stroke-width="1.13965" stroke-miterlimit="10"/>
<path opacity="0.74" d="M429.333 379.001V496.461C429.333 496.461 415.868 533.107 251.347 528.796V416.338C251.347 416.338 422.289 417.448 429.333 379.001Z" fill="#FFBA3C" style="fill:#FFBA3C;fill:color(display-p3 1.0000 0.7294 0.2353);fill-opacity:1;"/>
<path d="M267.388 429.049V516.614C267.388 518.618 268.938 520.262 270.904 520.338C286.181 520.948 347.397 522.534 377.125 510.555C378.527 509.991 379.456 508.614 379.456 507.081V418.964C379.456 416.547 377.239 414.769 374.937 415.339C363.421 418.185 329.658 425.04 271.029 425.319C269.017 425.331 267.388 426.992 267.388 429.049Z" fill="#E6F7FF" style="fill:#E6F7FF;fill:color(display-p3 0.9020 0.9686 1.0000);fill-opacity:1;"/>
<path d="M354.093 452.879C354.093 452.879 355.939 432.604 339.083 432.604C339.083 432.604 329.772 432.732 325.692 444.851" stroke="#447DA8" style="stroke:#447DA8;stroke:color(display-p3 0.2667 0.4902 0.6588);stroke-opacity:1;" stroke-width="1.70948" stroke-miterlimit="10"/>
<path d="M298.044 454.889C298.044 454.889 295.52 434.731 312.364 433.836C312.364 433.836 321.675 433.476 326.154 445.362" stroke="#447DA8" style="stroke:#447DA8;stroke:color(display-p3 0.2667 0.4902 0.6588);stroke-opacity:1;" stroke-width="1.70948" stroke-miterlimit="10"/>
<path d="M351.591 462.872L326.992 483.001L301.406 463.813" stroke="#447DA8" style="stroke:#447DA8;stroke:color(display-p3 0.2667 0.4902 0.6588);stroke-opacity:1;" stroke-width="1.70948" stroke-miterlimit="10"/>
<path d="M360.099 456.917H345.317L342.548 449.318L339.921 461.797L334.468 440.598L326.992 465.863L321.766 449.318L318.535 460.147L313.213 442.724L310.404 462.871L307.099 458.259L293.52 458.282" stroke="#FFD71E" style="stroke:#FFD71E;stroke:color(display-p3 1.0000 0.8431 0.1176);stroke-opacity:1;" stroke-width="1.13965" stroke-miterlimit="10"/>
<path d="M280.887 487.648V515.923C280.887 515.923 339.197 520.57 370.162 507.4" stroke="#91BFEC" style="stroke:#91BFEC;stroke:color(display-p3 0.5686 0.7490 0.9255);stroke-opacity:1;" stroke-width="1.70948" stroke-miterlimit="10"/>
<path d="M289.058 488.142V513.895" stroke="#91BFEC" style="stroke:#91BFEC;stroke:color(display-p3 0.5686 0.7490 0.9255);stroke-opacity:1;" stroke-width="2.84914" stroke-miterlimit="10"/>
<path d="M293.617 491.715V513.401" stroke="#FFD71E" style="stroke:#FFD71E;stroke:color(display-p3 1.0000 0.8431 0.1176);stroke-opacity:1;" stroke-width="1.70948" stroke-miterlimit="10"/>
<path d="M303.874 488.81V513.982" stroke="#91BFEC" style="stroke:#91BFEC;stroke:color(display-p3 0.5686 0.7490 0.9255);stroke-opacity:1;" stroke-width="2.84914" stroke-miterlimit="10"/>
<path d="M307.481 495.59V513.988" stroke="#FFD71E" style="stroke:#FFD71E;stroke:color(display-p3 1.0000 0.8431 0.1176);stroke-opacity:1;" stroke-width="1.70948" stroke-miterlimit="10"/>
<path d="M317.55 489.78V513.599" stroke="#91BFEC" style="stroke:#91BFEC;stroke:color(display-p3 0.5686 0.7490 0.9255);stroke-opacity:1;" stroke-width="2.84914" stroke-miterlimit="10"/>
<path d="M321.157 499.459V513.21" stroke="#FFD71E" style="stroke:#FFD71E;stroke:color(display-p3 1.0000 0.8431 0.1176);stroke-opacity:1;" stroke-width="1.70948" stroke-miterlimit="10"/>
<path d="M330.844 492.685V512.437" stroke="#91BFEC" style="stroke:#91BFEC;stroke:color(display-p3 0.5686 0.7490 0.9255);stroke-opacity:1;" stroke-width="2.84914" stroke-miterlimit="10"/>
<path d="M334.451 498.686V512.437" stroke="#FFD71E" style="stroke:#FFD71E;stroke:color(display-p3 1.0000 0.8431 0.1176);stroke-opacity:1;" stroke-width="1.70948" stroke-miterlimit="10"/>
<path d="M342.998 492.876V511.077" stroke="#91BFEC" style="stroke:#91BFEC;stroke:color(display-p3 0.5686 0.7490 0.9255);stroke-opacity:1;" stroke-width="2.84914" stroke-miterlimit="10"/>
<path d="M346.799 497.524V510.305" stroke="#FFD71E" style="stroke:#FFD71E;stroke:color(display-p3 1.0000 0.8431 0.1176);stroke-opacity:1;" stroke-width="1.70948" stroke-miterlimit="10"/>
<path d="M357.244 493.649V509.143" stroke="#91BFEC" style="stroke:#91BFEC;stroke:color(display-p3 0.5686 0.7490 0.9255);stroke-opacity:1;" stroke-width="2.84914" stroke-miterlimit="10"/>
<path d="M361.803 495.009V508.37" stroke="#FFD71E" style="stroke:#FFD71E;stroke:color(display-p3 1.0000 0.8431 0.1176);stroke-opacity:1;" stroke-width="1.70948" stroke-miterlimit="10"/>
<path d="M357.472 378.519C357.352 378.821 357.74 379.158 357.774 379.472C357.808 379.785 357.677 379.623 357.381 380.239C357.21 380.593 357.426 381.337 357.648 381.441C357.939 381.575 357.95 382.045 358.093 382.33C358.235 382.615 358.19 383.167 358.497 383.242C359.124 383.393 358.965 383.747 359.176 383.997C359.386 384.247 359.609 384.729 359.928 384.677C360.589 384.561 360.412 385.159 360.686 385.345C360.959 385.531 361.358 385.56 361.66 385.711C361.962 385.862 362.349 385.484 362.663 385.903C362.868 386.176 363.238 386.333 363.575 386.385C363.911 386.437 364.258 386.646 364.6 386.646C365.164 386.646 364.783 385.972 365.415 386.025C365.757 386.054 365.996 386.28 366.515 385.827C366.771 385.601 367.244 385.885 367.546 385.734C367.848 385.583 367.939 385.142 368.213 384.95C368.486 384.758 369.011 384.904 369.262 384.683C369.512 384.462 369.472 383.991 369.689 383.742C369.905 383.492 370.487 383.492 370.669 383.219C370.851 382.946 371.159 382.934 371.41 382.371C371.541 382.08 371.279 381.691 371.387 381.389C371.495 381.087 371.831 380.825 371.906 380.512C371.98 380.198 371.769 379.878 371.809 379.559C371.849 379.239 372.242 379.135 372.042 378.548C371.94 378.24 371.564 377.926 371.529 377.613C371.495 377.299 371.735 376.939 371.666 376.631C371.598 376.323 371.307 376.062 371.199 375.76C371.091 375.457 371.153 375.091 371.011 374.807C370.868 374.522 370.401 374.214 370.31 373.906C370.145 373.331 369.848 373.639 369.638 373.389C369.427 373.14 369.598 372.559 369.41 372.291C369.028 371.751 368.601 372.024 368.333 371.838C368.065 371.652 367.985 371.391 367.683 371.246C367.381 371.1 366.868 371.298 366.543 371.193C366.219 371.089 365.951 370.456 365.649 370.618C365.267 370.822 364.976 370.397 364.629 370.397C364.281 370.397 363.854 370.723 363.535 370.485C363.256 370.281 362.879 370.984 362.555 370.891C362.19 370.787 361.848 371.031 361.546 371.182C361.244 371.333 361.193 372.094 360.874 371.995C360.429 371.856 360.116 372.175 359.996 372.489C359.814 372.977 359.489 372.965 359.198 373.116C358.731 373.354 359.016 373.802 358.771 374.011C358.332 374.383 358.708 374.679 358.56 374.969C358.412 375.26 357.985 375.016 357.95 375.748C357.933 376.067 357.574 376.311 357.5 376.625C357.426 376.939 357.221 376.759 357.221 377.572C357.221 377.886 357.665 378.066 357.483 378.519H357.472Z" fill="#2076E5" style="fill:#2076E5;fill:color(display-p3 0.1255 0.4627 0.8980);fill-opacity:1;"/>
<path d="M364.338 384.555C361.311 384.555 358.857 381.931 358.857 378.693C358.857 375.456 361.311 372.832 364.338 372.832C367.366 372.832 369.82 375.456 369.82 378.693C369.82 381.931 367.366 384.555 364.338 384.555Z" fill="#E6F7FF" stroke="#8E98A8" style="fill:#E6F7FF;fill:color(display-p3 0.9020 0.9686 1.0000);fill-opacity:1;stroke:#8E98A8;stroke:color(display-p3 0.5569 0.5961 0.6588);stroke-opacity:1;" stroke-width="0.569827" stroke-miterlimit="10"/>
<path d="M364.811 383.067C364.139 383.067 364.139 381.952 364.811 381.952C365.484 381.952 365.484 383.067 364.811 383.067Z" fill="#8E98A8" style="fill:#8E98A8;fill:color(display-p3 0.5569 0.5961 0.6588);fill-opacity:1;"/>
<path d="M363.814 381.666C363.592 381.666 363.592 381.295 363.814 381.295C364.036 381.295 364.036 381.666 363.814 381.666Z" fill="#8E98A8" style="fill:#8E98A8;fill:color(display-p3 0.5569 0.5961 0.6588);fill-opacity:1;"/>
<path d="M364.019 380.36C363.347 380.36 363.347 379.245 364.019 379.245C364.691 379.245 364.691 380.36 364.019 380.36Z" fill="#8E98A8" style="fill:#8E98A8;fill:color(display-p3 0.5569 0.5961 0.6588);fill-opacity:1;"/>
<path d="M362.276 378.885C361.825 378.885 361.825 378.141 362.276 378.141C362.726 378.141 362.726 378.885 362.276 378.885Z" fill="#8E98A8" style="fill:#8E98A8;fill:color(display-p3 0.5569 0.5961 0.6588);fill-opacity:1;"/>
<path d="M361.569 380.976C360.674 380.976 360.674 379.489 361.569 379.489C362.463 379.489 362.463 380.976 361.569 380.976Z" fill="#8E98A8" style="fill:#8E98A8;fill:color(display-p3 0.5569 0.5961 0.6588);fill-opacity:1;"/>
<path d="M362.355 382.109C361.905 382.109 361.905 381.365 362.355 381.365C362.806 381.365 362.806 382.109 362.355 382.109Z" fill="#8E98A8" style="fill:#8E98A8;fill:color(display-p3 0.5569 0.5961 0.6588);fill-opacity:1;"/>
<path d="M364.64 377.537C363.746 377.537 363.746 376.049 364.64 376.049C365.535 376.049 365.535 377.537 364.64 377.537Z" fill="#8E98A8" style="fill:#8E98A8;fill:color(display-p3 0.5569 0.5961 0.6588);fill-opacity:1;"/>
<path d="M365.307 378.641C364.635 378.641 364.635 377.525 365.307 377.525C365.979 377.525 365.979 378.641 365.307 378.641Z" fill="#8E98A8" style="fill:#8E98A8;fill:color(display-p3 0.5569 0.5961 0.6588);fill-opacity:1;"/>
<path d="M366.8 378.541C366.35 378.541 366.35 377.798 366.8 377.798C367.25 377.798 367.25 378.541 366.8 378.541Z" fill="#8E98A8" style="fill:#8E98A8;fill:color(display-p3 0.5569 0.5961 0.6588);fill-opacity:1;"/>
<path d="M363.894 378.57C363.671 378.57 363.671 378.199 363.894 378.199C364.116 378.199 364.116 378.57 363.894 378.57Z" fill="#8E98A8" style="fill:#8E98A8;fill:color(display-p3 0.5569 0.5961 0.6588);fill-opacity:1;"/>
<path d="M366.886 377.212C365.769 377.212 365.763 375.353 366.886 375.353C368.008 375.353 368.008 377.212 366.886 377.212Z" fill="#8E98A8" style="fill:#8E98A8;fill:color(display-p3 0.5569 0.5961 0.6588);fill-opacity:1;"/>
<path d="M362.606 377.438C361.934 377.438 361.934 376.322 362.606 376.322C363.279 376.322 363.279 377.438 362.606 377.438Z" fill="#8E98A8" style="fill:#8E98A8;fill:color(display-p3 0.5569 0.5961 0.6588);fill-opacity:1;"/>
<path d="M363.689 375.236C363.239 375.236 363.239 374.493 363.689 374.493C364.139 374.493 364.139 375.236 363.689 375.236Z" fill="#8E98A8" style="fill:#8E98A8;fill:color(display-p3 0.5569 0.5961 0.6588);fill-opacity:1;"/>
<path d="M360.652 377.769C360.201 377.769 360.201 377.025 360.652 377.025C361.102 377.025 361.102 377.769 360.652 377.769Z" fill="#8E98A8" style="fill:#8E98A8;fill:color(display-p3 0.5569 0.5961 0.6588);fill-opacity:1;"/>
<path d="M366.219 379.47C365.996 379.47 365.996 379.1 366.219 379.1C366.441 379.1 366.441 379.47 366.219 379.47Z" fill="#8E98A8" style="fill:#8E98A8;fill:color(display-p3 0.5569 0.5961 0.6588);fill-opacity:1;"/>
<path d="M367.632 380.174C367.182 380.174 367.182 379.431 367.632 379.431C368.082 379.431 368.082 380.174 367.632 380.174Z" fill="#8E98A8" style="fill:#8E98A8;fill:color(display-p3 0.5569 0.5961 0.6588);fill-opacity:1;"/>
<path d="M366.971 381.992C366.298 381.992 366.298 380.877 366.971 380.877C367.643 380.877 367.643 381.992 366.971 381.992Z" fill="#8E98A8" style="fill:#8E98A8;fill:color(display-p3 0.5569 0.5961 0.6588);fill-opacity:1;"/>
<path d="M365.683 381.034C365.233 381.034 365.233 380.291 365.683 380.291C366.133 380.291 366.133 381.034 365.683 381.034Z" fill="#8E98A8" style="fill:#8E98A8;fill:color(display-p3 0.5569 0.5961 0.6588);fill-opacity:1;"/>
<path d="M365.221 375.648C364.999 375.648 364.999 375.277 365.221 375.277C365.444 375.277 365.444 375.648 365.221 375.648Z" fill="#8E98A8" style="fill:#8E98A8;fill:color(display-p3 0.5569 0.5961 0.6588);fill-opacity:1;"/>
<path d="M360.532 379.087C360.309 379.087 360.309 378.716 360.532 378.716C360.754 378.716 360.754 379.087 360.532 379.087Z" fill="#8E98A8" style="fill:#8E98A8;fill:color(display-p3 0.5569 0.5961 0.6588);fill-opacity:1;"/>
<path d="M361.404 375.775C361.181 375.775 361.181 375.404 361.404 375.404C361.626 375.404 361.626 375.775 361.404 375.775Z" fill="#8E98A8" style="fill:#8E98A8;fill:color(display-p3 0.5569 0.5961 0.6588);fill-opacity:1;"/>
<path d="M361.569 376.009C361.119 376.009 361.119 375.265 361.569 375.265C362.019 375.265 362.019 376.009 361.569 376.009Z" fill="#8E98A8" style="fill:#8E98A8;fill:color(display-p3 0.5569 0.5961 0.6588);fill-opacity:1;"/>
<path d="M361.358 376.595C361.136 376.595 361.136 376.224 361.358 376.224C361.58 376.224 361.58 376.595 361.358 376.595Z" fill="#8E98A8" style="fill:#8E98A8;fill:color(display-p3 0.5569 0.5961 0.6588);fill-opacity:1;"/>
<path d="M348.713 396.505C348.634 396.708 348.896 396.941 348.919 397.155C348.941 397.37 348.85 397.26 348.651 397.684C348.537 397.928 348.679 398.439 348.833 398.509C349.032 398.602 349.038 398.922 349.135 399.119C349.232 399.317 349.203 399.688 349.414 399.741C349.842 399.845 349.733 400.089 349.882 400.258C350.03 400.426 350.178 400.763 350.394 400.722C350.845 400.641 350.725 401.054 350.913 401.181C351.101 401.309 351.374 401.332 351.58 401.431C351.785 401.53 352.053 401.28 352.263 401.565C352.4 401.751 352.657 401.861 352.885 401.896C353.112 401.931 353.352 402.076 353.585 402.076C353.973 402.076 353.711 401.617 354.144 401.652C354.377 401.669 354.543 401.826 354.896 401.518C355.073 401.367 355.397 401.559 355.603 401.454C355.808 401.35 355.87 401.048 356.058 400.92C356.247 400.792 356.606 400.885 356.776 400.734C356.947 400.583 356.925 400.264 357.067 400.089C357.21 399.915 357.614 399.921 357.739 399.735C357.865 399.549 358.076 399.537 358.247 399.154C358.338 398.956 358.155 398.689 358.23 398.48C358.304 398.271 358.537 398.097 358.583 397.876C358.628 397.655 358.492 397.44 358.514 397.219C358.537 396.999 358.811 396.929 358.674 396.528C358.6 396.319 358.349 396.104 358.321 395.889C358.292 395.674 358.463 395.43 358.412 395.215C358.361 395 358.167 394.826 358.093 394.623C358.019 394.419 358.059 394.164 357.962 393.966C357.865 393.769 357.546 393.559 357.483 393.35C357.369 392.955 357.17 393.164 357.021 392.996C356.873 392.827 356.993 392.427 356.862 392.241C356.6 391.869 356.309 392.055 356.121 391.927C355.933 391.799 355.882 391.619 355.677 391.52C355.472 391.422 355.118 391.555 354.896 391.486C354.674 391.416 354.491 390.98 354.281 391.09C354.018 391.23 353.819 390.939 353.58 390.939C353.34 390.939 353.05 391.16 352.833 391.003C352.645 390.864 352.383 391.346 352.161 391.282C351.91 391.207 351.676 391.381 351.471 391.48C351.266 391.578 351.226 392.101 351.01 392.037C350.702 391.944 350.491 392.159 350.411 392.374C350.286 392.705 350.064 392.7 349.864 392.804C349.545 392.967 349.739 393.275 349.574 393.42C349.272 393.676 349.528 393.873 349.431 394.077C349.334 394.28 349.038 394.106 349.01 394.611C348.998 394.826 348.748 394.994 348.702 395.215C348.656 395.436 348.514 395.308 348.514 395.86C348.514 396.075 348.822 396.197 348.696 396.511L348.713 396.505Z" fill="#2076E5" style="fill:#2076E5;fill:color(display-p3 0.1255 0.4627 0.8980);fill-opacity:1;"/>
<path d="M353.415 400.635C351.341 400.635 349.659 398.838 349.659 396.621C349.659 394.404 351.341 392.607 353.415 392.607C355.488 392.607 357.17 394.404 357.17 396.621C357.17 398.838 355.488 400.635 353.415 400.635Z" fill="#E6F7FF" stroke="#8E98A8" style="fill:#E6F7FF;fill:color(display-p3 0.9020 0.9686 1.0000);fill-opacity:1;stroke:#8E98A8;stroke:color(display-p3 0.5569 0.5961 0.6588);stroke-opacity:1;" stroke-width="0.569827" stroke-miterlimit="10"/>
<path d="M353.733 399.619C353.272 399.619 353.272 398.852 353.733 398.852C354.195 398.852 354.195 399.619 353.733 399.619Z" fill="#8E98A8" style="fill:#8E98A8;fill:color(display-p3 0.5569 0.5961 0.6588);fill-opacity:1;"/>
<path d="M353.055 398.655C352.901 398.655 352.901 398.399 353.055 398.399C353.209 398.399 353.209 398.655 353.055 398.655Z" fill="#8E98A8" style="fill:#8E98A8;fill:color(display-p3 0.5569 0.5961 0.6588);fill-opacity:1;"/>
<path d="M353.198 397.765C352.736 397.765 352.736 396.999 353.198 396.999C353.659 396.999 353.659 397.765 353.198 397.765Z" fill="#8E98A8" style="fill:#8E98A8;fill:color(display-p3 0.5569 0.5961 0.6588);fill-opacity:1;"/>
<path d="M352.001 396.754C351.693 396.754 351.693 396.244 352.001 396.244C352.309 396.244 352.309 396.754 352.001 396.754Z" fill="#8E98A8" style="fill:#8E98A8;fill:color(display-p3 0.5569 0.5961 0.6588);fill-opacity:1;"/>
<path d="M351.517 398.184C350.907 398.184 350.901 397.167 351.517 397.167C352.132 397.167 352.132 398.184 351.517 398.184Z" fill="#8E98A8" style="fill:#8E98A8;fill:color(display-p3 0.5569 0.5961 0.6588);fill-opacity:1;"/>
<path d="M352.058 398.962C351.75 398.962 351.75 398.451 352.058 398.451C352.366 398.451 352.366 398.962 352.058 398.962Z" fill="#8E98A8" style="fill:#8E98A8;fill:color(display-p3 0.5569 0.5961 0.6588);fill-opacity:1;"/>
<path d="M353.625 395.831C353.015 395.831 353.01 394.814 353.625 394.814C354.24 394.814 354.24 395.831 353.625 395.831Z" fill="#8E98A8" style="fill:#8E98A8;fill:color(display-p3 0.5569 0.5961 0.6588);fill-opacity:1;"/>
<path d="M354.075 396.587C353.614 396.587 353.614 395.82 354.075 395.82C354.537 395.82 354.537 396.587 354.075 396.587Z" fill="#8E98A8" style="fill:#8E98A8;fill:color(display-p3 0.5569 0.5961 0.6588);fill-opacity:1;"/>
<path d="M355.101 396.516C354.793 396.516 354.793 396.005 355.101 396.005C355.409 396.005 355.409 396.516 355.101 396.516Z" fill="#8E98A8" style="fill:#8E98A8;fill:color(display-p3 0.5569 0.5961 0.6588);fill-opacity:1;"/>
<path d="M353.112 396.54C352.958 396.54 352.958 396.284 353.112 396.284C353.266 396.284 353.266 396.54 353.112 396.54Z" fill="#8E98A8" style="fill:#8E98A8;fill:color(display-p3 0.5569 0.5961 0.6588);fill-opacity:1;"/>
<path d="M355.158 395.605C354.394 395.605 354.389 394.333 355.158 394.333C355.927 394.333 355.927 395.605 355.158 395.605Z" fill="#8E98A8" style="fill:#8E98A8;fill:color(display-p3 0.5569 0.5961 0.6588);fill-opacity:1;"/>
<path d="M352.229 395.761C351.767 395.761 351.767 394.995 352.229 394.995C352.691 394.995 352.691 395.761 352.229 395.761Z" fill="#8E98A8" style="fill:#8E98A8;fill:color(display-p3 0.5569 0.5961 0.6588);fill-opacity:1;"/>
<path d="M352.97 394.25C352.662 394.25 352.662 393.74 352.97 393.74C353.277 393.74 353.277 394.25 352.97 394.25Z" fill="#8E98A8" style="fill:#8E98A8;fill:color(display-p3 0.5569 0.5961 0.6588);fill-opacity:1;"/>
<path d="M350.89 395.987C350.582 395.987 350.582 395.477 350.89 395.477C351.198 395.477 351.198 395.987 350.89 395.987Z" fill="#8E98A8" style="fill:#8E98A8;fill:color(display-p3 0.5569 0.5961 0.6588);fill-opacity:1;"/>
<path d="M354.702 397.156C354.548 397.156 354.548 396.9 354.702 396.9C354.856 396.9 354.856 397.156 354.702 397.156Z" fill="#8E98A8" style="fill:#8E98A8;fill:color(display-p3 0.5569 0.5961 0.6588);fill-opacity:1;"/>
<path d="M355.671 397.637C355.363 397.637 355.363 397.126 355.671 397.126C355.978 397.126 355.978 397.637 355.671 397.637Z" fill="#8E98A8" style="fill:#8E98A8;fill:color(display-p3 0.5569 0.5961 0.6588);fill-opacity:1;"/>
<path d="M355.215 398.881C354.753 398.881 354.753 398.114 355.215 398.114C355.676 398.114 355.676 398.881 355.215 398.881Z" fill="#8E98A8" style="fill:#8E98A8;fill:color(display-p3 0.5569 0.5961 0.6588);fill-opacity:1;"/>
<path d="M354.332 398.224C354.024 398.224 354.024 397.713 354.332 397.713C354.639 397.713 354.639 398.224 354.332 398.224Z" fill="#8E98A8" style="fill:#8E98A8;fill:color(display-p3 0.5569 0.5961 0.6588);fill-opacity:1;"/>
<path d="M354.018 394.536C353.864 394.536 353.864 394.28 354.018 394.28C354.172 394.28 354.172 394.536 354.018 394.536Z" fill="#8E98A8" style="fill:#8E98A8;fill:color(display-p3 0.5569 0.5961 0.6588);fill-opacity:1;"/>
<path d="M350.805 396.888C350.651 396.888 350.651 396.633 350.805 396.633C350.958 396.633 350.958 396.888 350.805 396.888Z" fill="#8E98A8" style="fill:#8E98A8;fill:color(display-p3 0.5569 0.5961 0.6588);fill-opacity:1;"/>
<path d="M351.403 394.629C351.249 394.629 351.249 394.373 351.403 394.373C351.557 394.373 351.557 394.629 351.403 394.629Z" fill="#8E98A8" style="fill:#8E98A8;fill:color(display-p3 0.5569 0.5961 0.6588);fill-opacity:1;"/>
<path d="M351.517 394.785C351.209 394.785 351.209 394.274 351.517 394.274C351.824 394.274 351.824 394.785 351.517 394.785Z" fill="#8E98A8" style="fill:#8E98A8;fill:color(display-p3 0.5569 0.5961 0.6588);fill-opacity:1;"/>
<path d="M351.374 395.186C351.221 395.186 351.221 394.931 351.374 394.931C351.528 394.931 351.528 395.186 351.374 395.186Z" fill="#8E98A8" style="fill:#8E98A8;fill:color(display-p3 0.5569 0.5961 0.6588);fill-opacity:1;"/>
</svg>
