<svg width="683" height="703" viewBox="0 0 683 703" fill="none" xmlns="http://www.w3.org/2000/svg">
<path d="M547.147 26.5977C541.886 32.1256 535.926 37.0126 529.54 41.3052C500.326 60.9614 425.366 104.682 351.764 92.6229C284.428 81.5904 223.887 45.2194 194.865 25.4011C179.17 14.6851 161.41 7.18857 142.622 3.83791C108.957 -2.17631 58.2159 -4.75493 27.612 24.4515C-15.2977 65.4006 12.6153 150.109 20.0855 170.221C21.5073 174.058 22.7121 177.957 23.668 181.925C28.5437 202.153 39.8696 259.091 21.2341 288.838C-1.14449 324.552 -22.3423 456.695 56.1917 508.878C58.8022 510.615 61.5253 512.174 64.2885 513.672C73.1885 518.482 105.913 538.13 120.5 574.216C137.473 616.199 154.309 690.161 316.245 689.173C393.549 688.702 416.45 612.47 494.43 613.59C556.907 614.493 682.921 645.545 682.351 585.488L682.664 96.5063C682.64 94.028 682.712 91.5497 682.865 89.0715C683.644 76.3868 683.09 23.6794 621.938 9.04148C620.757 8.75583 619.585 8.46245 618.42 8.11503C611.207 5.93787 575.237 -2.91747 547.147 26.6055V26.5977Z" fill="#C4ECEA" style="fill:#C4ECEA;fill:color(display-p3 0.7686 0.9255 0.9176);fill-opacity:1;"/>
<path d="M417.989 351.624C417.989 351.624 424.881 390.871 401.454 399.374C401.454 399.374 389.882 405.962 367.284 408.158C367.284 408.158 402.56 472.101 427.909 474.438C427.909 474.438 536.483 432.174 540.893 413.031C540.893 413.031 474.758 403.766 468.695 377.42C462.632 351.073 464.838 347.231 464.838 347.231L417.989 351.624Z" fill="#FCC097" style="fill:#FCC097;fill:color(display-p3 0.9882 0.7529 0.5922);fill-opacity:1;"/>
<g style="mix-blend-mode:soft-light">
<path d="M418.806 359.537C418.806 359.537 419.404 369.019 418.17 374.871C416.929 380.717 466.529 367.207 466.529 367.207L463.353 346.521L418.806 359.537Z" fill="black" style="fill:black;fill-opacity:1;"/>
</g>
<path d="M497.426 295.364C497.426 345.381 467.551 362.598 430.114 362.598C384.918 362.598 367.284 325.956 367.284 275.939C367.284 225.922 393.778 185.311 431.214 185.311C468.65 185.311 497.426 245.347 497.426 295.364Z" fill="#FCC097" style="fill:#FCC097;fill:color(display-p3 0.9882 0.7529 0.5922);fill-opacity:1;"/>
<path d="M401.306 395.563L353.931 403.054C353.931 403.054 331.288 407.952 318.346 472.381L296.487 612.854L577.731 657.217C577.731 657.217 629.71 430.425 574.523 413.439C529.97 399.731 506.671 397.394 497.992 397.062C495.665 396.972 493.389 397.772 491.653 399.315C485.957 404.367 469.164 416.237 436.145 417.351C419.5 417.915 407.092 414.752 405.736 398.995C405.549 396.793 403.498 395.218 401.306 395.563Z" fill="#2D7DE6" style="fill:#2D7DE6;fill:color(display-p3 0.1765 0.4902 0.9020);fill-opacity:1;"/>
<g style="mix-blend-mode:soft-light">
<path d="M375.005 231.601C375.005 231.601 442.336 304.385 483.855 279.722L375.005 231.601Z" fill="black" style="fill:black;fill-opacity:1;"/>
</g>
<path d="M375.005 231.601C375.005 231.601 436.73 284.659 483.855 279.722C483.855 279.722 491.917 266.456 496.526 279.633C498.834 286.221 497.426 304.974 490.187 313.752C487.513 326.026 488.123 335.309 488.123 335.309C488.123 335.309 505.34 327.902 518.571 280.35C531.796 232.798 519.446 173.517 447.087 174.343C374.722 175.168 329.674 193.838 368.531 257.441L375.005 231.607V231.601Z" fill="#02394C" style="fill:#02394C;fill:color(display-p3 0.0078 0.2235 0.2980);fill-opacity:1;"/>
<path d="M222.226 383.733C241.001 383.733 256.222 368.575 256.222 349.876C256.222 331.178 241.001 316.02 222.226 316.02C203.45 316.02 188.229 331.178 188.229 349.876C188.229 368.575 203.45 383.733 222.226 383.733Z" fill="#36679B" style="fill:#36679B;fill:color(display-p3 0.2118 0.4039 0.6078);fill-opacity:1;"/>
<g style="mix-blend-mode:soft-light">
<path d="M212.591 367.568C215.473 371.436 220.957 372.246 224.841 369.376C228.725 366.507 229.538 361.045 226.656 357.177L216.379 343.381C213.498 339.513 208.014 338.704 204.13 341.573C200.246 344.442 199.433 349.904 202.314 353.772L212.591 367.568Z" fill="black" style="fill:black;fill-opacity:1;"/>
<path d="M221.64 350.407L226.649 357.136C229.516 360.991 228.7 366.478 224.836 369.333C220.965 372.189 215.456 371.376 212.588 367.528L207.574 360.792L221.647 350.414L221.64 350.407Z" fill="black" style="fill:black;fill-opacity:1;"/>
</g>
<path d="M214.747 365.985C217.629 369.853 223.113 370.663 226.997 367.793C230.881 364.924 231.694 359.462 228.812 355.594L218.535 341.798C215.654 337.93 210.17 337.121 206.286 339.99C202.402 342.859 201.589 348.321 204.47 352.189L214.747 365.985Z" fill="white" style="fill:white;fill-opacity:1;"/>
<path d="M223.788 348.82L228.797 355.549C231.664 359.404 230.847 364.891 226.984 367.746C223.113 370.602 217.604 369.789 214.736 365.941L209.722 359.205L223.795 348.827L223.788 348.82Z" fill="#44D0CE" style="fill:#44D0CE;fill:color(display-p3 0.2667 0.8157 0.8078);fill-opacity:1;"/>
<g style="mix-blend-mode:soft-light">
<path d="M230.474 356.65C233.971 356.65 236.807 353.855 236.807 350.408C236.807 346.96 233.971 344.165 230.474 344.165C226.977 344.165 224.141 346.96 224.141 350.408C224.141 353.855 226.977 356.65 230.474 356.65Z" fill="black" style="fill:black;fill-opacity:1;"/>
</g>
<path d="M232.14 356.65C235.637 356.65 238.472 353.855 238.472 350.408C238.472 346.96 235.637 344.165 232.14 344.165C228.642 344.165 225.807 346.96 225.807 350.408C225.807 353.855 228.642 356.65 232.14 356.65Z" fill="#F8C137" style="fill:#F8C137;fill:color(display-p3 0.9725 0.7569 0.2157);fill-opacity:1;"/>
<path d="M233.168 356.138C236.523 356.138 239.243 353.458 239.243 350.151C239.243 346.845 236.523 344.165 233.168 344.165C229.813 344.165 227.092 346.845 227.092 350.151C227.092 353.458 229.813 356.138 233.168 356.138Z" fill="#FDD714" style="fill:#FDD714;fill:color(display-p3 0.9922 0.8431 0.0784);fill-opacity:1;"/>
<g style="mix-blend-mode:soft-light">
<path d="M224.669 335.151C227.392 335.151 229.6 332.972 229.6 330.285C229.6 327.598 227.392 325.419 224.669 325.419C221.945 325.419 219.738 327.598 219.738 330.285C219.738 332.972 221.945 335.151 224.669 335.151Z" fill="black" style="fill:black;fill-opacity:1;"/>
</g>
<path d="M225.967 335.151C228.691 335.151 230.898 332.972 230.898 330.285C230.898 327.598 228.691 325.419 225.967 325.419C223.244 325.419 221.036 327.598 221.036 330.285C221.036 332.972 223.244 335.151 225.967 335.151Z" fill="#F8C137" style="fill:#F8C137;fill:color(display-p3 0.9725 0.7569 0.2157);fill-opacity:1;"/>
<path d="M226.765 334.754C229.378 334.754 231.496 332.664 231.496 330.086C231.496 327.509 229.378 325.419 226.765 325.419C224.151 325.419 222.033 327.509 222.033 330.086C222.033 332.664 224.151 334.754 226.765 334.754Z" fill="#FDD714" style="fill:#FDD714;fill:color(display-p3 0.9922 0.8431 0.0784);fill-opacity:1;"/>
<path d="M163.394 471.205C185.706 471.205 203.794 453.192 203.794 430.971C203.794 408.751 185.706 390.737 163.394 390.737C141.082 390.737 122.994 408.751 122.994 430.971C122.994 453.192 141.082 471.205 163.394 471.205Z" fill="#36679B" style="fill:#36679B;fill:color(display-p3 0.2118 0.4039 0.6078);fill-opacity:1;"/>
<path d="M178.136 443.027C176.663 443.027 175.217 442.681 173.802 441.983C164.744 437.527 160.327 419.536 159.98 418.051C159.588 416.783 158.013 411.206 159.588 408.338C160.089 407.416 160.867 406.795 161.832 406.526C162.854 406.244 163.921 406.846 164.204 407.864C164.48 408.856 163.921 409.874 162.957 410.195C162.481 410.969 162.822 414.203 163.69 416.975L163.728 417.116C164.866 422.02 169.206 435.434 175.525 438.539C177.261 439.39 179.029 439.39 180.926 438.532C182.925 437.623 184.295 436.131 185.098 433.961C188.416 425.029 181.029 409.023 180.952 408.863C180.276 407.473 179.171 405.956 178.624 405.662C178.611 405.662 178.598 405.662 178.579 405.662C177.615 405.662 176.779 404.938 176.67 403.958C176.548 402.908 177.306 401.954 178.367 401.833C181.344 401.494 183.6 405.489 184.442 407.217C184.79 407.954 192.588 424.876 188.718 435.286C187.554 438.423 185.471 440.69 182.527 442.022C181.054 442.688 179.595 443.021 178.155 443.021L178.136 443.027Z" fill="#44D0CE" style="fill:#44D0CE;fill:color(display-p3 0.2667 0.8157 0.8078);fill-opacity:1;"/>
<path d="M163.953 459.481C162.757 459.481 161.517 459.43 160.218 459.327C152.15 458.687 146.441 455.87 143.232 450.953C137.794 442.604 141.683 431.393 141.85 430.919L144.274 431.77C144.235 431.873 140.642 442.29 145.393 449.57C148.138 453.776 153.197 456.203 160.417 456.773C168.769 457.432 174.645 455.87 177.885 452.118C181.987 447.374 180.469 440.632 180.457 440.561L182.957 439.985C183.035 440.311 184.77 448.071 179.833 453.789C176.56 457.573 171.231 459.481 163.953 459.481Z" fill="#44D0CE" style="fill:#44D0CE;fill:color(display-p3 0.2667 0.8157 0.8078);fill-opacity:1;"/>
<path d="M144.171 436.848C149.373 436.848 153.59 432.649 153.59 427.469C153.59 422.288 149.373 418.089 144.171 418.089C138.97 418.089 134.753 422.288 134.753 427.469C134.753 432.649 138.97 436.848 144.171 436.848Z" fill="#44D0CE" style="fill:#44D0CE;fill:color(display-p3 0.2667 0.8157 0.8078);fill-opacity:1;"/>
<path d="M144.171 435.222C148.471 435.222 151.956 431.75 151.956 427.468C151.956 423.186 148.471 419.715 144.171 419.715C139.871 419.715 136.385 423.186 136.385 427.468C136.385 431.75 139.871 435.222 144.171 435.222Z" fill="white" style="fill:white;fill-opacity:1;"/>
<path d="M144.171 432.948C147.21 432.948 149.674 430.495 149.674 427.468C149.674 424.441 147.21 421.987 144.171 421.987C141.132 421.987 138.668 424.441 138.668 427.468C138.668 430.495 141.132 432.948 144.171 432.948Z" fill="#FDD714" style="fill:#FDD714;fill:color(display-p3 0.9922 0.8431 0.0784);fill-opacity:1;"/>
<path d="M201.994 543.635C220.266 543.635 235.078 528.884 235.078 510.688C235.078 492.491 220.266 477.74 201.994 477.74C183.722 477.74 168.91 492.491 168.91 510.688C168.91 528.884 183.722 543.635 201.994 543.635Z" fill="#36679B" style="fill:#36679B;fill:color(display-p3 0.2118 0.4039 0.6078);fill-opacity:1;"/>
<path d="M206.681 491.166H197.211C195.176 491.166 193.527 492.809 193.527 494.835V528.263C193.527 530.289 195.176 531.931 197.211 531.931H206.681C208.715 531.931 210.365 530.289 210.365 528.263V494.835C210.365 492.809 208.715 491.166 206.681 491.166Z" fill="white" style="fill:white;fill-opacity:1;"/>
<path d="M222.457 516.264V506.833C222.457 504.807 220.808 503.164 218.774 503.164H185.208C183.173 503.164 181.524 504.807 181.524 506.833V516.264C181.524 518.29 183.173 519.932 185.208 519.932H218.774C220.808 519.932 222.457 518.29 222.457 516.264Z" fill="white" style="fill:white;fill-opacity:1;"/>
<path d="M244.29 499.35L276.088 471.825" stroke="#2A7997" style="stroke:#2A7997;stroke:color(display-p3 0.1647 0.4745 0.5922);stroke-opacity:1;" stroke-width="3.53135" stroke-miterlimit="10"/>
<path d="M210.268 432.948H269.595" stroke="#2A7997" style="stroke:#2A7997;stroke:color(display-p3 0.1647 0.4745 0.5922);stroke-opacity:1;" stroke-width="3.53135" stroke-miterlimit="10"/>
<path d="M252.217 371.08L277.637 394.987" stroke="#2A7997" style="stroke:#2A7997;stroke:color(display-p3 0.1647 0.4745 0.5922);stroke-opacity:1;" stroke-width="3.53135" stroke-miterlimit="10"/>
<path d="M93.4784 619.391C161.677 601.041 229.87 582.692 298.069 564.342L296.488 575.93L93.9027 634.104L93.4784 619.391Z" fill="url(#paint0_linear_434_853)" style=""/>
<path d="M455.509 608.059L298.069 564.342L296.487 575.93L449.749 619.769L455.509 608.059Z" fill="url(#paint1_linear_434_853)" style=""/>
<path d="M91.9418 592.615L93.9027 634.104L232.821 687.828L235.862 640.218L91.9418 592.615Z" fill="white" style="fill:white;fill-opacity:1;"/>
<path d="M235.862 640.22L232.821 687.829L452.809 620.647V580.067L235.862 640.22Z" fill="white" style="fill:white;fill-opacity:1;"/>
<path d="M232.821 687.828L234.923 667.909L454.352 602.885L452.809 620.645L232.821 687.828Z" fill="url(#paint2_linear_434_853)" style=""/>
<path d="M232.821 687.828L234.923 667.91L92.9898 614.871C93.292 621.286 93.5942 627.695 93.8963 634.111L232.815 687.835L232.821 687.828Z" fill="url(#paint3_linear_434_853)" style=""/>
<path d="M91.9418 592.616L298.069 541.876L452.809 580.067L235.862 640.219L91.9418 592.616Z" fill="#A2C5D5" style="fill:#A2C5D5;fill:color(display-p3 0.6353 0.7725 0.8353);fill-opacity:1;"/>
<path d="M240.973 650.091L242.419 649.65L315.434 628.515L259.656 655.066L240.973 650.091Z" fill="#A2C5D5" style="fill:#A2C5D5;fill:color(display-p3 0.6353 0.7725 0.8353);fill-opacity:1;"/>
<path d="M296.487 646.308L362.79 624.942L327.36 648.952L296.487 646.308Z" fill="#A2C5D5" style="fill:#A2C5D5;fill:color(display-p3 0.6353 0.7725 0.8353);fill-opacity:1;"/>
<mask id="mask0_434_853" style="mask-type:luminance" maskUnits="userSpaceOnUse" x="396" y="378" width="288" height="325">
<path d="M683 378.155H396.241V702.945H683V378.155Z" fill="white" style="fill:white;fill-opacity:1;"/>
</mask>
<g mask="url(#mask0_434_853)">
<path d="M676.41 447.292L452.089 394.765C448.373 393.894 444.728 394.484 441.668 396.097H441.655C441.558 396.155 441.462 396.206 441.365 396.257L434.004 400.143C434.949 399.721 436.274 399.241 437.862 398.959C435.296 401.616 433.683 405.227 433.683 409.293V582.296C433.683 589.224 438.466 595.236 445.236 596.824L669.557 649.35C671.659 649.843 673.742 649.869 675.709 649.504C675.208 650.01 674.578 650.541 673.8 651.079L678.628 648.652C679.368 648.352 680.081 647.993 680.763 647.577C685.032 644.99 687.976 640.316 687.976 634.823V461.819C687.976 454.892 683.193 448.88 676.423 447.292H676.41Z" fill="#78A5C0" style="fill:#78A5C0;fill:color(display-p3 0.4706 0.6471 0.7529);fill-opacity:1;"/>
<path d="M433.998 400.144C433.001 400.592 432.423 400.976 432.423 400.976L433.998 400.144Z" fill="#78A5C0" style="fill:#78A5C0;fill:color(display-p3 0.4706 0.6471 0.7529);fill-opacity:1;"/>
<path d="M673.793 651.073L669.21 653.378C671.138 652.674 672.63 651.874 673.793 651.073Z" fill="#78A5C0" style="fill:#78A5C0;fill:color(display-p3 0.4706 0.6471 0.7529);fill-opacity:1;"/>
<path d="M604.496 647.795L603.338 651.38L572.441 662.06L573.598 658.474L604.496 647.795Z" fill="#647984" style="fill:#647984;fill:color(display-p3 0.3922 0.4745 0.5176);fill-opacity:1;"/>
<path d="M573.598 658.475L572.44 662.06L482.961 643.512L484.119 639.92L573.598 658.475Z" fill="#60747E" style="fill:#60747E;fill:color(display-p3 0.3765 0.4549 0.4941);fill-opacity:1;"/>
<path d="M573.598 658.474L484.119 639.919L516.283 628.99L604.496 647.795L573.598 658.474Z" fill="#A2C5D5" style="fill:#A2C5D5;fill:color(display-p3 0.6353 0.7725 0.8353);fill-opacity:1;"/>
<path d="M516.019 616.928V638.549L576.098 652.622V630.975L516.019 616.928Z" fill="#A2C5D5" style="fill:#A2C5D5;fill:color(display-p3 0.6353 0.7725 0.8353);fill-opacity:1;"/>
<path d="M576.099 652.622L582.463 650.304V630.975H576.099" fill="#78A5C0" style="fill:#78A5C0;fill:color(display-p3 0.4706 0.6471 0.7529);fill-opacity:1;"/>
<path d="M661.27 653.673L436.949 601.146C430.179 599.558 425.396 593.546 425.396 586.619V413.615C425.396 403.992 434.403 396.885 443.809 399.087L668.13 451.614C674.9 453.202 679.683 459.214 679.683 466.142V639.145C679.683 648.768 670.676 655.875 661.27 653.673Z" fill="#A8CCDD" style="fill:#A8CCDD;fill:color(display-p3 0.6588 0.8000 0.8667);fill-opacity:1;"/>
<path d="M644.722 643.915L444.014 596.92C437.958 595.499 433.677 590.121 433.677 583.923V429.135C433.677 420.523 441.739 414.165 450.154 416.137L650.862 463.132C656.918 464.554 661.2 469.932 661.2 476.129V630.918C661.2 639.529 653.137 645.887 644.722 643.915Z" fill="#F6FFFF" style="fill:#F6FFFF;fill:color(display-p3 0.9647 1.0000 1.0000);fill-opacity:1;"/>
<path d="M560.823 520.159L447.087 492.993V424.928L560.823 452.094V520.159Z" fill="white" stroke="#A8CCDD" style="fill:white;fill-opacity:1;stroke:#A8CCDD;stroke:color(display-p3 0.6588 0.8000 0.8667);stroke-opacity:1;" stroke-width="1.41254" stroke-miterlimit="10"/>
<path d="M487.14 485.638L452.989 477.602V431.216L487.14 439.257V485.638Z" stroke="#A8CCDD" style="stroke:#A8CCDD;stroke:color(display-p3 0.6588 0.8000 0.8667);stroke-opacity:1;" stroke-width="1.41254" stroke-miterlimit="10"/>
<path d="M547.438 457.812L496.616 445.75V441.114L547.438 453.17V457.812Z" fill="#A8CCDD" style="fill:#A8CCDD;fill:color(display-p3 0.6588 0.8000 0.8667);fill-opacity:1;"/>
<path d="M550.986 496.156L532.162 491.578V488.39L550.986 492.961V496.156Z" fill="#A8CCDD" style="fill:#A8CCDD;fill:color(display-p3 0.6588 0.8000 0.8667);fill-opacity:1;"/>
<path d="M550.987 462.292L492.11 448.501V447.208L550.987 460.999V462.292Z" fill="#A8CCDD" style="fill:#A8CCDD;fill:color(display-p3 0.6588 0.8000 0.8667);fill-opacity:1;"/>
<path d="M550.987 465.968L492.11 452.177V450.884L550.987 464.675V465.968Z" fill="#A8CCDD" style="fill:#A8CCDD;fill:color(display-p3 0.6588 0.8000 0.8667);fill-opacity:1;"/>
<path d="M550.987 470.219L492.11 456.428V455.135L550.987 468.926V470.219Z" fill="#A8CCDD" style="fill:#A8CCDD;fill:color(display-p3 0.6588 0.8000 0.8667);fill-opacity:1;"/>
<path d="M550.987 474.747L492.11 460.955V459.662L550.987 473.453V474.747Z" fill="#A8CCDD" style="fill:#A8CCDD;fill:color(display-p3 0.6588 0.8000 0.8667);fill-opacity:1;"/>
<path d="M550.987 479.17L492.11 465.385V464.092L550.987 477.876V479.17Z" fill="#A8CCDD" style="fill:#A8CCDD;fill:color(display-p3 0.6588 0.8000 0.8667);fill-opacity:1;"/>
<path d="M550.987 484.158L492.11 470.373V469.08L550.987 482.865V484.158Z" fill="#A8CCDD" style="fill:#A8CCDD;fill:color(display-p3 0.6588 0.8000 0.8667);fill-opacity:1;"/>
<path d="M550.987 489.831L492.11 476.039V474.746L550.987 488.537V489.831Z" fill="#A8CCDD" style="fill:#A8CCDD;fill:color(display-p3 0.6588 0.8000 0.8667);fill-opacity:1;"/>
<path d="M478.654 483.524L459.405 478.902V461.525C459.405 457.056 463.784 453.893 468.046 455.27L470.534 456.07C475.375 457.632 478.654 462.127 478.654 467.191V483.524Z" fill="#A8CCDD" style="fill:#A8CCDD;fill:color(display-p3 0.6588 0.8000 0.8667);fill-opacity:1;"/>
<path d="M471.203 458.426H465.924V452.241L471.203 453.791V458.426Z" fill="#A8CCDD" style="fill:#A8CCDD;fill:color(display-p3 0.6588 0.8000 0.8667);fill-opacity:1;"/>
<path d="M469.235 454.751C473.18 454.751 476.378 451.145 476.378 446.697C476.378 442.249 473.18 438.643 469.235 438.643C465.29 438.643 462.092 442.249 462.092 446.697C462.092 451.145 465.29 454.751 469.235 454.751Z" fill="#A8CCDD" style="fill:#A8CCDD;fill:color(display-p3 0.6588 0.8000 0.8667);fill-opacity:1;"/>
<path d="M540.031 508.892C543.117 508.892 545.618 505.776 545.618 501.932C545.618 498.089 543.117 494.973 540.031 494.973C536.946 494.973 534.445 498.089 534.445 501.932C534.445 505.776 536.946 508.892 540.031 508.892Z" fill="#A8CCDD" style="fill:#A8CCDD;fill:color(display-p3 0.6588 0.8000 0.8667);fill-opacity:1;"/>
<path d="M548.551 513.11L531.334 509.038V508.27L548.551 512.342V513.11Z" fill="#A8CCDD" style="fill:#A8CCDD;fill:color(display-p3 0.6588 0.8000 0.8667);fill-opacity:1;"/>
<path d="M643.976 625.802L525.2 596.843C523.342 596.388 522.031 594.73 522.031 592.822V454.642C522.031 451.959 524.557 449.981 527.18 450.621L645.957 479.58C647.815 480.035 649.126 481.693 649.126 483.601V621.781C649.126 624.464 646.6 626.442 643.976 625.802Z" fill="#A8CCDD" stroke="white" style="fill:#A8CCDD;fill:color(display-p3 0.6588 0.8000 0.8667);fill-opacity:1;stroke:white;stroke-opacity:1;" stroke-width="1.41254" stroke-miterlimit="10"/>
<path d="M644.149 495.657L526.575 466.353V455.52L644.149 484.824V495.657Z" fill="white" stroke="#A8CCDD" style="fill:white;fill-opacity:1;stroke:#A8CCDD;stroke:color(display-p3 0.6588 0.8000 0.8667);stroke-opacity:1;" stroke-width="1.41254" stroke-miterlimit="10"/>
<path d="M642.079 619.227L526.575 589.538V470.22L642.079 499.908V619.227Z" fill="white" stroke="#A8CCDD" style="fill:white;fill-opacity:1;stroke:#A8CCDD;stroke:color(display-p3 0.6588 0.8000 0.8667);stroke-opacity:1;" stroke-width="1.41254" stroke-miterlimit="10"/>
<path d="M590.481 506.169L529.103 490.649V484.977L590.481 500.496V506.169Z" fill="#FFD417" style="fill:#FFD417;fill:color(display-p3 1.0000 0.8314 0.0902);fill-opacity:1;"/>
<path d="M590.481 508.872L529.103 493.345V491.61L590.481 507.13V508.872Z" fill="#A8CCDD" style="fill:#A8CCDD;fill:color(display-p3 0.6588 0.8000 0.8667);fill-opacity:1;"/>
<path d="M637.483 523.911L529.103 496.348V494.606L637.483 522.176V523.911Z" fill="#A8CCDD" style="fill:#A8CCDD;fill:color(display-p3 0.6588 0.8000 0.8667);fill-opacity:1;"/>
<path d="M637.489 527.631L529.109 500.062V498.32L637.489 525.89V527.631Z" fill="#A8CCDD" style="fill:#A8CCDD;fill:color(display-p3 0.6588 0.8000 0.8667);fill-opacity:1;"/>
<path d="M637.489 531.511L529.109 503.941V502.206L637.489 529.769V531.511Z" fill="#A8CCDD" style="fill:#A8CCDD;fill:color(display-p3 0.6588 0.8000 0.8667);fill-opacity:1;"/>
<path d="M637.489 535.275L529.109 507.712V505.971L637.489 533.54V535.275Z" fill="#A8CCDD" style="fill:#A8CCDD;fill:color(display-p3 0.6588 0.8000 0.8667);fill-opacity:1;"/>
<path d="M590.481 537.632L529.103 522.112V516.439L590.481 531.966V537.632Z" fill="#FFD417" style="fill:#FFD417;fill:color(display-p3 1.0000 0.8314 0.0902);fill-opacity:1;"/>
<path d="M590.481 540.335L529.103 524.815V523.073L590.481 538.593V540.335Z" fill="#A8CCDD" style="fill:#A8CCDD;fill:color(display-p3 0.6588 0.8000 0.8667);fill-opacity:1;"/>
<path d="M637.483 555.374L529.103 527.811V526.069L637.483 553.639V555.374Z" fill="#A8CCDD" style="fill:#A8CCDD;fill:color(display-p3 0.6588 0.8000 0.8667);fill-opacity:1;"/>
<path d="M637.489 559.094L529.109 531.525V529.783L637.489 557.353V559.094Z" fill="#A8CCDD" style="fill:#A8CCDD;fill:color(display-p3 0.6588 0.8000 0.8667);fill-opacity:1;"/>
<path d="M637.489 562.973L529.109 535.41V533.669L637.489 561.238V562.973Z" fill="#A8CCDD" style="fill:#A8CCDD;fill:color(display-p3 0.6588 0.8000 0.8667);fill-opacity:1;"/>
<path d="M637.489 566.745L529.109 539.175V537.434L637.489 565.003V566.745Z" fill="#A8CCDD" style="fill:#A8CCDD;fill:color(display-p3 0.6588 0.8000 0.8667);fill-opacity:1;"/>
<path d="M590.481 575.862L529.103 560.342V554.676L590.481 570.196V575.862Z" fill="#FFD417" style="fill:#FFD417;fill:color(display-p3 1.0000 0.8314 0.0902);fill-opacity:1;"/>
<path d="M590.481 578.564L529.103 563.044V561.303L590.481 576.829V578.564Z" fill="#A8CCDD" style="fill:#A8CCDD;fill:color(display-p3 0.6588 0.8000 0.8667);fill-opacity:1;"/>
<path d="M637.483 593.611L529.103 566.041V564.3L637.483 591.869V593.611Z" fill="#A8CCDD" style="fill:#A8CCDD;fill:color(display-p3 0.6588 0.8000 0.8667);fill-opacity:1;"/>
<path d="M637.489 597.323L529.109 569.754V568.019L637.489 595.582V597.323Z" fill="#A8CCDD" style="fill:#A8CCDD;fill:color(display-p3 0.6588 0.8000 0.8667);fill-opacity:1;"/>
<path d="M637.489 601.209L529.109 573.64V571.898L637.489 599.468V601.209Z" fill="#A8CCDD" style="fill:#A8CCDD;fill:color(display-p3 0.6588 0.8000 0.8667);fill-opacity:1;"/>
<path d="M637.489 604.975L529.109 577.406V575.664L637.489 603.234V604.975Z" fill="#A8CCDD" style="fill:#A8CCDD;fill:color(display-p3 0.6588 0.8000 0.8667);fill-opacity:1;"/>
<path d="M540.032 481.482L529.109 478.53V474.746L540.032 477.704V481.482Z" fill="#A8CCDD" style="fill:#A8CCDD;fill:color(display-p3 0.6588 0.8000 0.8667);fill-opacity:1;"/>
<path d="M554.015 485.47L543.092 482.512V478.734L554.015 481.686V485.47Z" fill="#A8CCDD" style="fill:#A8CCDD;fill:color(display-p3 0.6588 0.8000 0.8667);fill-opacity:1;"/>
<path d="M568.609 489.241L557.686 486.283V482.506L568.609 485.457V489.241Z" fill="#A8CCDD" style="fill:#A8CCDD;fill:color(display-p3 0.6588 0.8000 0.8667);fill-opacity:1;"/>
<path d="M583.512 493.212L572.582 490.254V486.47L583.512 489.428V493.212Z" fill="#A8CCDD" style="fill:#A8CCDD;fill:color(display-p3 0.6588 0.8000 0.8667);fill-opacity:1;"/>
<path d="M597.488 497.194L586.565 494.242V490.458L597.488 493.416V497.194Z" fill="#A8CCDD" style="fill:#A8CCDD;fill:color(display-p3 0.6588 0.8000 0.8667);fill-opacity:1;"/>
<path d="M612.082 500.965L601.159 498.007V494.229L612.082 497.187V500.965Z" fill="#A8CCDD" style="fill:#A8CCDD;fill:color(display-p3 0.6588 0.8000 0.8667);fill-opacity:1;"/>
<path d="M625.229 504.499L614.307 501.548V497.764L625.229 500.722V504.499Z" fill="#A8CCDD" style="fill:#A8CCDD;fill:color(display-p3 0.6588 0.8000 0.8667);fill-opacity:1;"/>
<path d="M639.823 508.27L628.9 505.318V501.534L639.823 504.492V508.27Z" fill="#A8CCDD" style="fill:#A8CCDD;fill:color(display-p3 0.6588 0.8000 0.8667);fill-opacity:1;"/>
<path d="M536.2 609.641L447.087 587.655V506.438L536.2 527.279V609.641Z" fill="#7ABED3" style="fill:#7ABED3;fill:color(display-p3 0.4784 0.7451 0.8275);fill-opacity:1;"/>
<path d="M529.109 605.774L449.003 585.978V512.976L529.109 531.703V605.774Z" fill="white" style="fill:white;fill-opacity:1;"/>
<path d="M450.038 513.11V525.352L528.286 544.624V531.473L450.038 513.11Z" fill="#7ABED3" stroke="white" style="fill:#7ABED3;fill:color(display-p3 0.4784 0.7451 0.8275);fill-opacity:1;stroke:white;stroke-opacity:1;" stroke-width="2.11881" stroke-miterlimit="10"/>
<path d="M459.997 538.676L452.263 536.717V528.624L459.997 530.583V538.676Z" fill="white" stroke="#7ABED3" style="fill:white;fill-opacity:1;stroke:#7ABED3;stroke:color(display-p3 0.4784 0.7451 0.8275);stroke-opacity:1;" stroke-width="0.529703" stroke-miterlimit="10"/>
<path d="M470.393 540.975L462.402 539.054V531.096L470.393 533.023V540.975Z" fill="white" stroke="#7ABED3" style="fill:white;fill-opacity:1;stroke:#7ABED3;stroke:color(display-p3 0.4784 0.7451 0.8275);stroke-opacity:1;" stroke-width="0.529703" stroke-miterlimit="10"/>
<path d="M481.586 543.811L473.517 541.864V533.829L481.586 535.769V543.811Z" fill="white" stroke="#7ABED3" style="fill:white;fill-opacity:1;stroke:#7ABED3;stroke:color(display-p3 0.4784 0.7451 0.8275);stroke-opacity:1;" stroke-width="0.529703" stroke-miterlimit="10"/>
<path d="M493.293 547.775L483.881 545.342V535.271L493.293 537.71V547.775Z" fill="#7ABED3" stroke="white" style="fill:#7ABED3;fill:color(display-p3 0.4784 0.7451 0.8275);fill-opacity:1;stroke:white;stroke-opacity:1;" stroke-width="2.11881" stroke-miterlimit="10"/>
<path d="M503.959 550.405L494.09 548.03V538.202L503.959 540.578V550.405Z" fill="#7ABED3" stroke="white" style="fill:#7ABED3;fill:color(display-p3 0.4784 0.7451 0.8275);fill-opacity:1;stroke:white;stroke-opacity:1;" stroke-width="2.11881" stroke-miterlimit="10"/>
<path d="M515.647 553.492L505.778 551.117V541.289L515.647 543.664V553.492Z" fill="#FFD417" stroke="white" style="fill:#FFD417;fill:color(display-p3 1.0000 0.8314 0.0902);fill-opacity:1;stroke:white;stroke-opacity:1;" stroke-width="2.11881" stroke-miterlimit="10"/>
<path d="M527.553 556.738L517.685 554.363V544.535L527.553 546.911V556.738Z" fill="#7ABED3" stroke="white" style="fill:#7ABED3;fill:color(display-p3 0.4784 0.7451 0.8275);fill-opacity:1;stroke:white;stroke-opacity:1;" stroke-width="2.11881" stroke-miterlimit="10"/>
<path d="M460.678 550.789L450.81 548.414V538.586L460.678 540.968V550.789Z" fill="#7ABED3" stroke="white" style="fill:#7ABED3;fill:color(display-p3 0.4784 0.7451 0.8275);fill-opacity:1;stroke:white;stroke-opacity:1;" stroke-width="2.11881" stroke-miterlimit="10"/>
<path d="M471.331 553.799L461.463 551.417V541.589L471.331 543.971V553.799Z" fill="#7ABED3" stroke="white" style="fill:#7ABED3;fill:color(display-p3 0.4784 0.7451 0.8275);fill-opacity:1;stroke:white;stroke-opacity:1;" stroke-width="2.11881" stroke-miterlimit="10"/>
<path d="M481.74 556.577L471.872 554.202V544.374L481.74 546.749V556.577Z" fill="#7ABED3" stroke="white" style="fill:#7ABED3;fill:color(display-p3 0.4784 0.7451 0.8275);fill-opacity:1;stroke:white;stroke-opacity:1;" stroke-width="2.11881" stroke-miterlimit="10"/>
<path d="M492.669 559.433L482.807 557.057V547.229L492.669 549.605V559.433Z" fill="#7ABED3" stroke="white" style="fill:#7ABED3;fill:color(display-p3 0.4784 0.7451 0.8275);fill-opacity:1;stroke:white;stroke-opacity:1;" stroke-width="2.11881" stroke-miterlimit="10"/>
<path d="M503.959 562.065L494.09 559.683V549.861L503.959 552.237V562.065Z" fill="#7ABED3" stroke="white" style="fill:#7ABED3;fill:color(display-p3 0.4784 0.7451 0.8275);fill-opacity:1;stroke:white;stroke-opacity:1;" stroke-width="2.11881" stroke-miterlimit="10"/>
<path d="M515.647 565.151L505.778 562.775V552.947L515.647 555.323V565.151Z" fill="#7ABED3" stroke="white" style="fill:#7ABED3;fill:color(display-p3 0.4784 0.7451 0.8275);fill-opacity:1;stroke:white;stroke-opacity:1;" stroke-width="2.11881" stroke-miterlimit="10"/>
<path d="M527.554 568.397L517.685 566.021V556.193L527.554 558.569V568.397Z" fill="#7ABED3" stroke="white" style="fill:#7ABED3;fill:color(display-p3 0.4784 0.7451 0.8275);fill-opacity:1;stroke:white;stroke-opacity:1;" stroke-width="2.11881" stroke-miterlimit="10"/>
<path d="M460.678 562.447L450.81 560.072V550.244L460.678 552.626V562.447Z" fill="#7ABED3" stroke="white" style="fill:#7ABED3;fill:color(display-p3 0.4784 0.7451 0.8275);fill-opacity:1;stroke:white;stroke-opacity:1;" stroke-width="2.11881" stroke-miterlimit="10"/>
<path d="M471.331 565.45L461.463 563.075V553.247L471.331 555.629V565.45Z" fill="#7ABED3" stroke="white" style="fill:#7ABED3;fill:color(display-p3 0.4784 0.7451 0.8275);fill-opacity:1;stroke:white;stroke-opacity:1;" stroke-width="2.11881" stroke-miterlimit="10"/>
<path d="M481.74 568.235L471.872 565.86V556.032L481.74 558.408V568.235Z" fill="#7ABED3" stroke="white" style="fill:#7ABED3;fill:color(display-p3 0.4784 0.7451 0.8275);fill-opacity:1;stroke:white;stroke-opacity:1;" stroke-width="2.11881" stroke-miterlimit="10"/>
<path d="M492.669 571.091L482.807 568.716V558.888L492.669 561.263V571.091Z" fill="#7ABED3" stroke="white" style="fill:#7ABED3;fill:color(display-p3 0.4784 0.7451 0.8275);fill-opacity:1;stroke:white;stroke-opacity:1;" stroke-width="2.11881" stroke-miterlimit="10"/>
<path d="M503.959 573.723L494.09 571.341V561.52L503.959 563.895V573.723Z" fill="#7ABED3" stroke="white" style="fill:#7ABED3;fill:color(display-p3 0.4784 0.7451 0.8275);fill-opacity:1;stroke:white;stroke-opacity:1;" stroke-width="2.11881" stroke-miterlimit="10"/>
<path d="M515.647 576.809L505.778 574.433V564.605L515.647 566.981V576.809Z" fill="#7ABED3" stroke="white" style="fill:#7ABED3;fill:color(display-p3 0.4784 0.7451 0.8275);fill-opacity:1;stroke:white;stroke-opacity:1;" stroke-width="2.11881" stroke-miterlimit="10"/>
<path d="M527.553 580.055L517.685 577.679V567.852L527.553 570.227V580.055Z" fill="#7ABED3" stroke="white" style="fill:#7ABED3;fill:color(display-p3 0.4784 0.7451 0.8275);fill-opacity:1;stroke:white;stroke-opacity:1;" stroke-width="2.11881" stroke-miterlimit="10"/>
<path d="M460.659 574.659L450.79 572.277V562.449L460.659 564.831V574.659Z" fill="#7ABED3" stroke="white" style="fill:#7ABED3;fill:color(display-p3 0.4784 0.7451 0.8275);fill-opacity:1;stroke:white;stroke-opacity:1;" stroke-width="2.11881" stroke-miterlimit="10"/>
<path d="M471.305 577.661L461.437 575.279V565.451L471.305 567.833V577.661Z" fill="#7ABED3" stroke="white" style="fill:#7ABED3;fill:color(display-p3 0.4784 0.7451 0.8275);fill-opacity:1;stroke:white;stroke-opacity:1;" stroke-width="2.11881" stroke-miterlimit="10"/>
<path d="M481.714 580.441L471.846 578.065V568.237L481.714 570.613V580.441Z" fill="#7ABED3" stroke="white" style="fill:#7ABED3;fill:color(display-p3 0.4784 0.7451 0.8275);fill-opacity:1;stroke:white;stroke-opacity:1;" stroke-width="2.11881" stroke-miterlimit="10"/>
<path d="M492.65 583.296L482.781 580.921V571.093L492.65 573.468V583.296Z" fill="#7ABED3" stroke="white" style="fill:#7ABED3;fill:color(display-p3 0.4784 0.7451 0.8275);fill-opacity:1;stroke:white;stroke-opacity:1;" stroke-width="2.11881" stroke-miterlimit="10"/>
<path d="M503.932 585.928L494.064 583.553V573.725L503.932 576.1V585.928Z" fill="#7ABED3" stroke="white" style="fill:#7ABED3;fill:color(display-p3 0.4784 0.7451 0.8275);fill-opacity:1;stroke:white;stroke-opacity:1;" stroke-width="2.11881" stroke-miterlimit="10"/>
<path d="M515.627 589.013L505.759 586.637V576.81L515.627 579.185V589.013Z" fill="#7ABED3" stroke="white" style="fill:#7ABED3;fill:color(display-p3 0.4784 0.7451 0.8275);fill-opacity:1;stroke:white;stroke-opacity:1;" stroke-width="2.11881" stroke-miterlimit="10"/>
<path d="M527.534 592.259L517.665 589.884V580.056L527.534 582.431V592.259Z" fill="#7ABED3" stroke="white" style="fill:#7ABED3;fill:color(display-p3 0.4784 0.7451 0.8275);fill-opacity:1;stroke:white;stroke-opacity:1;" stroke-width="2.11881" stroke-miterlimit="10"/>
<path d="M460.659 586.311L450.79 583.935V574.107L460.659 576.489V586.311Z" fill="#7ABED3" stroke="white" style="fill:#7ABED3;fill:color(display-p3 0.4784 0.7451 0.8275);fill-opacity:1;stroke:white;stroke-opacity:1;" stroke-width="2.11881" stroke-miterlimit="10"/>
<path d="M471.305 589.314L461.437 586.938V577.11L471.305 579.492V589.314Z" fill="#7ABED3" stroke="white" style="fill:#7ABED3;fill:color(display-p3 0.4784 0.7451 0.8275);fill-opacity:1;stroke:white;stroke-opacity:1;" stroke-width="2.11881" stroke-miterlimit="10"/>
<path d="M481.714 592.099L471.846 589.723V579.896L481.714 582.271V592.099Z" fill="#7ABED3" stroke="white" style="fill:#7ABED3;fill:color(display-p3 0.4784 0.7451 0.8275);fill-opacity:1;stroke:white;stroke-opacity:1;" stroke-width="2.11881" stroke-miterlimit="10"/>
<path d="M492.65 594.954L482.781 592.579V582.751L492.65 585.126V594.954Z" fill="#7ABED3" stroke="white" style="fill:#7ABED3;fill:color(display-p3 0.4784 0.7451 0.8275);fill-opacity:1;stroke:white;stroke-opacity:1;" stroke-width="2.11881" stroke-miterlimit="10"/>
<path d="M503.932 597.586L494.064 595.204V585.383L503.932 587.758V597.586Z" fill="#7ABED3" stroke="white" style="fill:#7ABED3;fill:color(display-p3 0.4784 0.7451 0.8275);fill-opacity:1;stroke:white;stroke-opacity:1;" stroke-width="2.11881" stroke-miterlimit="10"/>
<path d="M513.705 598.444L506.434 596.696V589.461L513.705 591.209V598.444Z" fill="white" stroke="#7ABED3" style="fill:white;fill-opacity:1;stroke:#7ABED3;stroke:color(display-p3 0.4784 0.7451 0.8275);stroke-opacity:1;" stroke-width="0.70627" stroke-miterlimit="10"/>
<path d="M525.663 601.247L518.391 599.493V592.258L525.663 594.012V601.247Z" fill="white" stroke="#7ABED3" style="fill:white;fill-opacity:1;stroke:#7ABED3;stroke:color(display-p3 0.4784 0.7451 0.8275);stroke-opacity:1;" stroke-width="0.70627" stroke-miterlimit="10"/>
</g>
<mask id="mask1_434_853" style="mask-type:luminance" maskUnits="userSpaceOnUse" x="278" y="585" width="405" height="118">
<path d="M682.126 585.38H278.204V702.944H682.126V585.38Z" fill="white" style="fill:white;fill-opacity:1;"/>
</mask>
<g mask="url(#mask1_434_853)">
<path d="M422.914 622.803L347.463 648.74C347.463 648.74 329.764 658.843 332.561 666.264L611.818 728.414L689.712 682.097L422.914 622.797V622.803Z" fill="#A8CCDD" style="fill:#A8CCDD;fill:color(display-p3 0.6588 0.8000 0.8667);fill-opacity:1;"/>
<path d="M419.668 629.749L364.577 649.412C363.17 649.911 363.292 651.934 364.745 652.267L602.798 706.753C606.244 707.54 609.857 707.099 613.008 705.504L657.979 681.994C658.808 681.559 658.641 680.33 657.728 680.131L426.277 629.333C424.078 628.853 421.783 628.994 419.661 629.756L419.668 629.749Z" fill="#78A5C0" style="fill:#78A5C0;fill:color(display-p3 0.4706 0.6471 0.7529);fill-opacity:1;"/>
<path d="M689.712 682.098L695.903 688.801L613.926 737.038L611.818 728.42" fill="#78A5C0" style="fill:#78A5C0;fill:color(display-p3 0.4706 0.6471 0.7529);fill-opacity:1;"/>
</g>
<path d="M349.757 585.686C350.284 581.094 338.1 575.937 322.543 574.166C306.986 572.395 293.947 574.682 293.42 579.274C292.893 583.866 305.077 589.023 320.634 590.794C336.191 592.565 349.23 590.278 349.757 585.686Z" fill="white" style="fill:white;fill-opacity:1;"/>
<path d="M327.334 475.084L327.996 518.75L325.759 524.691L306.478 574.305L299.477 573.773L315.665 519.012L312.991 476.262L327.334 475.084Z" fill="#68D4D2" style="fill:#68D4D2;fill:color(display-p3 0.4078 0.8314 0.8235);fill-opacity:1;"/>
<g style="mix-blend-mode:soft-light">
<path d="M327.276 488.196L325.566 526.759L320.198 488.196H327.276Z" fill="black" style="fill:black;fill-opacity:1;"/>
</g>
<path d="M337.588 474.316L336.457 508.826L336.071 520.51L334.142 579.177C331.699 580.63 328.555 580.957 328.555 580.957L325.669 531.414L325.007 520.043L324.383 509.338L323.927 501.552L323.644 474.117L337.582 474.316H337.588Z" fill="#68D4D2" style="fill:#68D4D2;fill:color(display-p3 0.4078 0.8314 0.8235);fill-opacity:1;"/>
<path d="M320.808 423.358C320.808 423.358 321.156 429.338 319.259 431.06L327.283 428.268V422.423L320.815 423.358H320.808Z" fill="#F9B480" style="fill:#F9B480;fill:color(display-p3 0.9765 0.7059 0.5020);fill-opacity:1;"/>
<g style="mix-blend-mode:soft-light">
<path d="M322.602 423.287L327.276 424.663V421.552L322.602 423.287Z" fill="black" style="fill:black;fill-opacity:1;"/>
</g>
<path d="M330.298 409.003C331.005 415.803 330.992 422.641 325.251 423.23C317.845 423.992 311.692 417.16 310.406 410.444C309.121 403.727 313.017 399.591 318.758 399.002C324.499 398.413 329.591 402.197 330.298 408.997V409.003Z" fill="#F9B480" style="fill:#F9B480;fill:color(display-p3 0.9765 0.7059 0.5020);fill-opacity:1;"/>
<path d="M357.274 438.435C357.274 438.435 357.885 441.176 350.671 443.762L348.8 441.118L351.661 437.897L357.268 438.442L357.274 438.435Z" fill="#F9B480" style="fill:#F9B480;fill:color(display-p3 0.9765 0.7059 0.5020);fill-opacity:1;"/>
<path d="M317.176 430.407C317.356 430.022 302.557 464.135 308.484 466.479C315.383 469.206 351.186 443.577 351.186 443.577L348.871 439.953L319.246 450.312L317.176 430.413V430.407Z" fill="#68D4D2" style="fill:#68D4D2;fill:color(display-p3 0.4078 0.8314 0.8235);fill-opacity:1;"/>
<path d="M342.404 431.098L356.708 438.813L335.152 454.025L332.278 452.514L333.577 437.801L342.404 431.098Z" fill="#012D40" style="fill:#012D40;fill:color(display-p3 0.0039 0.1765 0.2510);fill-opacity:1;"/>
<path d="M341.523 432.436L354.33 439.517L334.644 454.191L332.066 452.802L333.455 438.896L341.523 432.436Z" fill="#E8F7FC" style="fill:#E8F7FC;fill:color(display-p3 0.9098 0.9686 0.9882);fill-opacity:1;"/>
<path d="M353.982 435.228C353.982 435.228 349.964 434.332 349.713 436.675C349.713 436.675 351.398 439.723 353.776 439.511L357.274 438.429C357.274 438.429 357.081 436.316 353.982 435.222V435.228Z" fill="#F9B480" style="fill:#F9B480;fill:color(display-p3 0.9765 0.7059 0.5020);fill-opacity:1;"/>
<g style="mix-blend-mode:soft-light">
<path d="M320.442 428.692C320.622 428.308 305.822 462.42 311.75 464.764C318.648 467.491 335.036 455.467 335.036 455.467L331.294 445.447L322.512 448.597L320.442 428.698V428.692Z" fill="black" style="fill:black;fill-opacity:1;"/>
</g>
<g style="mix-blend-mode:soft-light">
<path d="M313.737 488.196L314.103 494.023H336.939V488.196H313.737Z" fill="black" style="fill:black;fill-opacity:1;"/>
</g>
<path d="M326.922 428.249C326.922 428.249 335.344 432.725 338.347 448.02L341.728 490.982H310.966C310.966 490.982 310.811 428.928 319.658 428.166C328.504 427.404 326.922 428.249 326.922 428.249Z" fill="#68D4D2" style="fill:#68D4D2;fill:color(display-p3 0.4078 0.8314 0.8235);fill-opacity:1;"/>
<g style="mix-blend-mode:soft-light">
<path d="M328.337 403.362C328.337 403.362 326.19 412.089 321.271 413.434L319.915 409.201L328.337 403.362Z" fill="black" style="fill:black;fill-opacity:1;"/>
</g>
<path d="M328.337 403.363C328.337 403.363 323.194 413.229 320.384 413.876C317.568 414.522 318.468 416.885 321.471 418.383L322.339 423.134C322.339 423.134 318.398 424.639 315.202 422.417C312.309 420.413 303.482 416.334 307.005 403.779C310.599 390.967 329.623 396.064 328.343 403.356L328.337 403.363Z" fill="#012D40" style="fill:#012D40;fill:color(display-p3 0.0039 0.1765 0.2510);fill-opacity:1;"/>
<path d="M300.094 572.39C300.094 572.39 295.452 575.93 297.323 579.797L318.314 582.519C318.314 582.519 318.745 579.695 314.29 577.454C309.834 575.213 307.102 572.928 307.102 572.928L300.094 572.39Z" fill="#16A8B5" style="fill:#16A8B5;fill:color(display-p3 0.0863 0.6588 0.7098);fill-opacity:1;"/>
<path d="M328.279 579.932C328.279 579.932 325.527 584.741 327.54 586.885H346.66C346.66 586.885 345.65 584.081 342.346 583.409C342.346 583.409 335.158 581.162 333.866 578.152L328.279 579.932Z" fill="#16A8B5" style="fill:#16A8B5;fill:color(display-p3 0.0863 0.6588 0.7098);fill-opacity:1;"/>
<g style="mix-blend-mode:soft-light">
<path d="M338.61 450.076L321.31 442.489C321.31 442.489 318.127 440.818 318.127 435.574C318.127 430.33 322.904 430.894 323.65 430.894L335.936 438.615L338.617 450.076H338.61Z" fill="black" style="fill:black;fill-opacity:1;"/>
</g>
<path d="M374.909 440.472C374.909 440.472 376.767 437.162 380.65 437.968L378.303 439.268C378.303 439.268 382.668 439.422 384.61 440.382C384.61 440.382 384.398 441.003 381.698 441.003C378.998 441.003 374.902 443.033 374.902 443.033V440.472H374.909Z" fill="#F9B480" style="fill:#F9B480;fill:color(display-p3 0.9765 0.7059 0.5020);fill-opacity:1;"/>
<path d="M324.942 430.074L348.858 445.113L375.391 438.666V443.391L349.07 453.27L322.602 441.662C322.602 441.662 319.42 439.991 319.42 434.748C319.42 429.504 324.196 430.074 324.942 430.074Z" fill="#68D4D2" style="fill:#68D4D2;fill:color(display-p3 0.4078 0.8314 0.8235);fill-opacity:1;"/>
<path d="M310.156 400.744C310.156 400.744 303.984 393.631 299.284 398.945C294.584 404.253 302.974 427.82 305.495 432.001C308.015 436.182 303.148 449.051 303.148 449.051C303.148 449.051 311.564 446.714 310.966 434.345C310.368 421.975 308.047 406.263 308.047 406.263L310.162 400.75L310.156 400.744Z" fill="#012D40" style="fill:#012D40;fill:color(display-p3 0.0039 0.1765 0.2510);fill-opacity:1;"/>
<defs>
<linearGradient id="paint0_linear_434_853" x1="93.4784" y1="599.223" x2="298.069" y2="599.223" gradientUnits="userSpaceOnUse">
<stop stop-color="#1AA5B8" style="stop-color:#1AA5B8;stop-color:color(display-p3 0.1020 0.6471 0.7216);stop-opacity:1;"/>
<stop offset="1" stop-color="#1B92A2" style="stop-color:#1B92A2;stop-color:color(display-p3 0.1059 0.5725 0.6353);stop-opacity:1;"/>
</linearGradient>
<linearGradient id="paint1_linear_434_853" x1="296.487" y1="592.058" x2="455.509" y2="592.058" gradientUnits="userSpaceOnUse">
<stop stop-color="#1AA5B8" style="stop-color:#1AA5B8;stop-color:color(display-p3 0.1020 0.6471 0.7216);stop-opacity:1;"/>
<stop offset="1" stop-color="#1B92A2" style="stop-color:#1B92A2;stop-color:color(display-p3 0.1059 0.5725 0.6353);stop-opacity:1;"/>
</linearGradient>
<linearGradient id="paint2_linear_434_853" x1="360.752" y1="606.874" x2="315.265" y2="708.482" gradientUnits="userSpaceOnUse">
<stop stop-color="#1AA5B8" style="stop-color:#1AA5B8;stop-color:color(display-p3 0.1020 0.6471 0.7216);stop-opacity:1;"/>
<stop offset="1" stop-color="#1B92A2" style="stop-color:#1B92A2;stop-color:color(display-p3 0.1059 0.5725 0.6353);stop-opacity:1;"/>
</linearGradient>
<linearGradient id="paint3_linear_434_853" x1="92.9898" y1="651.347" x2="234.923" y2="651.347" gradientUnits="userSpaceOnUse">
<stop stop-color="#1AA5B8" style="stop-color:#1AA5B8;stop-color:color(display-p3 0.1020 0.6471 0.7216);stop-opacity:1;"/>
<stop offset="1" stop-color="#1B92A2" style="stop-color:#1B92A2;stop-color:color(display-p3 0.1059 0.5725 0.6353);stop-opacity:1;"/>
</linearGradient>
</defs>
</svg>
