<svg width="26" height="26" viewBox="0 0 26 26" fill="none" xmlns="http://www.w3.org/2000/svg">
<g clip-path="url(#clip0_2098_5990)">
<path d="M13.3776 24.5052C19.8209 24.5052 25.0443 19.2819 25.0443 12.8385C25.0443 6.39522 19.8209 1.17188 13.3776 1.17188C6.93428 1.17188 1.71094 6.39522 1.71094 12.8385C1.71094 19.2819 6.93428 24.5052 13.3776 24.5052Z" stroke="white" style="stroke:white;stroke-opacity:1;" stroke-width="1.66667"/>
<path d="M10.7539 9.13039V9.58873C11.4831 9.58873 11.8164 9.63039 11.9831 9.77623C12.2122 9.96373 12.2956 10.4429 12.2956 11.4846V17.0471C12.2956 18.9846 12.1914 19.1512 10.7539 19.1929V19.6512H15.5039V19.1929C14.1081 19.1512 14.0039 18.9846 14.0039 17.0471V12.7971C14.0039 11.9221 14.0664 10.1096 14.1289 8.90123L10.7539 9.13039ZM11.8997 5.65123C11.898 5.80767 11.9274 5.96289 11.9865 6.10777C12.0455 6.25265 12.1329 6.38427 12.2436 6.4949C12.3542 6.60553 12.4858 6.69293 12.6307 6.75197C12.7756 6.81102 12.9308 6.84051 13.0872 6.83873C13.2422 6.83875 13.3956 6.8079 13.5386 6.74797C13.6815 6.68804 13.811 6.60024 13.9197 6.48969C14.0283 6.37914 14.1138 6.24805 14.1712 6.10409C14.2285 5.96013 14.2567 5.80618 14.2539 5.65123C14.2539 5.34181 14.131 5.04506 13.9122 4.82627C13.6934 4.60748 13.3967 4.48456 13.0872 4.48456C12.9323 4.48179 12.7783 4.50993 12.6344 4.56732C12.4904 4.62471 12.3593 4.7102 12.2488 4.81882C12.1382 4.92743 12.0504 5.05698 11.9905 5.1999C11.9306 5.34282 11.8997 5.49625 11.8997 5.65123Z" fill="white" style="fill:white;fill-opacity:1;"/>
</g>
<defs>
<clipPath id="clip0_2098_5990">
<rect width="25" height="25" fill="white" style="fill:white;fill-opacity:1;" transform="translate(0.878906 0.339844)"/>
</clipPath>
</defs>
</svg>
