<svg width="495" height="532" viewBox="0 0 495 532" fill="none" xmlns="http://www.w3.org/2000/svg">
<path d="M95.1418 92.9412C81.9615 87.3638 66.3038 88.1554 53.7443 95.044C49.1061 97.588 44.7782 101.038 42.2711 105.74C38.0149 113.716 39.8774 123.916 44.7424 131.524C49.6075 139.132 57.0155 144.655 64.4056 149.779C83.2449 162.837 104.168 175.732 113.289 196.924C117.294 206.224 118.655 216.436 119.98 226.497C132.033 227.047 142.222 215.989 144.849 204.073C147.475 192.15 144.323 179.763 140.64 168.131C132.349 141.96 122.959 104.724 95.1418 92.9472V92.9412Z" fill="#71A5FF" style="fill:#71A5FF;fill:color(display-p3 0.4431 0.6471 1.0000);fill-opacity:1;"/>
<path d="M93.8825 170.106C80.6842 170.323 67.8082 166.353 55.1949 162.414C61.039 170.402 63.9879 180.137 68.5962 188.917C81.4781 213.45 122.858 239.295 145.392 211.112C153.23 201.31 153.469 187.793 145.398 178.046C132.283 162.214 111.176 169.816 93.8825 170.1V170.106Z" fill="#0431BE" style="fill:#0431BE;fill:color(display-p3 0.0157 0.1922 0.7451);fill-opacity:1;"/>
<path d="M124.278 205.661C107.904 195.213 86.6416 198.138 67.9694 203.292C49.2972 208.447 30.1833 215.535 11.1111 212.23C23.7901 230.176 42.516 243.664 63.4207 249.906C75.7296 253.58 89.1367 254.752 101.326 250.697C113.522 246.643 124.231 236.709 127.042 224.037" fill="#07308C" style="fill:#07308C;fill:color(display-p3 0.0275 0.1882 0.5490);fill-opacity:1;"/>
<path d="M299.008 98.1552C302.553 82.4804 310.481 68.2015 319.059 54.6719C331.057 35.7401 344.53 17.7631 359.31 0.964355C375.177 29.5343 384.399 61.8627 386.029 94.596C386.614 106.319 386.047 118.755 379.821 128.659C371.452 141.965 337.217 157.857 321.512 155.241C297.7 151.277 294.614 117.589 299.014 98.1613L299.008 98.1552Z" fill="#07308C" style="fill:#07308C;fill:color(display-p3 0.0275 0.1882 0.5490);fill-opacity:1;"/>
<path d="M260.261 99.6357C259.228 88.366 261.431 77.0601 264.224 66.1047C268.134 50.7804 273.238 35.7643 279.47 21.2437C296.28 36.8157 309.466 56.3759 317.662 77.894C320.599 85.5984 322.921 94.0401 320.903 102.047C318.199 112.803 298.757 131.046 287.69 132.792C270.91 135.439 261.532 113.6 260.255 99.6417L260.261 99.6357Z" fill="#0431BE" style="fill:#0431BE;fill:color(display-p3 0.0157 0.1922 0.7451);fill-opacity:1;"/>
<path d="M455.906 106.724C457.882 135.65 446.463 165.235 425.636 185.146C422.263 188.373 418.473 191.448 413.942 192.476C391.634 197.527 361.979 156.401 374.747 136.955C388.16 116.531 433.993 108.959 455.906 106.724Z" fill="#07308C" style="fill:#07308C;fill:color(display-p3 0.0275 0.1882 0.5490);fill-opacity:1;"/>
<path d="M363.811 120.241C367.094 106.851 368.927 92.2453 377.911 81.87C386.256 72.2379 401.305 68.28 412.211 74.788C423.338 81.4229 427.104 96.8861 423.23 109.358C419.356 121.824 409.411 131.499 398.463 138.43C383.277 148.05 361.668 156.141 343.712 153.047C353.132 143.3 360.307 134.544 363.817 120.247L363.811 120.241Z" fill="#71A5FF" style="fill:#71A5FF;fill:color(display-p3 0.4431 0.6471 1.0000);fill-opacity:1;"/>
<path d="M78.78 110.119C90.0323 115.89 100.365 123.395 109.421 132.284C118.476 141.173 126.129 151.264 132.23 162.347C135.686 168.631 138.611 175.199 140.945 181.991C141.321 183.085 143.052 182.614 142.67 181.508C138.468 169.308 132.427 157.79 124.84 147.403C117.253 137.009 108.185 127.764 97.9596 120.029C92.2051 115.679 86.0925 111.836 79.6874 108.548C78.6606 108.023 77.7533 109.588 78.786 110.113L78.78 110.119Z" fill="#E9FEFF" style="fill:#E9FEFF;fill:color(display-p3 0.9137 0.9961 1.0000);fill-opacity:1;"/>
<path d="M101.076 124.508C90.4799 122.883 79.5978 123.493 69.2529 126.357C66.3279 127.167 63.4566 128.158 60.651 129.318C59.6004 129.753 60.0601 131.505 61.1286 131.064C70.793 127.076 81.2215 125.149 91.656 125.445C94.6526 125.529 97.6432 125.795 100.604 126.248C101.732 126.424 102.216 124.677 101.082 124.502L101.076 124.508Z" fill="#E9FEFF" style="fill:#E9FEFF;fill:color(display-p3 0.9137 0.9961 1.0000);fill-opacity:1;"/>
<path d="M114.101 134.363C105.141 133.831 96.1029 135.692 88.0263 139.65C85.7162 140.78 83.5016 142.092 81.3824 143.56C80.4393 144.213 81.3347 145.784 82.2838 145.125C89.4948 140.128 97.9594 137.034 106.669 136.272C109.14 136.055 111.623 136.031 114.095 136.176C115.247 136.242 115.241 134.429 114.095 134.363H114.101Z" fill="#E9FEFF" style="fill:#E9FEFF;fill:color(display-p3 0.9137 0.9961 1.0000);fill-opacity:1;"/>
<path d="M114.429 133.796C110.597 130.436 109.863 124.296 112.787 120.103C113.45 119.148 111.898 118.242 111.241 119.19C107.893 124 108.77 131.227 113.164 135.083C114.029 135.844 115.301 134.569 114.429 133.802V133.796Z" fill="#E9FEFF" style="fill:#E9FEFF;fill:color(display-p3 0.9137 0.9961 1.0000);fill-opacity:1;"/>
<path d="M122.571 149.355C113.092 149.174 103.72 152.799 96.7657 159.314C95.9181 160.105 97.1836 161.386 98.0312 160.595C104.651 154.401 113.569 150.993 122.571 151.168C123.723 151.192 123.723 149.379 122.571 149.355Z" fill="#E9FEFF" style="fill:#E9FEFF;fill:color(display-p3 0.9137 0.9961 1.0000);fill-opacity:1;"/>
<path d="M122.177 142.134C120.279 138.532 119.479 134.466 119.801 130.405C119.897 129.245 118.106 129.251 118.011 130.405C117.658 134.78 118.59 139.185 120.631 143.052C121.174 144.08 122.72 143.167 122.177 142.14V142.134Z" fill="#E9FEFF" style="fill:#E9FEFF;fill:color(display-p3 0.9137 0.9961 1.0000);fill-opacity:1;"/>
<path d="M94.1212 114.169C92.8915 111.353 93.0646 107.987 94.5092 105.292C95.0584 104.265 93.5123 103.352 92.9631 104.38C91.1843 107.691 91.0708 111.655 92.5751 115.087C92.7721 115.535 93.4168 115.637 93.7989 115.414C94.2525 115.142 94.3181 114.622 94.1212 114.175V114.169Z" fill="#E9FEFF" style="fill:#E9FEFF;fill:color(display-p3 0.9137 0.9961 1.0000);fill-opacity:1;"/>
<path d="M25.8555 219.686C35.9676 224.562 46.796 227.735 57.8991 229.179C68.9961 230.623 80.314 230.303 91.3156 228.23C97.5356 227.058 103.636 225.318 109.54 223.016C110.603 222.599 110.143 220.846 109.062 221.269C98.7653 225.282 87.8533 227.584 76.8339 228.128C65.8562 228.665 54.8069 227.493 44.1934 224.611C38.2002 222.985 32.3621 220.816 26.7568 218.115C25.7241 217.613 24.8108 219.178 25.8555 219.68V219.686Z" fill="#E9FEFF" style="fill:#E9FEFF;fill:color(display-p3 0.9137 0.9961 1.0000);fill-opacity:1;"/>
<path d="M26.8226 227.07C33.2993 228.509 40.0387 228.388 46.4558 226.696C47.1363 226.514 47.2915 225.674 46.8498 225.179C43.6144 221.547 40.9103 217.475 38.7852 213.075C38.2778 212.03 36.7317 212.943 37.2391 213.988C39.4299 218.52 42.2474 222.708 45.5843 226.454L45.9783 224.937C39.8716 226.545 33.4605 226.684 27.2942 225.312C26.1719 225.064 25.6884 226.811 26.8166 227.058L26.8226 227.07Z" fill="#E9FEFF" style="fill:#E9FEFF;fill:color(display-p3 0.9137 0.9961 1.0000);fill-opacity:1;"/>
<path d="M51.476 215.964C51.6969 219.728 53.7742 223.233 56.9798 225.167C57.9707 225.765 58.8721 224.2 57.8812 223.601C55.2367 222.006 53.4459 219.082 53.2669 215.964C53.237 215.474 52.8729 215.057 52.3715 215.057C51.9058 215.057 51.4462 215.474 51.476 215.964Z" fill="#E9FEFF" style="fill:#E9FEFF;fill:color(display-p3 0.9137 0.9961 1.0000);fill-opacity:1;"/>
<path d="M58.4361 227.741L46.2407 230.938C45.1244 231.228 45.596 232.98 46.7182 232.684L58.9136 229.487C60.0299 229.197 59.5584 227.445 58.4361 227.741Z" fill="#E9FEFF" style="fill:#E9FEFF;fill:color(display-p3 0.9137 0.9961 1.0000);fill-opacity:1;"/>
<path d="M65.9215 209.848C65.9991 216.501 68.8764 222.985 73.7712 227.427C74.6249 228.206 75.8963 226.925 75.0367 226.145C70.4821 222.006 67.7839 216.042 67.7063 209.848C67.6944 208.682 65.9036 208.682 65.9155 209.848H65.9215Z" fill="#E9FEFF" style="fill:#E9FEFF;fill:color(display-p3 0.9137 0.9961 1.0000);fill-opacity:1;"/>
<path d="M75.0908 228.08C65.4921 231.053 56.6694 236.34 49.4882 243.434C48.6644 244.25 49.9299 245.531 50.7537 244.715C57.72 237.839 66.2621 232.708 75.5683 229.826C76.6667 229.488 76.2011 227.735 75.0908 228.08Z" fill="#E9FEFF" style="fill:#E9FEFF;fill:color(display-p3 0.9137 0.9961 1.0000);fill-opacity:1;"/>
<path d="M115.217 193.866C107.003 192.929 98.9265 190.651 91.3932 187.213C83.8897 183.781 76.8757 179.231 70.7153 173.696C67.2232 170.559 64.0057 167.121 61.1046 163.423C60.3883 162.51 59.1288 163.798 59.8391 164.704C65.0802 171.393 71.366 177.2 78.368 181.956C85.3641 186.705 93.0885 190.385 101.165 192.809C105.755 194.186 110.459 195.135 115.217 195.673C116.363 195.806 116.351 193.987 115.217 193.86V193.866Z" fill="#E9FEFF" style="fill:#E9FEFF;fill:color(display-p3 0.9137 0.9961 1.0000);fill-opacity:1;"/>
<path d="M86.7669 185.019C83.83 182.3 81.7048 178.541 81.1497 174.523C80.9945 173.417 81.293 170.704 82.9524 172.039C84.3314 173.145 85.1551 174.982 85.4894 176.692C85.8894 178.716 85.5671 180.849 84.5582 182.644C83.9852 183.659 85.5312 184.572 86.1043 183.557C88.3428 179.58 87.7578 173.816 84.218 170.758C83.3285 169.991 82.1406 169.55 81.0303 170.106C80.1827 170.535 79.6872 171.459 79.4723 172.359C78.9411 174.631 79.7827 177.2 80.6423 179.284C81.7407 181.949 83.3942 184.348 85.5014 186.3C86.349 187.085 87.6205 185.804 86.7669 185.019Z" fill="#E9FEFF" style="fill:#E9FEFF;fill:color(display-p3 0.9137 0.9961 1.0000);fill-opacity:1;"/>
<path d="M85.5194 182.735C81.0304 181.424 75.7355 181.593 71.5152 183.756C70.6317 184.21 69.8677 184.947 69.7662 185.986C69.6767 186.923 70.1781 187.757 70.8765 188.325C72.5181 189.666 75.0132 189.854 77.0369 189.739C79.6276 189.588 82.1526 188.748 84.3016 187.267C85.2507 186.615 84.3553 185.044 83.4002 185.702C81.4781 187.026 79.2515 187.823 76.9235 187.938C75.7356 187.998 74.5238 187.908 73.3717 187.594C72.7987 187.436 71.4854 186.965 71.5451 186.167C71.6048 185.309 73.3896 184.905 74.0164 184.693C75.2222 184.288 76.4817 183.992 77.7473 183.847C80.2066 183.569 82.6779 183.787 85.0538 184.482C86.1641 184.808 86.6357 183.055 85.5313 182.735H85.5194Z" fill="#E9FEFF" style="fill:#E9FEFF;fill:color(display-p3 0.9137 0.9961 1.0000);fill-opacity:1;"/>
<path d="M98.9145 188.711C97.846 186.27 97.1178 183.641 96.8014 180.989C96.6402 179.647 96.5805 178.294 96.6103 176.94C96.6402 175.798 96.6521 174.565 97.0401 173.478C97.3087 172.728 97.9416 171.943 98.819 172.076C99.5175 172.185 100.114 172.789 100.502 173.345C100.986 174.04 101.314 174.88 101.362 175.732C101.416 176.765 100.968 177.732 100.473 178.608C99.201 180.874 97.3863 182.741 96.4492 185.2C96.0313 186.288 97.7624 186.759 98.1743 185.684C99.1533 183.11 101.29 181.2 102.436 178.711C103.457 176.487 103.344 174.13 101.84 172.142C100.544 170.432 98.2877 169.538 96.5088 171.097C95.5239 171.955 95.1538 173.272 94.9927 174.529C94.7897 176.082 94.7718 177.671 94.8554 179.236C95.0583 182.838 95.9239 186.33 97.3685 189.624C97.8341 190.687 99.3801 189.769 98.9145 188.711Z" fill="#E9FEFF" style="fill:#E9FEFF;fill:color(display-p3 0.9137 0.9961 1.0000);fill-opacity:1;"/>
<path d="M98.4251 187.267C90.3187 187.255 82.3854 190.301 76.2967 195.703C75.7534 196.186 76.0997 197.008 76.6907 197.219C83.6271 199.667 91.7514 197.709 96.8791 192.397C97.685 191.564 96.4194 190.282 95.6135 191.116C90.9037 195.993 83.5256 197.715 77.1682 195.473L77.5622 196.99C83.2927 191.902 90.8082 189.074 98.4251 189.08C99.5772 189.08 99.5772 187.267 98.4251 187.267Z" fill="#E9FEFF" style="fill:#E9FEFF;fill:color(display-p3 0.9137 0.9961 1.0000);fill-opacity:1;"/>
<path d="M110.28 189.707C107.457 183.931 109.015 176.504 113.784 172.286L112.375 172.105C114.71 175.392 114.172 180.486 110.943 183.006C110.555 183.308 110.358 183.78 110.62 184.245C110.835 184.632 111.462 184.867 111.844 184.571C115.796 181.489 116.876 175.356 113.922 171.187C113.569 170.691 112.978 170.594 112.513 171.005C107.116 175.779 105.57 184.148 108.728 190.626C109.242 191.671 110.782 190.753 110.274 189.713L110.28 189.707Z" fill="#E9FEFF" style="fill:#E9FEFF;fill:color(display-p3 0.9137 0.9961 1.0000);fill-opacity:1;"/>
<path d="M110.71 193.129C107.367 192.53 103.941 193.485 101.392 195.757C101.028 196.084 101.064 196.706 101.392 197.038C101.75 197.401 102.293 197.365 102.657 197.038C104.693 195.225 107.564 194.392 110.233 194.875C110.71 194.96 111.2 194.742 111.337 194.241C111.456 193.799 111.188 193.213 110.71 193.123V193.129Z" fill="#E9FEFF" style="fill:#E9FEFF;fill:color(display-p3 0.9137 0.9961 1.0000);fill-opacity:1;"/>
<path d="M88.4919 202.162C87.3279 208.688 88.4442 215.474 91.6915 221.245C92.2646 222.26 93.8106 221.348 93.2375 220.332C90.2409 215.009 89.1366 208.682 90.2171 202.645C90.42 201.503 88.6949 201.014 88.4919 202.162Z" fill="#E9FEFF" style="fill:#E9FEFF;fill:color(display-p3 0.9137 0.9961 1.0000);fill-opacity:1;"/>
<path d="M280.389 34.2716L286.042 51.3664C287.863 56.8653 289.714 62.3581 291.313 67.9294C294.346 78.4981 296.417 89.4958 295.223 100.53C294.59 106.397 292.979 112.18 290.203 117.383C289.654 118.41 291.2 119.329 291.749 118.295C296.793 108.839 298.047 97.8045 297.038 87.2238C295.928 75.5976 292.262 64.4549 288.615 53.439C286.448 46.8827 284.281 40.3324 282.114 33.7761C281.75 32.6763 280.019 33.1476 280.389 34.2595V34.2716Z" fill="#E9FEFF" style="fill:#E9FEFF;fill:color(display-p3 0.9137 0.9961 1.0000);fill-opacity:1;"/>
<path d="M271.196 45.976C279.171 53.197 285.678 61.9952 290.268 71.7783C291.576 74.564 292.71 77.4222 293.695 80.3408C294.065 81.4406 295.796 80.9692 295.42 79.8574C291.904 69.3854 286.323 59.6748 279.07 51.3963C276.999 49.0336 274.79 46.7978 272.462 44.6889C271.602 43.9154 270.337 45.1904 271.196 45.9699V45.976Z" fill="#E9FEFF" style="fill:#E9FEFF;fill:color(display-p3 0.9137 0.9961 1.0000);fill-opacity:1;"/>
<path d="M297.145 79.3018C298.453 70.1894 300.512 61.1979 303.306 52.436C303.658 51.3241 301.933 50.8467 301.581 51.9525C298.787 60.7144 296.728 69.706 295.42 78.8184C295.259 79.9605 296.984 80.4499 297.145 79.3018Z" fill="#E9FEFF" style="fill:#E9FEFF;fill:color(display-p3 0.9137 0.9961 1.0000);fill-opacity:1;"/>
<path d="M311.251 69.7056C304.948 77.6397 300.626 87.0784 298.799 97.1033C298.59 98.2453 300.316 98.7348 300.524 97.5867C302.291 87.8881 306.41 78.6851 312.517 70.9927C313.233 70.0924 311.974 68.7992 311.251 69.7117V69.7056Z" fill="#E9FEFF" style="fill:#E9FEFF;fill:color(display-p3 0.9137 0.9961 1.0000);fill-opacity:1;"/>
<path d="M359.507 12.8378C353.604 29.0444 349.306 45.837 346.685 62.9016C344.077 79.8635 343.086 97.0792 343.778 114.228C344.166 123.866 345.097 133.474 346.536 143.01C346.709 144.158 348.434 143.668 348.261 142.526C345.712 125.625 344.853 108.47 345.635 91.393C346.416 74.3103 348.858 57.3182 352.917 40.7189C355.191 31.4373 357.967 22.2826 361.238 13.3092C361.638 12.2154 359.907 11.7381 359.513 12.8258L359.507 12.8378Z" fill="#E9FEFF" style="fill:#E9FEFF;fill:color(display-p3 0.9137 0.9961 1.0000);fill-opacity:1;"/>
<path d="M347.694 14.1066C346.04 23.648 345.832 33.4009 347.109 43.0028C347.479 45.7643 347.963 48.5077 348.571 51.2269C348.822 52.363 350.553 51.8856 350.297 50.7435C347.652 38.8938 347.348 26.5485 349.419 14.584C349.616 13.4419 347.891 12.9524 347.694 14.1005V14.1066Z" fill="#E9FEFF" style="fill:#E9FEFF;fill:color(display-p3 0.9137 0.9961 1.0000);fill-opacity:1;"/>
<path d="M335.636 27.7153C335.194 40.3385 337.427 53.0584 342.166 64.751C343.509 68.0624 345.038 71.2832 346.757 74.4133C347.318 75.4346 348.864 74.5221 348.303 73.5009C342.345 62.6724 338.686 50.5628 337.671 38.2055C337.385 34.7188 337.307 31.2201 337.433 27.7214C337.474 26.5551 335.684 26.5551 335.642 27.7214L335.636 27.7153Z" fill="#E9FEFF" style="fill:#E9FEFF;fill:color(display-p3 0.9137 0.9961 1.0000);fill-opacity:1;"/>
<path d="M347.759 59.4271C356.236 54.2969 363.972 47.946 370.664 40.5981C371.446 39.74 370.18 38.4589 369.398 39.317C362.802 46.5562 355.209 52.8043 346.852 57.8621C345.861 58.4603 346.762 60.0253 347.753 59.4271H347.759Z" fill="#E9FEFF" style="fill:#E9FEFF;fill:color(display-p3 0.9137 0.9961 1.0000);fill-opacity:1;"/>
<path d="M356.23 29.6492C359.632 26.1142 363.65 23.2621 368.091 21.2196C368.533 21.0142 368.634 20.3737 368.413 19.9809C368.157 19.5216 367.625 19.4552 367.19 19.6546C362.623 21.7635 358.468 24.7305 354.964 28.3682C354.159 29.2021 355.424 30.4892 356.23 29.6492Z" fill="#E9FEFF" style="fill:#E9FEFF;fill:color(display-p3 0.9137 0.9961 1.0000);fill-opacity:1;"/>
<path d="M324.115 58.5992C325.715 70.5154 330.401 81.9965 337.546 91.6044C339.552 94.2995 341.737 96.8555 344.1 99.2363C344.918 100.058 346.184 98.7771 345.366 97.9553C337.128 89.6526 331.069 79.2229 327.864 67.911C326.956 64.7023 326.282 61.4272 325.84 58.1218C325.774 57.6323 325.16 57.3786 324.736 57.4873C324.216 57.6263 324.043 58.1218 324.109 58.6052L324.115 58.5992Z" fill="#E9FEFF" style="fill:#E9FEFF;fill:color(display-p3 0.9137 0.9961 1.0000);fill-opacity:1;"/>
<path d="M344.829 83.4829C353.407 82.3348 361.502 78.4252 367.775 72.3825C369.542 70.6845 371.136 68.8173 372.569 66.8232C373.249 65.8805 371.697 64.9741 371.023 65.9107C366.235 72.5456 359.305 77.5611 351.587 80.099C349.384 80.8241 347.121 81.3619 344.823 81.6701C344.34 81.7366 343.934 82.0387 343.928 82.5765C343.928 83.0176 344.346 83.5494 344.823 83.4829H344.829Z" fill="#E9FEFF" style="fill:#E9FEFF;fill:color(display-p3 0.9137 0.9961 1.0000);fill-opacity:1;"/>
<path d="M323.483 94.1488C327.017 100.046 332.079 104.929 338.078 108.21C339.093 108.766 340 107.201 338.979 106.645C333.243 103.509 328.414 98.8742 325.029 93.2364C324.432 92.2393 322.88 93.1518 323.483 94.1488Z" fill="#E9FEFF" style="fill:#E9FEFF;fill:color(display-p3 0.9137 0.9961 1.0000);fill-opacity:1;"/>
<path d="M346.166 103.267C350.351 102.004 354.207 99.847 357.508 96.9525C358.379 96.1851 357.108 94.9101 356.242 95.6715C353.186 98.3605 349.575 100.355 345.695 101.521C344.59 101.853 345.062 103.606 346.172 103.267H346.166Z" fill="#E9FEFF" style="fill:#E9FEFF;fill:color(display-p3 0.9137 0.9961 1.0000);fill-opacity:1;"/>
<path d="M403.645 79.2299C393.682 83.1516 385.838 91.0494 380.627 100.367C374.562 111.214 372.3 123.674 372.031 136.025C371.864 143.681 372.431 151.337 373.237 158.945C373.356 160.093 375.153 160.105 375.028 158.945C373.643 145.827 372.908 132.382 375.589 119.378C377.779 108.761 382.412 98.5484 389.921 90.705C393.933 86.5174 398.738 83.0973 404.122 80.9763C405.185 80.5593 404.725 78.8069 403.645 79.2299Z" fill="#E9FEFF" style="fill:#E9FEFF;fill:color(display-p3 0.9137 0.9961 1.0000);fill-opacity:1;"/>
<path d="M391.658 76.3404C389.205 79.7425 388.375 84.1657 389.342 88.2566C389.449 88.728 389.993 89.0241 390.446 88.8911C394.565 87.6403 399.06 87.8699 403.006 89.6162C404.05 90.0815 404.964 88.5165 403.907 88.0512C399.514 86.0994 394.577 85.7429 389.969 87.1388L391.073 87.7732C390.214 84.1234 391.031 80.2742 393.21 77.2529C393.891 76.3102 392.339 75.4038 391.664 76.3404H391.658Z" fill="#E9FEFF" style="fill:#E9FEFF;fill:color(display-p3 0.9137 0.9961 1.0000);fill-opacity:1;"/>
<path d="M383.313 77.3681C380.006 82.6192 380.197 89.097 380.74 95.0612C380.854 96.306 380.764 98.0644 381.976 98.8077C382.561 99.1702 383.236 99.1279 383.886 99.0494C384.752 98.9466 385.623 98.8621 386.495 98.8016C389.838 98.566 393.204 98.6566 396.535 99.0554C400.332 99.5086 404.075 100.409 407.686 101.678C408.779 102.059 409.244 100.312 408.164 99.9316C402.272 97.871 396.034 96.8257 389.802 96.868C388.238 96.88 386.68 96.9586 385.128 97.1097C384.764 97.1459 384.4 97.1822 384.03 97.2245C383.755 97.2547 383.343 97.3816 383.068 97.303C382.555 97.158 382.633 96.1307 382.591 95.6896C382.328 92.8918 382.119 90.0699 382.275 87.254C382.448 84.0937 383.164 80.9817 384.865 78.2866C385.486 77.3017 383.94 76.3892 383.319 77.3742L383.313 77.3681Z" fill="#E9FEFF" style="fill:#E9FEFF;fill:color(display-p3 0.9137 0.9961 1.0000);fill-opacity:1;"/>
<path d="M372.479 88.4081C372.216 92.082 372.574 95.8043 373.541 99.3574C374.037 101.17 374.693 102.935 375.493 104.633C376.239 106.216 377.129 107.37 378.908 107.733C380.585 108.077 382.328 108.216 384.023 108.415C385.719 108.615 387.492 108.814 389.223 109.032C392.667 109.455 396.105 109.956 399.478 110.79C403.215 111.709 406.82 113.056 410.104 115.099C411.088 115.709 411.99 114.144 411.005 113.534C405.328 110.005 398.768 108.53 392.243 107.618C388.96 107.159 385.665 106.82 382.382 106.409C381.546 106.307 380.704 106.204 379.869 106.071C379.033 105.938 378.251 105.781 377.744 105.05C376.788 103.678 376.209 101.883 375.696 100.3C374.454 96.463 373.983 92.4325 374.269 88.4081C374.353 87.2418 372.562 87.2479 372.479 88.4081Z" fill="#E9FEFF" style="fill:#E9FEFF;fill:color(display-p3 0.9137 0.9961 1.0000);fill-opacity:1;"/>
<path d="M367.464 104.337C367.464 107.165 367.858 109.993 368.664 112.7C369.07 114.066 369.589 115.407 370.186 116.694C370.723 117.849 371.302 119.136 372.293 119.964C373.284 120.791 374.49 121.1 375.702 121.329C377.194 121.613 378.692 121.879 380.185 122.151L389.425 123.843L399.985 125.777C401.113 125.982 401.597 124.236 400.463 124.03C394.696 122.973 388.93 121.915 383.157 120.858L378.758 120.048C377.451 119.806 376.09 119.649 374.812 119.257C373.535 118.864 372.932 118.102 372.335 116.972C371.702 115.77 371.159 114.519 370.717 113.232C369.738 110.362 369.249 107.358 369.255 104.319C369.255 103.153 367.464 103.153 367.464 104.319V104.337Z" fill="#E9FEFF" style="fill:#E9FEFF;fill:color(display-p3 0.9137 0.9961 1.0000);fill-opacity:1;"/>
<path d="M390.829 169.786C399.371 163.06 407.68 156.027 415.727 148.703C423.773 141.379 431.564 133.765 439.073 125.88C443.317 121.42 447.478 116.876 451.543 112.247C452.307 111.377 451.048 110.09 450.278 110.966C443.084 119.154 435.605 127.082 427.857 134.726C420.108 142.37 412.091 149.742 403.818 156.806C399.144 160.8 394.386 164.704 389.557 168.505C388.65 169.218 389.921 170.493 390.823 169.786H390.829Z" fill="#E9FEFF" style="fill:#E9FEFF;fill:color(display-p3 0.9137 0.9961 1.0000);fill-opacity:1;"/>
<path d="M435.575 111.642C430.089 118.428 427.003 126.997 426.955 135.777C426.955 136.242 427.367 136.713 427.85 136.683C434.996 136.218 441.956 134.006 448.063 130.218C449.042 129.607 448.146 128.042 447.161 128.652C441.329 132.272 434.685 134.429 427.856 134.87L428.752 135.777C428.793 127.504 431.665 119.329 436.846 112.929C437.568 112.035 436.309 110.742 435.581 111.648L435.575 111.642Z" fill="#E9FEFF" style="fill:#E9FEFF;fill:color(display-p3 0.9137 0.9961 1.0000);fill-opacity:1;"/>
<path d="M414.42 125.214C412.778 131.498 412.492 138.109 413.638 144.508C413.894 145.946 414.432 146.895 415.846 147.397C417.261 147.898 418.807 148.182 420.306 148.382C423.392 148.787 426.514 148.654 429.594 148.249C433.176 147.771 436.691 146.956 440.201 146.104C441.324 145.832 440.846 144.085 439.724 144.357C434.125 145.711 428.406 147.076 422.61 146.78C421.195 146.708 419.786 146.533 418.401 146.218C417.739 146.067 417.076 145.904 416.437 145.687C415.751 145.457 415.578 145.1 415.441 144.412C414.867 141.547 414.676 138.58 414.742 135.662C414.82 132.29 415.297 128.948 416.151 125.691C416.443 124.561 414.718 124.078 414.426 125.208L414.42 125.214Z" fill="#E9FEFF" style="fill:#E9FEFF;fill:color(display-p3 0.9137 0.9961 1.0000);fill-opacity:1;"/>
<path d="M403.203 136.243C402.612 139.699 402.934 143.258 404.248 146.515C404.433 146.968 404.845 147.289 405.352 147.15C405.776 147.029 406.164 146.491 405.979 146.032C404.791 143.089 404.391 139.862 404.934 136.726C405.018 136.243 404.809 135.747 404.307 135.608C403.878 135.487 403.287 135.759 403.203 136.243Z" fill="#E9FEFF" style="fill:#E9FEFF;fill:color(display-p3 0.9137 0.9961 1.0000);fill-opacity:1;"/>
<path d="M422.878 162.057C428.256 163.199 433.778 163.525 439.252 162.981C440.386 162.867 440.398 161.054 439.252 161.169C433.939 161.7 428.585 161.422 423.356 160.31C422.233 160.069 421.75 161.821 422.878 162.057Z" fill="#E9FEFF" style="fill:#E9FEFF;fill:color(display-p3 0.9137 0.9961 1.0000);fill-opacity:1;"/>
<path d="M123.395 136.327C123.395 136.327 128.935 201.582 103.278 214.296C77.6219 227.01 -8.39075 288.38 0.66478 392.888C9.72031 497.397 98.4489 531.308 98.4489 531.308H495V248.093C495 248.093 437.718 144.376 336.579 109.697C336.579 109.697 299.921 98.0707 275.244 63.5548L123.395 136.333" fill="#07308C" style="fill:#07308C;fill:color(display-p3 0.0275 0.1882 0.5490);fill-opacity:1;"/>
<path d="M275.273 146.654C275.273 146.654 194.597 179.417 160.13 231.421C125.663 283.43 106.478 379.545 106.478 379.545C106.478 379.545 150.376 468.422 239.475 458.548C328.574 448.674 380.698 325.155 378 233.397C374.651 119.522 275.279 146.654 275.279 146.654H275.273Z" fill="#F3FEFF" style="fill:#F3FEFF;fill:color(display-p3 0.9529 0.9961 1.0000);fill-opacity:1;"/>
<path d="M218.678 475.371C298.662 475.371 363.501 409.735 363.501 328.769C363.501 247.803 298.662 182.167 218.678 182.167C138.695 182.167 73.8553 247.803 73.8553 328.769C73.8553 409.735 138.695 475.371 218.678 475.371Z" fill="#689FFF" style="fill:#689FFF;fill:color(display-p3 0.4078 0.6235 1.0000);fill-opacity:1;"/>
<path d="M296.262 148.667C296.262 148.667 310.236 185.575 288.8 221.535L247.594 214.03L260.523 166.456L296.262 148.673V148.667Z" fill="#1895B2" style="fill:#1895B2;fill:color(display-p3 0.0941 0.5843 0.6980);fill-opacity:1;"/>
<g style="mix-blend-mode:soft-light">
<path d="M297.677 175.756C296.483 179.593 294.841 183.176 293.206 186.748C290.328 193.02 287.23 199.57 281.959 203.099C277.482 206.102 271.674 206.743 268.164 211.13C262.565 208.157 257.98 202.308 255.957 195.552C252.644 184.512 256.148 172.97 260.332 163.054C264.577 152.999 275.357 121.45 287.899 128.061C301.199 135.064 301.378 163.84 297.677 175.756Z" fill="black" style="fill:black;fill-opacity:1;"/>
</g>
<mask id="mask0_27_1681" style="mask-type:luminance" maskUnits="userSpaceOnUse" x="73" y="182" width="291" height="294">
<path d="M218.445 475.305C298.428 475.305 363.268 409.669 363.268 328.703C363.268 247.737 298.428 182.101 218.445 182.101C138.461 182.101 73.6221 247.737 73.6221 328.703C73.6221 409.669 138.461 475.305 218.445 475.305Z" fill="white" style="fill:white;fill-opacity:1;"/>
</mask>
<g mask="url(#mask0_27_1681)">
<path d="M50.7355 282.373C50.7355 282.373 80.8808 311.994 118.482 309.033C156.083 306.072 155.54 310.018 171.908 282.373C188.276 254.722 196.537 273.484 208.989 240.902C221.441 208.314 208.733 188.445 191.678 181.593C174.624 174.74 113.963 212.266 113.963 212.266L50.7355 282.373Z" fill="#C8DCFE" style="fill:#C8DCFE;fill:color(display-p3 0.7843 0.8627 0.9961);fill-opacity:1;"/>
<path d="M61.4627 330.709C61.4627 330.709 96.6461 344.486 127.83 330.709C159.014 316.931 146.532 302.604 168.38 314.212C190.228 325.82 201.414 306.369 208.99 336.83C216.565 367.291 202.465 366.451 201.134 400.864C199.809 435.284 196.311 450.209 180.587 453.188C164.864 456.167 156.125 459.382 142.449 472.585C128.773 485.789 115.115 500.599 91.7035 468.011C68.2916 435.423 24.3929 433.864 34.1528 390.211C43.9067 346.559 61.4686 330.709 61.4686 330.709H61.4627Z" fill="#C8DCFE" style="fill:#C8DCFE;fill:color(display-p3 0.7843 0.8627 0.9961);fill-opacity:1;"/>
<path d="M352.063 302.544C314.032 305.529 332.651 297.172 299.485 320.593C266.319 344.015 256.076 321.203 255.007 342.25C253.939 363.297 258.511 346.915 263.388 393.849C268.265 440.782 251.706 443.653 250.232 452.59C248.757 461.527 290.698 461.757 295.575 440.408C300.452 419.059 322.891 431.646 342.399 380.422C361.907 329.198 364.683 301.546 352.057 302.537L352.063 302.544Z" fill="#C8DCFE" style="fill:#C8DCFE;fill:color(display-p3 0.7843 0.8627 0.9961);fill-opacity:1;"/>
<path d="M227.291 215.813C252.655 238.927 270.45 225.403 265.943 245C261.436 264.596 290 264.699 308.26 250.777C326.52 236.854 352.159 240.099 328.747 215.813C305.335 191.528 283.875 184.5 272.169 181.594C260.463 178.693 257.359 186.99 242.328 201.402L227.297 215.813H227.291Z" fill="#C8DCFE" style="fill:#C8DCFE;fill:color(display-p3 0.7843 0.8627 0.9961);fill-opacity:1;"/>
<path d="M242.322 252.752C227.292 257.689 226.319 260.601 222.415 269.514C218.511 278.427 210.709 280.403 222.415 281.388C234.121 282.373 240.77 286.325 242.322 276.451C243.874 266.578 242.322 252.752 242.322 252.752Z" fill="#C8DCFE" style="fill:#C8DCFE;fill:color(display-p3 0.7843 0.8627 0.9961);fill-opacity:1;"/>
</g>
<path d="M144.927 382.271C159.953 382.271 172.135 369.94 172.135 354.728C172.135 339.517 159.953 327.186 144.927 327.186C129.9 327.186 117.718 339.517 117.718 354.728C117.718 369.94 129.9 382.271 144.927 382.271Z" fill="#325EAD" style="fill:#325EAD;fill:color(display-p3 0.1961 0.3686 0.6784);fill-opacity:1;"/>
<path d="M78.5114 365.726C78.5114 365.726 84.039 331.821 112.328 327.543C140.617 323.264 122.082 337.416 122.082 337.416L97.3686 355.52L86.3133 378.893L78.5114 365.726Z" fill="#F9B992" style="fill:#F9B992;fill:color(display-p3 0.9765 0.7255 0.5725);fill-opacity:1;"/>
<path d="M81.4361 382.512C81.4361 382.512 88.2651 357.495 97.3684 351.9C106.472 346.304 140.294 325.245 155.898 329.191C171.508 333.137 112.972 363.091 112.972 363.091C112.972 363.091 108.746 373.297 106.472 379.551C104.43 385.153 140.467 369.472 150.066 364.716C151.779 363.864 153.26 362.613 154.394 361.054C156.805 357.719 160.644 351.277 163.378 346.969C169.234 337.754 178.988 337.754 173.323 357.834C169.24 372.312 133.459 396.018 133.459 396.018L109.719 405.891L81.4302 382.518L81.4361 382.512Z" fill="#F9B992" style="fill:#F9B992;fill:color(display-p3 0.9765 0.7255 0.5725);fill-opacity:1;"/>
<path d="M106.144 402.925L143.87 384.163L167.933 362.107C167.933 362.107 174.947 355.853 175.663 362.107C176.385 368.361 149.72 402.925 149.72 402.925L117.527 418.068L106.138 402.925H106.144Z" fill="#F9B992" style="fill:#F9B992;fill:color(display-p3 0.9765 0.7255 0.5725);fill-opacity:1;"/>
<path d="M80.7858 351.9C80.7858 351.9 86.3492 379.853 103.583 394.338C121.091 409.052 143.87 413.125 143.87 413.125C143.87 413.125 130.033 432.884 96.3957 428.268C77.2101 425.633 69.0798 407.529 69.0798 391.196C69.0798 391.196 71.0318 368.36 80.7858 351.9Z" fill="#F3FEFF" style="fill:#F3FEFF;fill:color(display-p3 0.9529 0.9961 1.0000);fill-opacity:1;"/>
<path d="M213.24 440.777L172.051 410.932C172.051 410.932 151.242 404.786 157.743 414.884C164.244 424.981 184.342 437.707 184.342 437.707C184.342 437.707 150.932 428.202 142.026 422.455C134.468 417.579 126.004 408.285 136.498 438.148C145.804 464.615 186.36 475.015 219.741 469.745L213.24 440.777Z" fill="#F9B992" style="fill:#F9B992;fill:color(display-p3 0.9765 0.7255 0.5725);fill-opacity:1;"/>
<g style="mix-blend-mode:soft-light">
<path d="M322.211 351.901C313.925 375.637 291.498 389.215 272.862 405.886C260.302 417.12 234.998 424.673 219.532 431.211C214.07 433.52 207.467 438.003 209.228 443.726C236.288 447.418 263.705 447.001 291.009 446.572C296.417 446.487 301.891 446.391 307.096 444.916C317.614 441.925 325.798 433.683 332.884 425.265C366.193 385.686 386.16 334.806 388.769 282.875C389.336 271.563 389.08 260.016 385.647 249.235C382.221 238.455 375.26 228.424 365.226 223.421C359.895 220.762 341.832 207.927 335.737 210.786C329.654 213.632 333.529 247.193 335.809 254.915C344.375 283.926 332.305 323.047 322.229 351.907L322.211 351.901Z" fill="black" style="fill:black;fill-opacity:1;"/>
</g>
<path d="M323.213 146.654C323.213 146.654 311.657 176.783 336.37 230.762C361.083 284.748 335.069 359.798 306.451 392.054C277.834 424.31 207.76 434.19 207.76 434.19C197.511 471.056 218.009 473.691 218.009 473.691C312.307 486.858 412.461 435.507 423.517 363.091C434.572 290.676 428.071 244.588 402.708 194.554C377.344 144.521 323.213 146.654 323.213 146.654Z" fill="#F3FEFF" style="fill:#F3FEFF;fill:color(display-p3 0.9529 0.9961 1.0000);fill-opacity:1;"/>
<path d="M146.21 368.034C153.72 368.034 159.808 361.872 159.808 354.269C159.808 346.667 153.72 340.504 146.21 340.504C138.7 340.504 132.612 346.667 132.612 354.269C132.612 361.872 138.7 368.034 146.21 368.034Z" fill="#71A5FF" style="fill:#71A5FF;fill:color(display-p3 0.4431 0.6471 1.0000);fill-opacity:1;"/>
<path d="M279.47 197.522C264.32 216.526 231.052 220.393 195.439 208.852C185.966 205.782 176.313 201.625 166.798 196.367C125.18 173.387 118.106 116.404 143.673 80.8309C169.24 45.2515 221.042 39.3054 259.383 67.5369C271.943 76.7823 281.72 89.7801 288.12 104.44C301.258 134.532 300.13 171.604 279.47 197.522Z" fill="#F9B992" style="fill:#F9B992;fill:color(display-p3 0.9765 0.7255 0.5725);fill-opacity:1;"/>
<g style="mix-blend-mode:soft-light">
<path d="M214.732 172.19C208.96 182.681 201.116 192.15 197.415 203.558C193.201 205.746 187.798 203.087 185.291 199.026C182.784 194.959 182.432 189.944 182.193 185.158C181.029 161.447 181.047 137.602 184.121 114.066C185.202 105.793 186.7 97.4362 190.341 89.9493C204.895 60.062 219.514 87.6832 223.686 106.869C228.444 128.774 225.549 152.521 214.732 172.19Z" fill="black" style="fill:black;fill-opacity:1;"/>
</g>
<path d="M208.906 79.0181C208.906 79.0181 238.496 133.33 224.188 159.664C224.188 159.664 236.222 138.599 211.18 102.718C211.18 102.718 233.178 136.623 212.75 169.538C192.323 202.452 196.8 209.287 196.8 209.287C196.8 209.287 193.947 216.937 186.145 213.317C178.343 209.698 126.314 196.531 122.41 125.758C118.506 54.9862 184.348 36.8823 184.348 36.8823C184.348 36.8823 243.373 22.3979 275.244 63.5427C275.244 63.5427 295.581 82.4987 293.074 118.477C293.074 118.477 264.797 58.8717 208.912 79.012L208.906 79.0181Z" fill="#011D71" style="fill:#011D71;fill:color(display-p3 0.0039 0.1137 0.4431);fill-opacity:1;"/>
<path d="M270.916 87.2358C270.916 87.2358 266.57 74.522 274.372 74.522C282.174 74.522 294.143 95.0007 291.845 113.068L285.213 117.969L274.808 103.926L270.916 87.2358Z" fill="#F9B992" style="fill:#F9B992;fill:color(display-p3 0.9765 0.7255 0.5725);fill-opacity:1;"/>
<path d="M279.47 197.522C264.32 216.526 231.053 220.393 195.439 208.852L196.46 205.401C196.46 205.401 266.278 155.718 280.945 100.416L288.12 104.44C301.258 134.533 300.13 171.605 279.47 197.522Z" fill="white" style="fill:white;fill-opacity:1;"/>
<path d="M247.594 144.291C249.2 140.925 250.781 137.747 252.238 134.544C253.706 131.354 255.055 128.163 256.196 124.924C256.787 123.311 257.288 121.673 257.748 120.03C257.998 119.208 258.177 118.374 258.398 117.546C258.506 117.129 258.577 116.712 258.673 116.289C258.78 115.872 258.864 115.449 258.936 115.026C259.628 111.636 259.926 108.174 260.135 104.421C261.89 107.727 262.672 111.564 262.678 115.371C262.69 117.28 262.511 119.19 262.165 121.063C262.093 121.534 261.992 122 261.878 122.459C261.765 122.918 261.67 123.389 261.544 123.843C261.282 124.755 261.007 125.661 260.691 126.556C259.425 130.127 257.64 133.469 255.455 136.484C254.357 137.989 253.169 139.421 251.868 140.738C250.56 142.049 249.17 143.294 247.594 144.297V144.291Z" fill="#1381A4" style="fill:#1381A4;fill:color(display-p3 0.0745 0.5059 0.6431);fill-opacity:1;"/>
<path d="M192.598 196.385C195.636 194.258 198.555 192.282 201.391 190.222C204.226 188.179 206.948 186.07 209.521 183.822C210.822 182.711 212.052 181.538 213.258 180.336C213.878 179.75 214.434 179.109 215.036 178.499C215.329 178.191 215.598 177.858 215.89 177.544C216.189 177.23 216.463 176.91 216.732 176.577C218.988 173.973 220.928 171.109 222.94 167.948C222.856 171.701 221.668 175.423 219.818 178.741C218.899 180.408 217.812 181.979 216.6 183.436C216.308 183.81 215.992 184.161 215.669 184.505C215.347 184.85 215.036 185.206 214.702 185.545C214.028 186.209 213.347 186.862 212.643 187.478C209.807 189.95 206.62 191.968 203.253 193.503C201.564 194.264 199.833 194.917 198.06 195.418C196.281 195.908 194.472 196.295 192.61 196.379L192.598 196.385Z" fill="#1381A4" style="fill:#1381A4;fill:color(display-p3 0.0745 0.5059 0.6431);fill-opacity:1;"/>
<path d="M277.196 96.246C277.196 96.246 281.535 86.7409 296.733 90.5417C311.931 94.3426 327.541 181.043 306.732 211.982L300.357 207.341C300.357 207.341 324.288 144.358 296.274 104.416C296.274 104.416 291.283 96.9047 283.046 100.415L277.196 96.246Z" fill="#71A5FF" style="fill:#71A5FF;fill:color(display-p3 0.4431 0.6471 1.0000);fill-opacity:1;"/>
<path d="M302.249 201.691C302.249 201.691 301.032 200.476 299.521 203.117L298.011 205.758L307.944 212.924C307.944 212.924 312.833 206.537 310.296 205.377C307.759 204.217 302.249 201.691 302.249 201.691Z" fill="#07308C" style="fill:#07308C;fill:color(display-p3 0.0275 0.1882 0.5490);fill-opacity:1;"/>
<path d="M143.87 362.681C143.87 362.681 94.4436 403.076 55.4218 390.435C16.4001 377.793 73.8553 334.117 73.8553 334.117L75.0372 343.858C75.0372 343.858 43.2861 372.971 59.3258 378.893C75.3655 384.821 133.465 362.36 136.719 359.327C139.972 356.293 143.876 362.681 143.876 362.681H143.87Z" fill="#71A5FF" style="fill:#71A5FF;fill:color(display-p3 0.4431 0.6471 1.0000);fill-opacity:1;"/>
<path d="M146.15 362.964C151.363 362.964 155.588 358.687 155.588 353.411C155.588 348.135 151.363 343.857 146.15 343.857C140.938 343.857 136.713 348.135 136.713 353.411C136.713 358.687 140.938 362.964 146.15 362.964Z" fill="#F8FCFF" style="fill:#F8FCFF;fill:color(display-p3 0.9725 0.9882 1.0000);fill-opacity:1;"/>
<path d="M345.217 197.153H341.092V192.977C341.092 191.956 340.268 191.122 339.259 191.122H331.01C330.001 191.122 329.177 191.956 329.177 192.977V197.153H325.052C324.043 197.153 323.22 197.987 323.22 199.008V207.359C323.22 208.38 324.043 209.214 325.052 209.214H329.177V213.389C329.177 214.411 330.001 215.245 331.01 215.245H339.259C340.268 215.245 341.092 214.411 341.092 213.389V209.214H345.217C346.225 209.214 347.049 208.38 347.049 207.359V199.008C347.049 197.987 346.225 197.153 345.217 197.153Z" fill="#F34141" style="fill:#F34141;fill:color(display-p3 0.9529 0.2549 0.2549);fill-opacity:1;"/>
<path d="M371.25 152.721H368.474V149.911C368.474 149.222 367.919 148.66 367.238 148.66H361.687C361.006 148.66 360.451 149.222 360.451 149.911V152.721H357.675C356.995 152.721 356.44 153.283 356.44 153.972V159.591C356.44 160.28 356.995 160.842 357.675 160.842H360.451V163.652C360.451 164.341 361.006 164.903 361.687 164.903H367.238C367.919 164.903 368.474 164.341 368.474 163.652V160.842H371.25C371.93 160.842 372.485 160.28 372.485 159.591V153.972C372.485 153.283 371.93 152.721 371.25 152.721Z" fill="#F34141" style="fill:#F34141;fill:color(display-p3 0.9529 0.2549 0.2549);fill-opacity:1;"/>
<path d="M60.3345 295.885H56.5022V292.005C56.5022 291.057 55.7381 290.283 54.8009 290.283H47.1362C46.199 290.283 45.435 291.057 45.435 292.005V295.885H41.6026C40.6654 295.885 39.9014 296.658 39.9014 297.607V305.366C39.9014 306.314 40.6654 307.088 41.6026 307.088H45.435V310.967C45.435 311.916 46.199 312.69 47.1362 312.69H54.8009C55.7381 312.69 56.5022 311.916 56.5022 310.967V307.088H60.3345C61.2717 307.088 62.0358 306.314 62.0358 305.366V297.607C62.0358 296.658 61.2717 295.885 60.3345 295.885Z" fill="#F34141" style="fill:#F34141;fill:color(display-p3 0.9529 0.2549 0.2549);fill-opacity:1;"/>
<path d="M279.076 445.677H275.244V441.798C275.244 440.849 274.48 440.076 273.542 440.076H265.878C264.941 440.076 264.176 440.849 264.176 441.798V445.677H260.344C259.407 445.677 258.643 446.451 258.643 447.399V455.158C258.643 456.107 259.407 456.88 260.344 456.88H264.176V460.76C264.176 461.709 264.941 462.482 265.878 462.482H273.542C274.48 462.482 275.244 461.709 275.244 460.76V456.88H279.076C280.013 456.88 280.777 456.107 280.777 455.158V447.399C280.777 446.451 280.013 445.677 279.076 445.677Z" fill="#F34141" style="fill:#F34141;fill:color(display-p3 0.9529 0.2549 0.2549);fill-opacity:1;"/>
<path d="M24.9839 257.568H20.3099V252.837C20.3099 251.677 19.3727 250.734 18.2325 250.734H8.87852C7.7324 250.734 6.80119 251.683 6.80119 252.837V257.568H2.12713C0.981014 257.568 0.0498047 258.517 0.0498047 259.671V269.14C0.0498047 270.3 0.986984 271.243 2.12713 271.243H6.80119V275.974C6.80119 277.134 7.73837 278.077 8.87852 278.077H18.2325C19.3787 278.077 20.3099 277.128 20.3099 275.974V271.243H24.9839C26.13 271.243 27.0612 270.294 27.0612 269.14V259.671C27.0612 258.511 26.124 257.568 24.9839 257.568Z" fill="#F34141" style="fill:#F34141;fill:color(display-p3 0.9529 0.2549 0.2549);fill-opacity:1;"/>
<path d="M72.4882 275.95H70.5721V274.01C70.5721 273.539 70.1901 273.146 69.7185 273.146H65.8861C65.4205 273.146 65.0325 273.533 65.0325 274.01V275.95H63.1163C62.6507 275.95 62.2627 276.337 62.2627 276.814V280.693C62.2627 281.165 62.6448 281.557 63.1163 281.557H65.0325V283.497C65.0325 283.968 65.4146 284.361 65.8861 284.361H69.7185C70.1841 284.361 70.5721 283.974 70.5721 283.497V281.557H72.4882C72.9538 281.557 73.3419 281.171 73.3419 280.693V276.814C73.3419 276.343 72.9598 275.95 72.4882 275.95Z" fill="#F34141" style="fill:#F34141;fill:color(display-p3 0.9529 0.2549 0.2549);fill-opacity:1;"/>
<path d="M279.93 426.165H278.013V424.225C278.013 423.754 277.631 423.361 277.16 423.361H273.327C272.862 423.361 272.474 423.748 272.474 424.225V426.165H270.558C270.092 426.165 269.704 426.552 269.704 427.029V430.909C269.704 431.38 270.086 431.773 270.558 431.773H272.474V433.712C272.474 434.184 272.856 434.577 273.327 434.577H277.16C277.625 434.577 278.013 434.19 278.013 433.712V431.773H279.93C280.395 431.773 280.783 431.386 280.783 430.909V427.029C280.783 426.558 280.401 426.165 279.93 426.165Z" fill="#F34141" style="fill:#F34141;fill:color(display-p3 0.9529 0.2549 0.2549);fill-opacity:1;"/>
<path d="M362.128 223.499H359.567V220.907C359.567 220.273 359.054 219.753 358.427 219.753H353.299C352.672 219.753 352.159 220.273 352.159 220.907V223.499H349.598C348.971 223.499 348.458 224.019 348.458 224.654V229.844C348.458 230.479 348.971 230.998 349.598 230.998H352.159V233.591C352.159 234.225 352.672 234.745 353.299 234.745H358.427C359.054 234.745 359.567 234.225 359.567 233.591V230.998H362.128C362.755 230.998 363.268 230.479 363.268 229.844V224.654C363.268 224.019 362.755 223.499 362.128 223.499Z" fill="#F34141" style="fill:#F34141;fill:color(display-p3 0.9529 0.2549 0.2549);fill-opacity:1;"/>
<path d="M317.292 414.315H314.731V411.723C314.731 411.089 314.218 410.569 313.591 410.569H308.463C307.836 410.569 307.323 411.089 307.323 411.723V414.315H304.762C304.135 414.315 303.622 414.835 303.622 415.469V420.66C303.622 421.295 304.135 421.814 304.762 421.814H307.323V424.407C307.323 425.041 307.836 425.561 308.463 425.561H313.591C314.218 425.561 314.731 425.041 314.731 424.407V421.814H317.292C317.919 421.814 318.432 421.295 318.432 420.66V415.469C318.432 414.835 317.919 414.315 317.292 414.315Z" fill="#F34141" style="fill:#F34141;fill:color(display-p3 0.9529 0.2549 0.2549);fill-opacity:1;"/>
</svg>
