<svg width="63" height="32" viewBox="0 0 63 32" fill="none" xmlns="http://www.w3.org/2000/svg">
<rect x="1.45001" y="4.11035" width="25" height="25" rx="12.5" fill="#CCDDDC" style="fill:#CCDDDC;fill:color(display-p3 0.8000 0.8667 0.8627);fill-opacity:1;"/>
<g clip-path="url(#clip0_25_663)">
<path d="M20.3211 13.2588C19.9201 13.4307 19.4975 13.5452 19.0535 13.6025C19.5262 13.3161 19.8484 12.9079 20.0203 12.3779C19.5906 12.6357 19.118 12.8148 18.6024 12.915C18.4018 12.6859 18.1619 12.5104 17.8826 12.3887C17.6033 12.2669 17.3061 12.2061 16.991 12.2061C16.3608 12.2204 15.8345 12.4388 15.4119 12.8613C14.9894 13.2839 14.771 13.8102 14.7567 14.4404C14.7567 14.6123 14.7781 14.777 14.8211 14.9346C13.8901 14.8773 13.0307 14.6445 12.243 14.2363C11.4552 13.8281 10.7892 13.2874 10.2449 12.6143C10.0444 12.9437 9.94415 13.3089 9.94415 13.71C9.94415 14.111 10.0337 14.4727 10.2127 14.7949C10.3917 15.1172 10.6317 15.3786 10.9324 15.5791C10.56 15.5648 10.2234 15.4717 9.92267 15.2998V15.3213C9.93699 15.8799 10.1089 16.3561 10.4383 16.75C10.7677 17.1439 11.1902 17.3981 11.7059 17.5127C11.5197 17.57 11.3263 17.5986 11.1258 17.5986C10.9826 17.5986 10.8393 17.5843 10.6961 17.5557C10.8537 17.9997 11.1151 18.3613 11.4803 18.6406C11.8455 18.9199 12.2788 19.0739 12.7801 19.1025C12.3934 19.4033 11.9673 19.6361 11.5018 19.8008C11.0363 19.9655 10.5386 20.0479 10.0086 20.0479C9.83673 20.0479 9.66486 20.0335 9.49298 20.0049C9.97996 20.3343 10.5099 20.585 11.0828 20.7568C11.6557 20.9287 12.2573 21.0146 12.8875 21.0146C14.95 20.9287 16.5184 20.2412 17.5926 18.9521C18.6668 17.6631 19.2111 16.2451 19.2254 14.6982L19.2039 14.3975C19.6479 14.0824 20.0203 13.7028 20.3211 13.2588Z" fill="#00204E" style="fill:#00204E;fill:color(display-p3 0.0000 0.1255 0.3059);fill-opacity:1;"/>
</g>
<rect x="32.45" y="4.11035" width="25" height="25" rx="12.5" fill="#CCDDDC" style="fill:#CCDDDC;fill:color(display-p3 0.8000 0.8667 0.8627);fill-opacity:1;"/>
<g clip-path="url(#clip1_25_663)">
<path d="M40.8797 13.0869C40.8797 13.3734 40.8797 14.5479 40.8797 16.6104V20.1338H51.1492V13.0869H40.8797ZM49.8387 14.0537C49.6668 14.1683 49.0294 14.6338 47.9266 15.4502L46.0145 16.8682L42.1902 14.0537H49.8387ZM50.1824 19.167C49.8387 19.167 48.4494 19.167 46.0145 19.167H41.8465V14.9775L46.0145 18.0498L50.1824 14.9775V19.167Z" fill="#00204E" style="fill:#00204E;fill:color(display-p3 0.0000 0.1255 0.3059);fill-opacity:1;"/>
</g>
<defs>
<clipPath id="clip0_25_663">
<rect width="11" height="11" fill="white" style="fill:white;fill-opacity:1;" transform="matrix(1 0 0 -1 9.45001 22.1104)"/>
</clipPath>
<clipPath id="clip1_25_663">
<rect width="11" height="11" fill="white" style="fill:white;fill-opacity:1;" transform="matrix(1 0 0 -1 40.45 22.1104)"/>
</clipPath>
</defs>
</svg>
