<svg width="619" height="113" viewBox="0 0 619 113" fill="none" xmlns="http://www.w3.org/2000/svg">
<circle opacity="0.5" cx="31.7575" cy="31.7575" r="31.7575" transform="matrix(-1 0 0 1 79.3938 2.18359)" fill="#FFB652" stroke="#FFB652" style="fill:#FFB652;fill:color(display-p3 1.0000 0.7137 0.3216);fill-opacity:1;stroke:#FFB652;stroke:color(display-p3 1.0000 0.7137 0.3216);stroke-opacity:1;" stroke-width="3.17575"/>
<circle cx="31.7575" cy="31.7575" r="31.7575" transform="matrix(-1 0 0 1 79.3938 2.18359)" stroke="#FFB652" style="stroke:#FFB652;stroke:color(display-p3 1.0000 0.7137 0.3216);stroke-opacity:1;" stroke-width="3.17575"/>
<circle cx="31.7575" cy="31.7575" r="31.7575" transform="matrix(-1 0 0 1 212.394 2.18359)" fill="#FAD5A3" stroke="#FFB652" style="fill:#FAD5A3;fill:color(display-p3 0.9804 0.8353 0.6392);fill-opacity:1;stroke:#FFB652;stroke:color(display-p3 1.0000 0.7137 0.3216);stroke-opacity:1;" stroke-width="3.17575"/>
<path d="M171 43C171 43.5527 171.447 44 172 44C172.553 44 173 43.5527 173 43V41H171V43Z" fill="white" style="fill:white;fill-opacity:1;"/>
<path d="M189 43C189 43.5527 189.447 44 190 44C190.553 44 191 43.5527 191 43V41H189V43Z" fill="white" style="fill:white;fill-opacity:1;"/>
<path d="M192 28H183.65C183.597 28 183.551 28.0223 183.5 28.0303V29.9696C183.551 29.9777 183.597 29.9999 183.65 29.9999H192C192.552 29.9999 193 30.4481 193 30.9999V38.9999C193 39.5517 192.552 39.9999 192 39.9999H170C169.448 39.9999 169 39.5517 169 38.9999V31C169 30.4482 169.448 30 170 30H172.35C172.403 30 172.449 29.9777 172.5 29.9697V28.0304C172.449 28.0223 172.403 28.0001 172.35 28.0001H170C168.346 28.0001 167 29.3458 167 31.0001V39.0001C167 40.6544 168.346 42.0001 170 42.0001H192C193.654 42.0001 195 40.6544 195 39.0001V31C195 29.3457 193.654 28 192 28Z" fill="white" style="fill:white;fill-opacity:1;"/>
<path d="M178 38C174.141 38 171 34.8594 171 31C171 27.1406 174.141 24 178 24C181.859 24 185 27.1406 185 31C185 34.8594 181.859 38 178 38ZM178 26C175.243 26 173 28.2432 173 31C173 33.7568 175.243 36 178 36C180.757 36 183 33.7568 183 31C183 28.2432 180.757 26 178 26Z" fill="white" style="fill:white;fill-opacity:1;"/>
<path d="M178 34C176.346 34 175 32.6543 175 31C175 29.3457 176.346 28 178 28C179.654 28 181 29.3457 181 31C181 32.6543 179.654 34 178 34ZM178 30C177.448 30 177 30.4482 177 31C177 31.5518 177.448 32 178 32C178.552 32 179 31.5518 179 31C179 30.4482 178.552 30 178 30Z" fill="white" style="fill:white;fill-opacity:1;"/>
<path d="M190 34H188C187.447 34 187 33.5527 187 33C187 32.4473 187.447 32 188 32H190C190.553 32 191 32.4473 191 33C191 33.5527 190.553 34 190 34Z" fill="white" style="fill:white;fill-opacity:1;"/>
<path d="M190 38C190.552 38 191 37.5523 191 37C191 36.4477 190.552 36 190 36C189.448 36 189 36.4477 189 37C189 37.5523 189.448 38 190 38Z" fill="white" style="fill:white;fill-opacity:1;"/>
<path d="M186 38C186.552 38 187 37.5523 187 37C187 36.4477 186.552 36 186 36C185.448 36 185 36.4477 185 37C185 37.5523 185.448 38 186 38Z" fill="white" style="fill:white;fill-opacity:1;"/>
<circle opacity="0.5" cx="31.7575" cy="31.7575" r="30.1696" transform="matrix(-1 0 0 1 346.156 2.18359)" fill="#FFB652" stroke="#FFB652" style="fill:#FFB652;fill:color(display-p3 1.0000 0.7137 0.3216);fill-opacity:1;stroke:#FFB652;stroke:color(display-p3 1.0000 0.7137 0.3216);stroke-opacity:1;" stroke-width="3.17575"/>
<circle cx="31.7575" cy="31.7575" r="30.1696" transform="matrix(-1 0 0 1 346.156 2.18359)" stroke="#FFB652" style="stroke:#FFB652;stroke:color(display-p3 1.0000 0.7137 0.3216);stroke-opacity:1;" stroke-width="3.17575"/>
<circle opacity="0.5" cx="31.7575" cy="31.7575" r="30.1696" transform="matrix(-1 0 0 1 479.537 2.18359)" fill="#FFB652" stroke="#FFB652" style="fill:#FFB652;fill:color(display-p3 1.0000 0.7137 0.3216);fill-opacity:1;stroke:#FFB652;stroke:color(display-p3 1.0000 0.7137 0.3216);stroke-opacity:1;" stroke-width="3.17575"/>
<circle opacity="0.5" cx="31.7575" cy="31.7575" r="30.1696" transform="matrix(-1 0 0 1 602.121 2.18359)" fill="#FFB652" stroke="#FFB652" style="fill:#FFB652;fill:color(display-p3 1.0000 0.7137 0.3216);fill-opacity:1;stroke:#FFB652;stroke:color(display-p3 1.0000 0.7137 0.3216);stroke-opacity:1;" stroke-width="3.17575"/>
<circle cx="31.7575" cy="31.7575" r="30.1696" transform="matrix(-1 0 0 1 479.537 2.18359)" stroke="#FFB652" style="stroke:#FFB652;stroke:color(display-p3 1.0000 0.7137 0.3216);stroke-opacity:1;" stroke-width="3.17575"/>
<circle cx="31.7575" cy="31.7575" r="30.1696" transform="matrix(-1 0 0 1 602.121 2.18359)" stroke="#FFB652" style="stroke:#FFB652;stroke:color(display-p3 1.0000 0.7137 0.3216);stroke-opacity:1;" stroke-width="3.17575"/>
<path d="M31.1074 85.8608H26.9293V78.6062H31.1074V79.8666H28.4676V81.4595H30.9238V82.7198H28.4676V84.5905H31.1074V85.8608ZM33.6431 83.0275L31.8567 80.3132H33.5736L34.6504 82.0797L35.7371 80.3132H37.454L35.6477 83.0275L37.5383 85.8608H35.8165L34.6504 83.9604L33.4793 85.8608H31.7624L33.6431 83.0275ZM40.6545 80.1991C41.3988 80.1991 41.9695 80.3612 42.3664 80.6854C42.7634 81.0096 42.9619 81.5025 42.9619 82.1641V85.8608H41.905L41.6122 85.1066H41.5725C41.4137 85.3051 41.2516 85.4672 41.0862 85.5929C40.9208 85.7186 40.7306 85.8112 40.5156 85.8708C40.3005 85.9303 40.0392 85.9601 39.7316 85.9601C39.4041 85.9601 39.1096 85.8972 38.8483 85.7715C38.5903 85.6458 38.3868 85.4539 38.238 85.1959C38.0891 84.9346 38.0147 84.6038 38.0147 84.2035C38.0147 83.6147 38.2214 83.1813 38.6349 82.9034C39.0484 82.6222 39.6687 82.4668 40.4957 82.437L41.4584 82.4072V82.1641C41.4584 81.873 41.3823 81.6596 41.2301 81.524C41.0779 81.3883 40.8662 81.3205 40.595 81.3205C40.327 81.3205 40.064 81.3586 39.806 81.4346C39.548 81.5107 39.2899 81.6067 39.0319 81.7224L38.5307 80.7003C38.8251 80.5448 39.1543 80.4224 39.5182 80.3331C39.8854 80.2437 40.2642 80.1991 40.6545 80.1991ZM41.4584 83.2905L40.8728 83.3103C40.3832 83.3236 40.0425 83.4112 39.8506 83.5733C39.6621 83.7354 39.5678 83.9488 39.5678 84.2134C39.5678 84.445 39.6356 84.6104 39.7713 84.7096C39.9069 84.8056 40.0839 84.8535 40.3022 84.8535C40.6264 84.8535 40.8993 84.7576 41.1209 84.5657C41.3459 84.3739 41.4584 84.1009 41.4584 83.747V83.2905ZM51.0402 80.209C51.6687 80.209 52.1434 80.3711 52.4643 80.6953C52.7885 81.0162 52.9506 81.5322 52.9506 82.2435V85.8608H51.4322V82.6206C51.4322 82.2236 51.3644 81.9242 51.2287 81.7224C51.0931 81.5207 50.8831 81.4198 50.5986 81.4198C50.1983 81.4198 49.9138 81.5637 49.7451 81.8515C49.5764 82.136 49.492 82.5445 49.492 83.0771V85.8608H47.9786V82.6206C47.9786 82.3559 47.9488 82.1343 47.8893 81.9557C47.8297 81.777 47.7387 81.6431 47.6163 81.5537C47.4939 81.4644 47.3368 81.4198 47.1449 81.4198C46.8638 81.4198 46.6421 81.4909 46.48 81.6331C46.3212 81.7721 46.2071 81.9788 46.1376 82.2534C46.0715 82.5247 46.0384 82.8571 46.0384 83.2508V85.8608H44.5249V80.3132H45.6811L45.8846 81.0228H45.9689C46.0814 80.8309 46.222 80.6754 46.3907 80.5564C46.5627 80.4373 46.7513 80.3496 46.9564 80.2934C47.1615 80.2371 47.3699 80.209 47.5816 80.209C47.9885 80.209 48.3325 80.2752 48.6137 80.4075C48.8982 80.5398 49.1165 80.7449 49.2687 81.0228H49.4027C49.5681 80.7383 49.8013 80.5315 50.1023 80.4025C50.4067 80.2735 50.7193 80.209 51.0402 80.209ZM57.5951 80.209C58.2203 80.209 58.7248 80.4521 59.1086 80.9384C59.4956 81.4247 59.6891 82.1376 59.6891 83.0771C59.6891 83.7056 59.5982 84.2349 59.4162 84.665C59.2343 85.0917 58.9829 85.4143 58.662 85.6326C58.3411 85.8509 57.9722 85.9601 57.5554 85.9601C57.2875 85.9601 57.0576 85.927 56.8657 85.8608C56.6738 85.7914 56.5101 85.7037 56.3744 85.5978C56.2388 85.4887 56.1214 85.3729 56.0221 85.2505H55.9427C55.9692 85.3828 55.9891 85.5185 56.0023 85.6574C56.0155 85.7963 56.0221 85.932 56.0221 86.0643V88.3022H54.5087V80.3132H55.7393L55.9527 81.0327H56.0221C56.1214 80.8839 56.2421 80.7466 56.3844 80.6209C56.5266 80.4952 56.697 80.3959 56.8955 80.3231C57.0973 80.247 57.3305 80.209 57.5951 80.209ZM57.1088 81.4198C56.8442 81.4198 56.6341 81.4743 56.4787 81.5835C56.3232 81.6927 56.209 81.8564 56.1363 82.0748C56.0668 82.2931 56.0288 82.5693 56.0221 82.9034V83.0672C56.0221 83.4244 56.0552 83.7271 56.1214 83.9752C56.1908 84.2233 56.305 84.4119 56.4638 84.5409C56.6259 84.6699 56.8475 84.7344 57.1287 84.7344C57.3603 84.7344 57.5505 84.6699 57.6993 84.5409C57.8482 84.4119 57.959 84.2233 58.0318 83.9752C58.1079 83.7238 58.1459 83.4178 58.1459 83.0573C58.1459 82.5147 58.0616 82.1062 57.8928 81.8316C57.7241 81.557 57.4628 81.4198 57.1088 81.4198ZM62.453 85.8608H60.9396V78.1398H62.453V85.8608ZM66.3334 80.209C66.8461 80.209 67.2878 80.3082 67.6583 80.5067C68.0288 80.7019 68.3149 80.9864 68.5167 81.3602C68.7185 81.734 68.8194 82.1905 68.8194 82.7298V83.4641H65.2417C65.2583 83.8909 65.3856 84.2267 65.6238 84.4715C65.8653 84.7129 66.1994 84.8337 66.6262 84.8337C66.9801 84.8337 67.3043 84.7973 67.5987 84.7245C67.8931 84.6517 68.1958 84.5426 68.5068 84.397V85.5681C68.2322 85.7037 67.9444 85.8029 67.6434 85.8658C67.3457 85.9287 66.9834 85.9601 66.5567 85.9601C66.0009 85.9601 65.508 85.8575 65.078 85.6524C64.6512 85.4473 64.3155 85.1347 64.0707 84.7146C63.8292 84.2945 63.7084 83.7652 63.7084 83.1267C63.7084 82.4783 63.8176 81.9391 64.0359 81.5091C64.2576 81.0757 64.5652 80.7515 64.9589 80.5365C65.3525 80.3182 65.8107 80.209 66.3334 80.209ZM66.3433 81.2858C66.0489 81.2858 65.8041 81.3801 65.6089 81.5686C65.4171 81.7572 65.3062 82.0533 65.2765 82.4568H67.4002C67.3969 82.2319 67.3556 82.0318 67.2762 81.8564C67.2001 81.6811 67.0843 81.5422 66.9288 81.4396C66.7767 81.3371 66.5815 81.2858 66.3433 81.2858ZM26.453 90.6062C27.3892 90.6062 28.0723 90.808 28.5023 91.2116C28.9324 91.6119 29.1474 92.1643 29.1474 92.869C29.1474 93.1865 29.0994 93.4909 29.0035 93.782C28.9076 94.0698 28.7504 94.3262 28.5321 94.5511C28.3171 94.7761 28.0293 94.9547 27.6687 95.087C27.3081 95.216 26.8632 95.2805 26.3339 95.2805H25.6739V97.8608H24.1357V90.6062H26.453ZM26.3736 91.8666H25.6739V94.0202H26.1801C26.4679 94.0202 26.7176 93.9821 26.9293 93.906C27.141 93.83 27.3048 93.7109 27.4206 93.5488C27.5364 93.3867 27.5943 93.1783 27.5943 92.9235C27.5943 92.5663 27.495 92.3016 27.2965 92.1296C27.098 91.9543 26.7904 91.8666 26.3736 91.8666ZM33.4942 92.209C33.5703 92.209 33.6579 92.214 33.7572 92.2239C33.8597 92.2305 33.9424 92.2404 34.0053 92.2537L33.8912 93.6728C33.8415 93.6563 33.7704 93.6447 33.6778 93.6381C33.5885 93.6282 33.5107 93.6232 33.4446 93.6232C33.2494 93.6232 33.0592 93.648 32.8739 93.6976C32.692 93.7473 32.5282 93.8283 32.3827 93.9408C32.2371 94.0499 32.1213 94.1955 32.0353 94.3774C31.9526 94.5561 31.9113 94.7761 31.9113 95.0374V97.8608H30.3978V92.3132H31.5441L31.7674 93.2461H31.8418C31.951 93.0575 32.0866 92.8855 32.2487 92.73C32.4141 92.5712 32.601 92.4455 32.8094 92.3529C33.0211 92.257 33.2494 92.209 33.4942 92.209ZM40.0541 95.0771C40.0541 95.5402 39.9912 95.9504 39.8655 96.3077C39.7431 96.665 39.5628 96.9677 39.3247 97.2158C39.0898 97.4606 38.8053 97.6458 38.4712 97.7715C38.1404 97.8972 37.7666 97.9601 37.3497 97.9601C36.9594 97.9601 36.6005 97.8972 36.273 97.7715C35.9488 97.6458 35.6659 97.4606 35.4244 97.2158C35.1863 96.9677 35.001 96.665 34.8687 96.3077C34.7397 95.9504 34.6752 95.5402 34.6752 95.0771C34.6752 94.4618 34.7843 93.9408 35.0027 93.514C35.221 93.0873 35.532 92.7631 35.9355 92.5415C36.3391 92.3198 36.8205 92.209 37.3795 92.209C37.8989 92.209 38.3587 92.3198 38.759 92.5415C39.1626 92.7631 39.4785 93.0873 39.7067 93.514C39.9383 93.9408 40.0541 94.4618 40.0541 95.0771ZM36.2184 95.0771C36.2184 95.441 36.2581 95.747 36.3375 95.9951C36.4169 96.2432 36.5409 96.4301 36.7096 96.5558C36.8783 96.6815 37.0983 96.7444 37.3696 96.7444C37.6375 96.7444 37.8542 96.6815 38.0196 96.5558C38.1883 96.4301 38.3107 96.2432 38.3868 95.9951C38.4662 95.747 38.5059 95.441 38.5059 95.0771C38.5059 94.7099 38.4662 94.4056 38.3868 94.1641C38.3107 93.9193 38.1883 93.7357 38.0196 93.6133C37.8509 93.4909 37.6309 93.4297 37.3597 93.4297C36.9594 93.4297 36.6683 93.567 36.4863 93.8415C36.3077 94.1161 36.2184 94.528 36.2184 95.0771ZM42.9271 100.302C42.1531 100.302 41.5609 100.167 41.1507 99.8953C40.7438 99.6273 40.5404 99.2502 40.5404 98.7639C40.5404 98.4298 40.6446 98.1503 40.853 97.9253C41.0614 97.7004 41.3674 97.54 41.771 97.444C41.6155 97.3779 41.4799 97.2703 41.3641 97.1215C41.2483 96.9693 41.1904 96.8089 41.1904 96.6402C41.1904 96.4284 41.2516 96.2531 41.374 96.1142C41.4964 95.9719 41.6734 95.833 41.905 95.6974C41.6138 95.5717 41.3823 95.3699 41.2103 95.092C41.0415 94.8141 40.9572 94.4866 40.9572 94.1095C40.9572 93.7059 41.0449 93.3635 41.2202 93.0823C41.3988 92.7978 41.6569 92.5812 41.9943 92.4323C42.335 92.2834 42.7485 92.209 43.2348 92.209C43.3373 92.209 43.4564 92.2156 43.5921 92.2289C43.7277 92.2421 43.8518 92.257 43.9642 92.2735C44.08 92.2901 44.1577 92.3033 44.1974 92.3132H46.1327V93.0823L45.2643 93.3056C45.3437 93.428 45.4032 93.5587 45.4429 93.6976C45.4826 93.8366 45.5025 93.9838 45.5025 94.1393C45.5025 94.7347 45.2941 95.1995 44.8773 95.5336C44.4637 95.8644 43.8881 96.0298 43.1504 96.0298C42.9751 96.0199 42.8097 96.0067 42.6542 95.9901C42.5781 96.0497 42.5203 96.1125 42.4806 96.1787C42.4409 96.2448 42.421 96.3143 42.421 96.3871C42.421 96.4599 42.4508 96.5211 42.5103 96.5707C42.5732 96.617 42.6658 96.6534 42.7882 96.6799C42.9139 96.703 43.0694 96.7146 43.2546 96.7146H44.1974C44.8061 96.7146 45.2693 96.8453 45.5868 97.1066C45.9077 97.3679 46.0682 97.7517 46.0682 98.2578C46.0682 98.9062 45.7969 99.409 45.2544 99.7663C44.7152 100.124 43.9394 100.302 42.9271 100.302ZM42.9917 99.3147C43.3522 99.3147 43.6615 99.28 43.9196 99.2105C44.1809 99.1444 44.381 99.0484 44.52 98.9227C44.6589 98.8003 44.7284 98.6531 44.7284 98.4811C44.7284 98.3422 44.687 98.2313 44.6043 98.1486C44.5249 98.0692 44.4025 98.013 44.2371 97.9799C44.075 97.9468 43.8666 97.9303 43.6119 97.9303H42.8279C42.6427 97.9303 42.4756 97.9601 42.3267 98.0196C42.1812 98.0792 42.0654 98.1619 41.9794 98.2677C41.8934 98.3769 41.8504 98.5026 41.8504 98.6449C41.8504 98.8533 41.9496 99.017 42.1481 99.1361C42.3499 99.2552 42.6311 99.3147 42.9917 99.3147ZM43.2348 95.1069C43.5193 95.1069 43.7277 95.0192 43.86 94.8439C43.9923 94.6686 44.0585 94.4304 44.0585 94.1293C44.0585 93.7952 43.989 93.5455 43.8501 93.3801C43.7145 93.2114 43.5094 93.127 43.2348 93.127C42.9569 93.127 42.7485 93.2114 42.6096 93.3801C42.4706 93.5455 42.4012 93.7952 42.4012 94.1293C42.4012 94.4304 42.469 94.6686 42.6046 94.8439C42.7436 95.0192 42.9536 95.1069 43.2348 95.1069ZM50.147 92.209C50.2231 92.209 50.3108 92.214 50.41 92.2239C50.5126 92.2305 50.5953 92.2404 50.6581 92.2537L50.544 93.6728C50.4944 93.6563 50.4232 93.6447 50.3306 93.6381C50.2413 93.6282 50.1635 93.6232 50.0974 93.6232C49.9022 93.6232 49.712 93.648 49.5267 93.6976C49.3448 93.7473 49.1811 93.8283 49.0355 93.9408C48.8899 94.0499 48.7742 94.1955 48.6882 94.3774C48.6054 94.5561 48.5641 94.7761 48.5641 95.0374V97.8608H47.0507V92.3132H48.1969L48.4202 93.2461H48.4946C48.6038 93.0575 48.7394 92.8855 48.9015 92.73C49.0669 92.5712 49.2538 92.4455 49.4622 92.3529C49.674 92.257 49.9022 92.209 50.147 92.209ZM53.9381 92.1991C54.6824 92.1991 55.253 92.3612 55.65 92.6854C56.0469 93.0096 56.2454 93.5025 56.2454 94.1641V97.8608H55.1885L54.8957 97.1066H54.856C54.6973 97.3051 54.5352 97.4672 54.3698 97.5929C54.2044 97.7186 54.0141 97.8112 53.7991 97.8708C53.5841 97.9303 53.3228 97.9601 53.0151 97.9601C52.6876 97.9601 52.3932 97.8972 52.1318 97.7715C51.8738 97.6458 51.6704 97.4539 51.5215 97.1959C51.3726 96.9346 51.2982 96.6038 51.2982 96.2035C51.2982 95.6147 51.505 95.1813 51.9185 94.9034C52.332 94.6222 52.9523 94.4668 53.7793 94.437L54.7419 94.4072V94.1641C54.7419 93.873 54.6658 93.6596 54.5137 93.524C54.3615 93.3883 54.1498 93.3205 53.8785 93.3205C53.6106 93.3205 53.3476 93.3586 53.0895 93.4346C52.8315 93.5107 52.5735 93.6067 52.3154 93.7224L51.8143 92.7003C52.1087 92.5448 52.4378 92.4224 52.8017 92.3331C53.1689 92.2437 53.5477 92.1991 53.9381 92.1991ZM54.7419 95.2905L54.1564 95.3103C53.6668 95.3236 53.3261 95.4112 53.1342 95.5733C52.9456 95.7354 52.8514 95.9488 52.8514 96.2134C52.8514 96.445 52.9192 96.6104 53.0548 96.7096C53.1904 96.8056 53.3674 96.8535 53.5857 96.8535C53.9099 96.8535 54.1829 96.7576 54.4045 96.5657C54.6294 96.3739 54.7419 96.1009 54.7419 95.747V95.2905ZM64.3237 92.209C64.9523 92.209 65.427 92.3711 65.7479 92.6953C66.072 93.0162 66.2341 93.5322 66.2341 94.2435V97.8608H64.7157V94.6206C64.7157 94.2236 64.6479 93.9242 64.5123 93.7224C64.3767 93.5207 64.1666 93.4198 63.8821 93.4198C63.4818 93.4198 63.1973 93.5637 63.0286 93.8515C62.8599 94.136 62.7756 94.5445 62.7756 95.0771V97.8608H61.2621V94.6206C61.2621 94.3559 61.2323 94.1343 61.1728 93.9557C61.1133 93.777 61.0223 93.6431 60.8999 93.5537C60.7775 93.4644 60.6204 93.4198 60.4285 93.4198C60.1473 93.4198 59.9257 93.4909 59.7636 93.6331C59.6048 93.7721 59.4906 93.9788 59.4212 94.2534C59.355 94.5247 59.3219 94.8571 59.3219 95.2508V97.8608H57.8085V92.3132H58.9647L59.1681 93.0228H59.2525C59.3649 92.8309 59.5055 92.6754 59.6742 92.5564C59.8463 92.4373 60.0348 92.3496 60.2399 92.2934C60.445 92.2371 60.6534 92.209 60.8651 92.209C61.272 92.209 61.6161 92.2752 61.8973 92.4075C62.1818 92.5398 62.4001 92.7449 62.5523 93.0228H62.6862C62.8516 92.7383 63.0849 92.5315 63.3859 92.4025C63.6902 92.2735 64.0029 92.209 64.3237 92.209ZM71.6627 96.2134C71.6627 96.5905 71.5734 96.9098 71.3947 97.1711C71.2194 97.4291 70.9564 97.626 70.6058 97.7616C70.2551 97.8939 69.8184 97.9601 69.2958 97.9601C68.9087 97.9601 68.5763 97.9353 68.2984 97.8857C68.0238 97.836 67.7459 97.7533 67.4647 97.6375V96.3871C67.7658 96.5227 68.0883 96.6352 68.4324 96.7245C68.7797 96.8105 69.084 96.8535 69.3454 96.8535C69.6398 96.8535 69.8499 96.8105 69.9756 96.7245C70.1046 96.6352 70.1691 96.5194 70.1691 96.3772C70.1691 96.2845 70.1426 96.2018 70.0897 96.1291C70.0401 96.053 69.9309 95.9686 69.7622 95.876C69.5935 95.7801 69.3288 95.656 68.9683 95.5038C68.6209 95.3583 68.3348 95.2111 68.1098 95.0622C67.8882 94.9134 67.7228 94.738 67.6136 94.5362C67.5077 94.3311 67.4548 94.0714 67.4548 93.7572C67.4548 93.2444 67.6533 92.859 68.0503 92.601C68.4505 92.3397 68.9848 92.209 69.653 92.209C69.9971 92.209 70.3246 92.2437 70.6355 92.3132C70.9498 92.3827 71.2723 92.4935 71.6031 92.6457L71.1466 93.7373C70.8721 93.6182 70.6124 93.5207 70.3676 93.4446C70.1261 93.3685 69.8796 93.3304 69.6282 93.3304C69.4066 93.3304 69.2395 93.3602 69.127 93.4198C69.0146 93.4793 68.9583 93.5703 68.9583 93.6927C68.9583 93.782 68.9865 93.8614 69.0427 93.9309C69.1022 94.0003 69.2147 94.0781 69.3801 94.1641C69.5488 94.2468 69.7953 94.3543 70.1195 94.4866C70.4337 94.6156 70.7067 94.7513 70.9382 94.8935C71.1698 95.0324 71.3484 95.2061 71.4741 95.4145C71.5998 95.6196 71.6627 95.8859 71.6627 96.2134Z" fill="#21272A" style="fill:#21272A;fill:color(display-p3 0.1294 0.1529 0.1647);fill-opacity:1;"/>
<path d="M154.049 85.8608V78.6062H155.587V85.8608H154.049ZM160.445 80.209C161.037 80.209 161.513 80.3711 161.874 80.6953C162.234 81.0162 162.415 81.5322 162.415 82.2435V85.8608H160.901V82.6206C160.901 82.2236 160.828 81.9242 160.683 81.7224C160.541 81.5207 160.316 81.4198 160.008 81.4198C159.545 81.4198 159.229 81.5769 159.06 81.8912C158.892 82.2054 158.807 82.6586 158.807 83.2508V85.8608H157.294V80.3132H158.45L158.653 81.0228H158.738C158.857 80.8309 159.004 80.6754 159.179 80.5564C159.358 80.4373 159.555 80.3496 159.77 80.2934C159.988 80.2371 160.213 80.209 160.445 80.209ZM166.31 84.7543C166.475 84.7543 166.636 84.7378 166.791 84.7047C166.95 84.6716 167.107 84.6302 167.263 84.5806V85.707C167.1 85.7798 166.899 85.8393 166.657 85.8857C166.419 85.9353 166.158 85.9601 165.873 85.9601C165.542 85.9601 165.245 85.9072 164.98 85.8013C164.719 85.6921 164.512 85.5052 164.36 85.2406C164.211 84.9726 164.136 84.6005 164.136 84.1241V81.4495H163.412V80.8094L164.246 80.3033L164.682 79.1322H165.65V80.3132H167.203V81.4495H165.65V84.1241C165.65 84.3358 165.709 84.4946 165.829 84.6005C165.951 84.703 166.111 84.7543 166.31 84.7543ZM170.677 80.209C171.189 80.209 171.631 80.3082 172.001 80.5067C172.372 80.7019 172.658 80.9864 172.86 81.3602C173.062 81.734 173.163 82.1905 173.163 82.7298V83.4641H169.585C169.601 83.8909 169.729 84.2267 169.967 84.4715C170.208 84.7129 170.543 84.8337 170.969 84.8337C171.323 84.8337 171.647 84.7973 171.942 84.7245C172.236 84.6517 172.539 84.5426 172.85 84.397V85.5681C172.575 85.7037 172.288 85.8029 171.987 85.8658C171.689 85.9287 171.327 85.9601 170.9 85.9601C170.344 85.9601 169.851 85.8575 169.421 85.6524C168.994 85.4473 168.659 85.1347 168.414 84.7146C168.172 84.2945 168.052 83.7652 168.052 83.1267C168.052 82.4783 168.161 81.9391 168.379 81.5091C168.601 81.0757 168.908 80.7515 169.302 80.5365C169.696 80.3182 170.154 80.209 170.677 80.209ZM170.686 81.2858C170.392 81.2858 170.147 81.3801 169.952 81.5686C169.76 81.7572 169.649 82.0533 169.62 82.4568H171.743C171.74 82.2319 171.699 82.0318 171.619 81.8564C171.543 81.6811 171.427 81.5422 171.272 81.4396C171.12 81.3371 170.925 81.2858 170.686 81.2858ZM177.489 80.209C177.566 80.209 177.653 80.214 177.752 80.2239C177.855 80.2305 177.938 80.2404 178.001 80.2537L177.886 81.6728C177.837 81.6563 177.766 81.6447 177.673 81.6381C177.584 81.6282 177.506 81.6232 177.44 81.6232C177.245 81.6232 177.054 81.648 176.869 81.6976C176.687 81.7473 176.524 81.8283 176.378 81.9408C176.232 82.0499 176.117 82.1955 176.031 82.3774C175.948 82.5561 175.907 82.7761 175.907 83.0374V85.8608H174.393V80.3132H175.539L175.763 81.2461H175.837C175.946 81.0575 176.082 80.8855 176.244 80.73C176.409 80.5712 176.596 80.4455 176.805 80.3529C177.016 80.257 177.245 80.209 177.489 80.209ZM181.281 80.1991C182.025 80.1991 182.595 80.3612 182.992 80.6854C183.389 81.0096 183.588 81.5025 183.588 82.1641V85.8608H182.531L182.238 85.1066H182.199C182.04 85.3051 181.878 85.4672 181.712 85.5929C181.547 85.7186 181.357 85.8112 181.142 85.8708C180.927 85.9303 180.665 85.9601 180.358 85.9601C180.03 85.9601 179.736 85.8972 179.474 85.7715C179.216 85.6458 179.013 85.4539 178.864 85.1959C178.715 84.9346 178.641 84.6038 178.641 84.2035C178.641 83.6147 178.847 83.1813 179.261 82.9034C179.674 82.6222 180.295 82.4668 181.122 82.437L182.084 82.4072V82.1641C182.084 81.873 182.008 81.6596 181.856 81.524C181.704 81.3883 181.492 81.3205 181.221 81.3205C180.953 81.3205 180.69 81.3586 180.432 81.4346C180.174 81.5107 179.916 81.6067 179.658 81.7224L179.157 80.7003C179.451 80.5448 179.78 80.4224 180.144 80.3331C180.511 80.2437 180.89 80.1991 181.281 80.1991ZM182.084 83.2905L181.499 83.3103C181.009 83.3236 180.669 83.4112 180.477 83.5733C180.288 83.7354 180.194 83.9488 180.194 84.2134C180.194 84.445 180.262 84.6104 180.397 84.7096C180.533 84.8056 180.71 84.8535 180.928 84.8535C181.252 84.8535 181.525 84.7576 181.747 84.5657C181.972 84.3739 182.084 84.1009 182.084 83.747V83.2905ZM187.404 85.9601C186.855 85.9601 186.387 85.8608 185.999 85.6624C185.612 85.4606 185.318 85.1496 185.116 84.7295C184.914 84.3094 184.814 83.7718 184.814 83.1168C184.814 82.4386 184.928 81.8862 185.156 81.4595C185.387 81.0294 185.707 80.7135 186.114 80.5117C186.524 80.3099 186.999 80.209 187.538 80.209C187.921 80.209 188.252 80.247 188.53 80.3231C188.811 80.3959 189.056 80.4836 189.265 80.5861L188.818 81.7572C188.58 81.6612 188.358 81.5835 188.153 81.524C187.948 81.4611 187.743 81.4297 187.538 81.4297C187.273 81.4297 187.053 81.4925 186.878 81.6182C186.702 81.7406 186.572 81.9259 186.486 82.174C186.4 82.4221 186.357 82.7331 186.357 83.1069C186.357 83.4741 186.403 83.7784 186.496 84.0199C186.588 84.2614 186.722 84.4417 186.898 84.5608C187.073 84.6766 187.286 84.7344 187.538 84.7344C187.852 84.7344 188.132 84.6931 188.376 84.6104C188.621 84.5244 188.859 84.4053 189.091 84.2531V85.5482C188.859 85.6938 188.616 85.798 188.361 85.8608C188.11 85.927 187.791 85.9601 187.404 85.9601ZM192.718 84.7543C192.884 84.7543 193.044 84.7378 193.199 84.7047C193.358 84.6716 193.515 84.6302 193.671 84.5806V85.707C193.509 85.7798 193.307 85.8393 193.066 85.8857C192.827 85.9353 192.566 85.9601 192.282 85.9601C191.951 85.9601 191.653 85.9072 191.388 85.8013C191.127 85.6921 190.92 85.5052 190.768 85.2406C190.619 84.9726 190.545 84.6005 190.545 84.1241V81.4495H189.82V80.8094L190.654 80.3033L191.091 79.1322H192.058V80.3132H193.611V81.4495H192.058V84.1241C192.058 84.3358 192.118 84.4946 192.237 84.6005C192.359 84.703 192.52 84.7543 192.718 84.7543ZM196.311 80.3132V85.8608H194.797V80.3132H196.311ZM195.556 78.1398C195.781 78.1398 195.975 78.1927 196.137 78.2986C196.299 78.4011 196.38 78.5947 196.38 78.8792C196.38 79.1603 196.299 79.3555 196.137 79.4647C195.975 79.5705 195.781 79.6235 195.556 79.6235C195.328 79.6235 195.133 79.5705 194.971 79.4647C194.812 79.3555 194.733 79.1603 194.733 78.8792C194.733 78.5947 194.812 78.4011 194.971 78.2986C195.133 78.1927 195.328 78.1398 195.556 78.1398ZM199.223 85.8608L197.11 80.3132H198.693L199.764 83.4741C199.824 83.6593 199.87 83.8545 199.903 84.0596C199.94 84.2647 199.964 84.4483 199.978 84.6104H200.017C200.027 84.4351 200.05 84.2482 200.087 84.0497C200.127 83.8512 200.178 83.6593 200.241 83.4741L201.308 80.3132H202.89L200.777 85.8608H199.223ZM205.977 80.209C206.49 80.209 206.931 80.3082 207.302 80.5067C207.672 80.7019 207.958 80.9864 208.16 81.3602C208.362 81.734 208.463 82.1905 208.463 82.7298V83.4641H204.885C204.902 83.8909 205.029 84.2267 205.267 84.4715C205.509 84.7129 205.843 84.8337 206.27 84.8337C206.624 84.8337 206.948 84.7973 207.242 84.7245C207.537 84.6517 207.839 84.5426 208.15 84.397V85.5681C207.876 85.7037 207.588 85.8029 207.287 85.8658C206.989 85.9287 206.627 85.9601 206.2 85.9601C205.644 85.9601 205.152 85.8575 204.721 85.6524C204.295 85.4473 203.959 85.1347 203.714 84.7146C203.473 84.2945 203.352 83.7652 203.352 83.1267C203.352 82.4783 203.461 81.9391 203.679 81.5091C203.901 81.0757 204.209 80.7515 204.602 80.5365C204.996 80.3182 205.454 80.209 205.977 80.209ZM205.987 81.2858C205.692 81.2858 205.448 81.3801 205.252 81.5686C205.061 81.7572 204.95 82.0533 204.92 82.4568H207.044C207.04 82.2319 206.999 82.0318 206.92 81.8564C206.844 81.6811 206.728 81.5422 206.572 81.4396C206.42 81.3371 206.225 81.2858 205.987 81.2858ZM161.224 97.8608H159.685V91.8865H157.716V90.6062H163.194V91.8865H161.224V97.8608ZM167.287 92.209C167.363 92.209 167.451 92.214 167.55 92.2239C167.653 92.2305 167.736 92.2404 167.798 92.2537L167.684 93.6728C167.635 93.6563 167.564 93.6447 167.471 93.6381C167.382 93.6282 167.304 93.6232 167.238 93.6232C167.043 93.6232 166.852 93.648 166.667 93.6976C166.485 93.7473 166.321 93.8283 166.176 93.9408C166.03 94.0499 165.915 94.1955 165.829 94.3774C165.746 94.5561 165.704 94.7761 165.704 95.0374V97.8608H164.191V92.3132H165.337L165.561 93.2461H165.635C165.744 93.0575 165.88 92.8855 166.042 92.73C166.207 92.5712 166.394 92.4455 166.603 92.3529C166.814 92.257 167.043 92.209 167.287 92.209ZM171.078 92.1991C171.823 92.1991 172.393 92.3612 172.79 92.6854C173.187 93.0096 173.386 93.5025 173.386 94.1641V97.8608H172.329L172.036 97.1066H171.996C171.838 97.3051 171.676 97.4672 171.51 97.5929C171.345 97.7186 171.155 97.8112 170.94 97.8708C170.724 97.9303 170.463 97.9601 170.155 97.9601C169.828 97.9601 169.534 97.8972 169.272 97.7715C169.014 97.6458 168.811 97.4539 168.662 97.1959C168.513 96.9346 168.439 96.6038 168.439 96.2035C168.439 95.6147 168.645 95.1813 169.059 94.9034C169.472 94.6222 170.093 94.4668 170.92 94.437L171.882 94.4072V94.1641C171.882 93.873 171.806 93.6596 171.654 93.524C171.502 93.3883 171.29 93.3205 171.019 93.3205C170.751 93.3205 170.488 93.3586 170.23 93.4346C169.972 93.5107 169.714 93.6067 169.456 93.7224L168.955 92.7003C169.249 92.5448 169.578 92.4224 169.942 92.3331C170.309 92.2437 170.688 92.1991 171.078 92.1991ZM171.882 95.2905L171.297 95.3103C170.807 95.3236 170.466 95.4112 170.275 95.5733C170.086 95.7354 169.992 95.9488 169.992 96.2134C169.992 96.445 170.06 96.6104 170.195 96.7096C170.331 96.8056 170.508 96.8535 170.726 96.8535C171.05 96.8535 171.323 96.7576 171.545 96.5657C171.77 96.3739 171.882 96.1009 171.882 95.747V95.2905ZM176.462 92.3132V97.8608H174.949V92.3132H176.462ZM175.708 90.1398C175.933 90.1398 176.127 90.1927 176.289 90.2986C176.451 90.4011 176.532 90.5947 176.532 90.8792C176.532 91.1603 176.451 91.3555 176.289 91.4647C176.127 91.5705 175.933 91.6235 175.708 91.6235C175.48 91.6235 175.285 91.5705 175.123 91.4647C174.964 91.3555 174.884 91.1603 174.884 90.8792C174.884 90.5947 174.964 90.4011 175.123 90.2986C175.285 90.1927 175.48 90.1398 175.708 90.1398ZM181.206 92.209C181.798 92.209 182.275 92.3711 182.635 92.6953C182.996 93.0162 183.176 93.5322 183.176 94.2435V97.8608H181.663V94.6206C181.663 94.2236 181.59 93.9242 181.444 93.7224C181.302 93.5207 181.077 93.4198 180.769 93.4198C180.306 93.4198 179.99 93.5769 179.822 93.8912C179.653 94.2054 179.569 94.6586 179.569 95.2508V97.8608H178.055V92.3132H179.211L179.415 93.0228H179.499C179.618 92.8309 179.765 92.6754 179.941 92.5564C180.119 92.4373 180.316 92.3496 180.531 92.2934C180.75 92.2371 180.975 92.209 181.206 92.209ZM186.248 92.3132V97.8608H184.734V92.3132H186.248ZM185.493 90.1398C185.718 90.1398 185.912 90.1927 186.074 90.2986C186.236 90.4011 186.317 90.5947 186.317 90.8792C186.317 91.1603 186.236 91.3555 186.074 91.4647C185.912 91.5705 185.718 91.6235 185.493 91.6235C185.265 91.6235 185.07 91.5705 184.908 91.4647C184.749 91.3555 184.67 91.1603 184.67 90.8792C184.67 90.5947 184.749 90.4011 184.908 90.2986C185.07 90.1927 185.265 90.1398 185.493 90.1398ZM190.991 92.209C191.584 92.209 192.06 92.3711 192.42 92.6953C192.781 93.0162 192.961 93.5322 192.961 94.2435V97.8608H191.448V94.6206C191.448 94.2236 191.375 93.9242 191.23 93.7224C191.087 93.5207 190.862 93.4198 190.555 93.4198C190.092 93.4198 189.776 93.5769 189.607 93.8912C189.438 94.2054 189.354 94.6586 189.354 95.2508V97.8608H187.84V92.3132H188.997L189.2 93.0228H189.284C189.403 92.8309 189.551 92.6754 189.726 92.5564C189.905 92.4373 190.101 92.3496 190.317 92.2934C190.535 92.2371 190.76 92.209 190.991 92.209ZM196.142 100.302C195.368 100.302 194.776 100.167 194.366 99.8953C193.959 99.6273 193.755 99.2502 193.755 98.7639C193.755 98.4298 193.859 98.1503 194.068 97.9253C194.276 97.7004 194.582 97.54 194.986 97.444C194.83 97.3779 194.695 97.2703 194.579 97.1215C194.463 96.9693 194.405 96.8089 194.405 96.6402C194.405 96.4284 194.466 96.2531 194.589 96.1142C194.711 95.9719 194.888 95.833 195.12 95.6974C194.829 95.5717 194.597 95.3699 194.425 95.092C194.256 94.8141 194.172 94.4866 194.172 94.1095C194.172 93.7059 194.26 93.3635 194.435 93.0823C194.614 92.7978 194.872 92.5812 195.209 92.4323C195.55 92.2834 195.963 92.209 196.45 92.209C196.552 92.209 196.671 92.2156 196.807 92.2289C196.943 92.2421 197.067 92.257 197.179 92.2735C197.295 92.2901 197.373 92.3033 197.412 92.3132H199.348V93.0823L198.479 93.3056C198.559 93.428 198.618 93.5587 198.658 93.6976C198.698 93.8366 198.717 93.9838 198.717 94.1393C198.717 94.7347 198.509 95.1995 198.092 95.5336C197.679 95.8644 197.103 96.0298 196.365 96.0298C196.19 96.0199 196.025 96.0067 195.869 95.9901C195.793 96.0497 195.735 96.1125 195.695 96.1787C195.656 96.2448 195.636 96.3143 195.636 96.3871C195.636 96.4599 195.666 96.5211 195.725 96.5707C195.788 96.617 195.881 96.6534 196.003 96.6799C196.129 96.703 196.284 96.7146 196.47 96.7146H197.412C198.021 96.7146 198.484 96.8453 198.802 97.1066C199.123 97.3679 199.283 97.7517 199.283 98.2578C199.283 98.9062 199.012 99.409 198.469 99.7663C197.93 100.124 197.154 100.302 196.142 100.302ZM196.207 99.3147C196.567 99.3147 196.876 99.28 197.134 99.2105C197.396 99.1444 197.596 99.0484 197.735 98.9227C197.874 98.8003 197.943 98.6531 197.943 98.4811C197.943 98.3422 197.902 98.2313 197.819 98.1486C197.74 98.0692 197.617 98.013 197.452 97.9799C197.29 97.9468 197.082 97.9303 196.827 97.9303H196.043C195.858 97.9303 195.69 97.9601 195.542 98.0196C195.396 98.0792 195.28 98.1619 195.194 98.2677C195.108 98.3769 195.065 98.5026 195.065 98.6449C195.065 98.8533 195.164 99.017 195.363 99.1361C195.565 99.2552 195.846 99.3147 196.207 99.3147ZM196.45 95.1069C196.734 95.1069 196.943 95.0192 197.075 94.8439C197.207 94.6686 197.273 94.4304 197.273 94.1293C197.273 93.7952 197.204 93.5455 197.065 93.3801C196.929 93.2114 196.724 93.127 196.45 93.127C196.172 93.127 195.963 93.2114 195.824 93.3801C195.686 93.5455 195.616 93.7952 195.616 94.1293C195.616 94.4304 195.684 94.6686 195.819 94.8439C195.958 95.0192 196.168 95.1069 196.45 95.1069ZM204.136 96.2134C204.136 96.5905 204.047 96.9098 203.868 97.1711C203.693 97.4291 203.43 97.626 203.079 97.7616C202.728 97.8939 202.292 97.9601 201.769 97.9601C201.382 97.9601 201.05 97.9353 200.772 97.8857C200.497 97.836 200.219 97.7533 199.938 97.6375V96.3871C200.239 96.5227 200.562 96.6352 200.906 96.7245C201.253 96.8105 201.557 96.8535 201.819 96.8535C202.113 96.8535 202.323 96.8105 202.449 96.7245C202.578 96.6352 202.642 96.5194 202.642 96.3772C202.642 96.2845 202.616 96.2018 202.563 96.1291C202.513 96.053 202.404 95.9686 202.235 95.876C202.067 95.7801 201.802 95.656 201.442 95.5038C201.094 95.3583 200.808 95.2111 200.583 95.0622C200.361 94.9134 200.196 94.738 200.087 94.5362C199.981 94.3311 199.928 94.0714 199.928 93.7572C199.928 93.2444 200.127 92.859 200.524 92.601C200.924 92.3397 201.458 92.209 202.126 92.209C202.47 92.209 202.798 92.2437 203.109 92.3132C203.423 92.3827 203.746 92.4935 204.076 92.6457L203.62 93.7373C203.345 93.6182 203.086 93.5207 202.841 93.4446C202.599 93.3685 202.353 93.3304 202.102 93.3304C201.88 93.3304 201.713 93.3602 201.6 93.4198C201.488 93.4793 201.432 93.5703 201.432 93.6927C201.432 93.782 201.46 93.8614 201.516 93.9309C201.576 94.0003 201.688 94.0781 201.853 94.1641C202.022 94.2468 202.269 94.3543 202.593 94.4866C202.907 94.6156 203.18 94.7513 203.411 94.8935C203.643 95.0324 203.822 95.2061 203.947 95.4145C204.073 95.6196 204.136 95.8859 204.136 96.2134Z" fill="#21272A" style="fill:#21272A;fill:color(display-p3 0.1294 0.1529 0.1647);fill-opacity:1;"/>
<path d="M295.181 85.8608L294.655 84.134H292.01L291.484 85.8608H289.827L292.387 78.5765H294.268L296.838 85.8608H295.181ZM294.287 82.8439L293.761 81.1568C293.728 81.0443 293.684 80.9004 293.628 80.7251C293.575 80.5464 293.52 80.3661 293.464 80.1842C293.411 79.9989 293.368 79.8385 293.335 79.7029C293.302 79.8385 293.255 80.0072 293.196 80.209C293.14 80.4075 293.085 80.596 293.032 80.7747C292.979 80.9533 292.941 81.0807 292.918 81.1568L292.397 82.8439H294.287ZM299.89 85.9601C299.341 85.9601 298.872 85.8608 298.485 85.6624C298.098 85.4606 297.804 85.1496 297.602 84.7295C297.4 84.3094 297.299 83.7718 297.299 83.1168C297.299 82.4386 297.414 81.8862 297.642 81.4595C297.873 81.0294 298.193 80.7135 298.6 80.5117C299.01 80.3099 299.484 80.209 300.024 80.209C300.407 80.209 300.738 80.247 301.016 80.3231C301.297 80.3959 301.542 80.4836 301.75 80.5861L301.304 81.7572C301.066 81.6612 300.844 81.5835 300.639 81.524C300.434 81.4611 300.229 81.4297 300.024 81.4297C299.759 81.4297 299.539 81.4925 299.364 81.6182C299.188 81.7406 299.058 81.9259 298.972 82.174C298.886 82.4221 298.843 82.7331 298.843 83.1069C298.843 83.4741 298.889 83.7784 298.982 84.0199C299.074 84.2614 299.208 84.4417 299.384 84.5608C299.559 84.6766 299.772 84.7344 300.024 84.7344C300.338 84.7344 300.617 84.6931 300.862 84.6104C301.107 84.5244 301.345 84.4053 301.577 84.2531V85.5482C301.345 85.6938 301.102 85.798 300.847 85.8608C300.596 85.927 300.277 85.9601 299.89 85.9601ZM305.14 80.1991C305.884 80.1991 306.455 80.3612 306.852 80.6854C307.248 81.0096 307.447 81.5025 307.447 82.1641V85.8608H306.39L306.097 85.1066H306.058C305.899 85.3051 305.737 85.4672 305.571 85.5929C305.406 85.7186 305.216 85.8112 305.001 85.8708C304.786 85.9303 304.524 85.9601 304.217 85.9601C303.889 85.9601 303.595 85.8972 303.333 85.7715C303.075 85.6458 302.872 85.4539 302.723 85.1959C302.574 84.9346 302.5 84.6038 302.5 84.2035C302.5 83.6147 302.707 83.1813 303.12 82.9034C303.534 82.6222 304.154 82.4668 304.981 82.437L305.943 82.4072V82.1641C305.943 81.873 305.867 81.6596 305.715 81.524C305.563 81.3883 305.351 81.3205 305.08 81.3205C304.812 81.3205 304.549 81.3586 304.291 81.4346C304.033 81.5107 303.775 81.6067 303.517 81.7224L303.016 80.7003C303.31 80.5448 303.639 80.4224 304.003 80.3331C304.37 80.2437 304.749 80.1991 305.14 80.1991ZM305.943 83.2905L305.358 83.3103C304.868 83.3236 304.528 83.4112 304.336 83.5733C304.147 83.7354 304.053 83.9488 304.053 84.2134C304.053 84.445 304.121 84.6104 304.256 84.7096C304.392 84.8056 304.569 84.8535 304.787 84.8535C305.111 84.8535 305.384 84.7576 305.606 84.5657C305.831 84.3739 305.943 84.1009 305.943 83.747V83.2905ZM310.767 85.9601C310.148 85.9601 309.644 85.7186 309.253 85.2356C308.866 84.7493 308.673 84.0364 308.673 83.0969C308.673 82.1475 308.869 81.4297 309.263 80.9434C309.657 80.4538 310.171 80.209 310.806 80.209C311.071 80.209 311.304 80.2454 311.506 80.3182C311.708 80.3909 311.881 80.4885 312.027 80.6109C312.176 80.7333 312.302 80.8706 312.404 81.0228H312.454C312.434 80.9169 312.409 80.7615 312.379 80.5564C312.353 80.3479 312.34 80.1346 312.34 79.9162V78.1398H313.858V85.8608H312.697L312.404 85.1413H312.34C312.244 85.2935 312.123 85.4324 311.977 85.5582C311.835 85.6806 311.665 85.7781 311.466 85.8509C311.268 85.9237 311.035 85.9601 310.767 85.9601ZM311.298 84.7543C311.711 84.7543 312.002 84.6319 312.171 84.3871C312.343 84.139 312.434 83.7668 312.444 83.2706V83.1069C312.444 82.5677 312.361 82.1558 312.196 81.8713C312.03 81.5835 311.723 81.4396 311.273 81.4396C310.939 81.4396 310.677 81.5835 310.489 81.8713C310.3 82.1591 310.206 82.5743 310.206 83.1168C310.206 83.6593 310.3 84.0679 310.489 84.3424C310.681 84.617 310.95 84.7543 311.298 84.7543ZM317.728 80.209C318.241 80.209 318.683 80.3082 319.053 80.5067C319.424 80.7019 319.71 80.9864 319.912 81.3602C320.114 81.734 320.214 82.1905 320.214 82.7298V83.4641H316.637C316.653 83.8909 316.781 84.2267 317.019 84.4715C317.26 84.7129 317.594 84.8337 318.021 84.8337C318.375 84.8337 318.699 84.7973 318.994 84.7245C319.288 84.6517 319.591 84.5426 319.902 84.397V85.5681C319.627 85.7037 319.339 85.8029 319.038 85.8658C318.741 85.9287 318.378 85.9601 317.952 85.9601C317.396 85.9601 316.903 85.8575 316.473 85.6524C316.046 85.4473 315.711 85.1347 315.466 84.7146C315.224 84.2945 315.104 83.7652 315.104 83.1267C315.104 82.4783 315.213 81.9391 315.431 81.5091C315.653 81.0757 315.96 80.7515 316.354 80.5365C316.748 80.3182 317.206 80.209 317.728 80.209ZM317.738 81.2858C317.444 81.2858 317.199 81.3801 317.004 81.5686C316.812 81.7572 316.701 82.0533 316.672 82.4568H318.795C318.792 82.2319 318.751 82.0318 318.671 81.8564C318.595 81.6811 318.479 81.5422 318.324 81.4396C318.172 81.3371 317.977 81.2858 317.738 81.2858ZM327.96 80.209C328.589 80.209 329.064 80.3711 329.384 80.6953C329.709 81.0162 329.871 81.5322 329.871 82.2435V85.8608H328.352V82.6206C328.352 82.2236 328.284 81.9242 328.149 81.7224C328.013 81.5207 327.803 81.4198 327.519 81.4198C327.118 81.4198 326.834 81.5637 326.665 81.8515C326.496 82.136 326.412 82.5445 326.412 83.0771V85.8608H324.899V82.6206C324.899 82.3559 324.869 82.1343 324.809 81.9557C324.75 81.777 324.659 81.6431 324.536 81.5537C324.414 81.4644 324.257 81.4198 324.065 81.4198C323.784 81.4198 323.562 81.4909 323.4 81.6331C323.241 81.7721 323.127 81.9788 323.058 82.2534C322.992 82.5247 322.959 82.8571 322.959 83.2508V85.8608H321.445V80.3132H322.601L322.805 81.0228H322.889C323.002 80.8309 323.142 80.6754 323.311 80.5564C323.483 80.4373 323.671 80.3496 323.876 80.2934C324.082 80.2371 324.29 80.209 324.502 80.209C324.909 80.209 325.253 80.2752 325.534 80.4075C325.818 80.5398 326.037 80.7449 326.189 81.0228H326.323C326.488 80.7383 326.721 80.5315 327.022 80.4025C327.327 80.2735 327.639 80.209 327.96 80.209ZM332.942 80.3132V85.8608H331.429V80.3132H332.942ZM332.188 78.1398C332.413 78.1398 332.606 78.1927 332.769 78.2986C332.931 78.4011 333.012 78.5947 333.012 78.8792C333.012 79.1603 332.931 79.3555 332.769 79.4647C332.606 79.5705 332.413 79.6235 332.188 79.6235C331.96 79.6235 331.765 79.5705 331.602 79.4647C331.444 79.3555 331.364 79.1603 331.364 78.8792C331.364 78.5947 331.444 78.4011 331.602 78.2986C331.765 78.1927 331.96 78.1398 332.188 78.1398ZM336.788 85.9601C336.239 85.9601 335.771 85.8608 335.384 85.6624C334.997 85.4606 334.702 85.1496 334.5 84.7295C334.299 84.3094 334.198 83.7718 334.198 83.1168C334.198 82.4386 334.312 81.8862 334.54 81.4595C334.772 81.0294 335.091 80.7135 335.498 80.5117C335.908 80.3099 336.383 80.209 336.922 80.209C337.306 80.209 337.636 80.247 337.914 80.3231C338.195 80.3959 338.44 80.4836 338.649 80.5861L338.202 81.7572C337.964 81.6612 337.742 81.5835 337.537 81.524C337.332 81.4611 337.127 81.4297 336.922 81.4297C336.657 81.4297 336.437 81.4925 336.262 81.6182C336.087 81.7406 335.956 81.9259 335.87 82.174C335.784 82.4221 335.741 82.7331 335.741 83.1069C335.741 83.4741 335.787 83.7784 335.88 84.0199C335.972 84.2614 336.106 84.4417 336.282 84.5608C336.457 84.6766 336.67 84.7344 336.922 84.7344C337.236 84.7344 337.516 84.6931 337.76 84.6104C338.005 84.5244 338.243 84.4053 338.475 84.2531V85.5482C338.243 85.6938 338 85.798 337.746 85.8608C337.494 85.927 337.175 85.9601 336.788 85.9601ZM286.318 90.6062C287.255 90.6062 287.938 90.808 288.368 91.2116C288.798 91.6119 289.013 92.1643 289.013 92.869C289.013 93.1865 288.965 93.4909 288.869 93.782C288.773 94.0698 288.616 94.3262 288.397 94.5511C288.182 94.7761 287.895 94.9547 287.534 95.087C287.173 95.216 286.729 95.2805 286.199 95.2805H285.539V97.8608H284.001V90.6062H286.318ZM286.239 91.8666H285.539V94.0202H286.045C286.333 94.0202 286.583 93.9821 286.795 93.906C287.006 93.83 287.17 93.7109 287.286 93.5488C287.402 93.3867 287.46 93.1783 287.46 92.9235C287.46 92.5663 287.36 92.3016 287.162 92.1296C286.963 91.9543 286.656 91.8666 286.239 91.8666ZM295.354 92.3132V97.8608H294.193L293.99 97.1513H293.91C293.791 97.3398 293.642 97.4936 293.464 97.6127C293.285 97.7318 293.088 97.8195 292.873 97.8757C292.658 97.932 292.435 97.9601 292.203 97.9601C291.806 97.9601 291.461 97.8906 291.166 97.7517C290.872 97.6094 290.642 97.3894 290.477 97.0917C290.314 96.794 290.233 96.4069 290.233 95.9306V92.3132H291.747V95.5535C291.747 95.9504 291.818 96.2498 291.96 96.4516C292.103 96.6534 292.329 96.7543 292.64 96.7543C292.948 96.7543 293.189 96.6848 293.365 96.5459C293.54 96.4036 293.662 96.1969 293.732 95.9256C293.805 95.6511 293.841 95.3169 293.841 94.9233V92.3132H295.354ZM298.456 90.1398V91.9361C298.456 92.1445 298.449 92.3513 298.436 92.5564C298.426 92.7615 298.413 92.9202 298.396 93.0327H298.456C298.601 92.8045 298.8 92.6109 299.051 92.4521C299.303 92.2901 299.628 92.209 300.029 92.209C300.651 92.209 301.155 92.4521 301.542 92.9384C301.929 93.4247 302.123 94.1376 302.123 95.0771C302.123 95.7089 302.033 96.2399 301.855 96.6699C301.676 97.0967 301.426 97.4192 301.105 97.6375C300.785 97.8526 300.412 97.9601 299.989 97.9601C299.582 97.9601 299.261 97.8873 299.026 97.7417C298.791 97.5962 298.601 97.4324 298.456 97.2505H298.351L298.098 97.8608H296.942V90.1398H298.456ZM299.542 93.4198C299.278 93.4198 299.068 93.4743 298.912 93.5835C298.757 93.6927 298.643 93.8564 298.57 94.0748C298.5 94.2931 298.462 94.5693 298.456 94.9034V95.0672C298.456 95.6064 298.535 96.0199 298.694 96.3077C298.853 96.5922 299.142 96.7344 299.562 96.7344C299.873 96.7344 300.12 96.5905 300.302 96.3027C300.487 96.0149 300.579 95.5998 300.579 95.0573C300.579 94.5147 300.487 94.1062 300.302 93.8316C300.116 93.557 299.863 93.4198 299.542 93.4198ZM304.887 97.8608H303.373V90.1398H304.887V97.8608ZM307.993 92.3132V97.8608H306.479V92.3132H307.993ZM307.239 90.1398C307.464 90.1398 307.657 90.1927 307.819 90.2986C307.981 90.4011 308.062 90.5947 308.062 90.8792C308.062 91.1603 307.981 91.3555 307.819 91.4647C307.657 91.5705 307.464 91.6235 307.239 91.6235C307.01 91.6235 306.815 91.5705 306.653 91.4647C306.494 91.3555 306.415 91.1603 306.415 90.8792C306.415 90.5947 306.494 90.4011 306.653 90.2986C306.815 90.1927 307.01 90.1398 307.239 90.1398ZM311.838 97.9601C311.289 97.9601 310.821 97.8608 310.434 97.6624C310.047 97.4606 309.753 97.1496 309.551 96.7295C309.349 96.3094 309.248 95.7718 309.248 95.1168C309.248 94.4386 309.362 93.8862 309.591 93.4595C309.822 93.0294 310.141 92.7135 310.548 92.5117C310.958 92.3099 311.433 92.209 311.972 92.209C312.356 92.209 312.687 92.247 312.965 92.3231C313.246 92.3959 313.491 92.4836 313.699 92.5861L313.253 93.7572C313.014 93.6612 312.793 93.5835 312.588 93.524C312.383 93.4611 312.178 93.4297 311.972 93.4297C311.708 93.4297 311.488 93.4925 311.312 93.6182C311.137 93.7406 311.006 93.9259 310.92 94.174C310.834 94.4221 310.791 94.7331 310.791 95.1069C310.791 95.4741 310.838 95.7784 310.93 96.0199C311.023 96.2614 311.157 96.4417 311.332 96.5608C311.508 96.6766 311.721 96.7344 311.972 96.7344C312.287 96.7344 312.566 96.6931 312.811 96.6104C313.056 96.5244 313.294 96.4053 313.526 96.2531V97.5482C313.294 97.6938 313.051 97.798 312.796 97.8608C312.545 97.927 312.225 97.9601 311.838 97.9601ZM317.088 92.1991C317.833 92.1991 318.403 92.3612 318.8 92.6854C319.197 93.0096 319.396 93.5025 319.396 94.1641V97.8608H318.339L318.046 97.1066H318.006C317.848 97.3051 317.685 97.4672 317.52 97.5929C317.355 97.7186 317.164 97.8112 316.949 97.8708C316.734 97.9303 316.473 97.9601 316.165 97.9601C315.838 97.9601 315.543 97.8972 315.282 97.7715C315.024 97.6458 314.821 97.4539 314.672 97.1959C314.523 96.9346 314.448 96.6038 314.448 96.2035C314.448 95.6147 314.655 95.1813 315.069 94.9034C315.482 94.6222 316.103 94.4668 316.93 94.437L317.892 94.4072V94.1641C317.892 93.873 317.816 93.6596 317.664 93.524C317.512 93.3883 317.3 93.3205 317.029 93.3205C316.761 93.3205 316.498 93.3586 316.24 93.4346C315.982 93.5107 315.724 93.6067 315.466 93.7224L314.965 92.7003C315.259 92.5448 315.588 92.4224 315.952 92.3331C316.319 92.2437 316.698 92.1991 317.088 92.1991ZM317.892 95.2905L317.307 95.3103C316.817 95.3236 316.476 95.4112 316.284 95.5733C316.096 95.7354 316.002 95.9488 316.002 96.2134C316.002 96.445 316.069 96.6104 316.205 96.7096C316.341 96.8056 316.518 96.8535 316.736 96.8535C317.06 96.8535 317.333 96.7576 317.555 96.5657C317.78 96.3739 317.892 96.1009 317.892 95.747V95.2905ZM323.296 96.7543C323.461 96.7543 323.622 96.7378 323.777 96.7047C323.936 96.6716 324.093 96.6302 324.249 96.5806V97.707C324.087 97.7798 323.885 97.8393 323.643 97.8857C323.405 97.9353 323.144 97.9601 322.859 97.9601C322.528 97.9601 322.231 97.9072 321.966 97.8013C321.705 97.6921 321.498 97.5052 321.346 97.2406C321.197 96.9726 321.123 96.6005 321.123 96.1241V93.4495H320.398V92.8094L321.232 92.3033L321.668 91.1322H322.636V92.3132H324.189V93.4495H322.636V96.1241C322.636 96.3358 322.696 96.4946 322.815 96.6005C322.937 96.703 323.097 96.7543 323.296 96.7543ZM326.888 92.3132V97.8608H325.375V92.3132H326.888ZM326.134 90.1398C326.359 90.1398 326.553 90.1927 326.715 90.2986C326.877 90.4011 326.958 90.5947 326.958 90.8792C326.958 91.1603 326.877 91.3555 326.715 91.4647C326.553 91.5705 326.359 91.6235 326.134 91.6235C325.906 91.6235 325.711 91.5705 325.549 91.4647C325.39 91.3555 325.311 91.1603 325.311 90.8792C325.311 90.5947 325.39 90.4011 325.549 90.2986C325.711 90.1927 325.906 90.1398 326.134 90.1398ZM333.523 95.0771C333.523 95.5402 333.46 95.9504 333.334 96.3077C333.212 96.665 333.032 96.9677 332.793 97.2158C332.559 97.4606 332.274 97.6458 331.94 97.7715C331.609 97.8972 331.235 97.9601 330.818 97.9601C330.428 97.9601 330.069 97.8972 329.742 97.7715C329.418 97.6458 329.135 97.4606 328.893 97.2158C328.655 96.9677 328.47 96.665 328.337 96.3077C328.208 95.9504 328.144 95.5402 328.144 95.0771C328.144 94.4618 328.253 93.9408 328.471 93.514C328.69 93.0873 329.001 92.7631 329.404 92.5415C329.808 92.3198 330.289 92.209 330.848 92.209C331.368 92.209 331.827 92.3198 332.228 92.5415C332.631 92.7631 332.947 93.0873 333.175 93.514C333.407 93.9408 333.523 94.4618 333.523 95.0771ZM329.687 95.0771C329.687 95.441 329.727 95.747 329.806 95.9951C329.886 96.2432 330.01 96.4301 330.178 96.5558C330.347 96.6815 330.567 96.7444 330.838 96.7444C331.106 96.7444 331.323 96.6815 331.488 96.5558C331.657 96.4301 331.779 96.2432 331.856 95.9951C331.935 95.747 331.975 95.441 331.975 95.0771C331.975 94.7099 331.935 94.4056 331.856 94.1641C331.779 93.9193 331.657 93.7357 331.488 93.6133C331.32 93.4909 331.1 93.4297 330.828 93.4297C330.428 93.4297 330.137 93.567 329.955 93.8415C329.776 94.1161 329.687 94.528 329.687 95.0771ZM337.924 92.209C338.516 92.209 338.993 92.3711 339.353 92.6953C339.714 93.0162 339.894 93.5322 339.894 94.2435V97.8608H338.381V94.6206C338.381 94.2236 338.308 93.9242 338.162 93.7224C338.02 93.5207 337.795 93.4198 337.488 93.4198C337.024 93.4198 336.708 93.5769 336.54 93.8912C336.371 94.2054 336.287 94.6586 336.287 95.2508V97.8608H334.773V92.3132H335.929L336.133 93.0228H336.217C336.336 92.8309 336.484 92.6754 336.659 92.5564C336.838 92.4373 337.034 92.3496 337.249 92.2934C337.468 92.2371 337.693 92.209 337.924 92.209ZM345.323 96.2134C345.323 96.5905 345.233 96.9098 345.055 97.1711C344.879 97.4291 344.616 97.626 344.266 97.7616C343.915 97.8939 343.478 97.9601 342.956 97.9601C342.569 97.9601 342.236 97.9353 341.958 97.8857C341.684 97.836 341.406 97.7533 341.125 97.6375V96.3871C341.426 96.5227 341.748 96.6352 342.092 96.7245C342.44 96.8105 342.744 96.8535 343.005 96.8535C343.3 96.8535 343.51 96.8105 343.636 96.7245C343.765 96.6352 343.829 96.5194 343.829 96.3772C343.829 96.2845 343.803 96.2018 343.75 96.1291C343.7 96.053 343.591 95.9686 343.422 95.876C343.254 95.7801 342.989 95.656 342.628 95.5038C342.281 95.3583 341.995 95.2111 341.77 95.0622C341.548 94.9134 341.383 94.738 341.274 94.5362C341.168 94.3311 341.115 94.0714 341.115 93.7572C341.115 93.2444 341.313 92.859 341.71 92.601C342.111 92.3397 342.645 92.209 343.313 92.209C343.657 92.209 343.985 92.2437 344.296 92.3132C344.61 92.3827 344.932 92.4935 345.263 92.6457L344.807 93.7373C344.532 93.6182 344.272 93.5207 344.028 93.4446C343.786 93.3685 343.54 93.3304 343.288 93.3304C343.067 93.3304 342.9 93.3602 342.787 93.4198C342.675 93.4793 342.618 93.5703 342.618 93.6927C342.618 93.782 342.646 93.8614 342.703 93.9309C342.762 94.0003 342.875 94.0781 343.04 94.1641C343.209 94.2468 343.455 94.3543 343.779 94.4866C344.094 94.6156 344.367 94.7513 344.598 94.8935C344.83 95.0324 345.008 95.2061 345.134 95.4145C345.26 95.6196 345.323 95.8859 345.323 96.2134Z" fill="#21272A" style="fill:#21272A;fill:color(display-p3 0.1294 0.1529 0.1647);fill-opacity:1;"/>
<path d="M402.066 86H397.888V78.7454H402.066V80.0058H399.426V81.5986H401.882V82.859H399.426V84.7297H402.066V86ZM404.601 83.1666L402.815 80.4524H404.532L405.609 82.2189L406.695 80.4524H408.412L406.606 83.1666L408.497 86H406.775L405.609 84.0995L404.438 86H402.721L404.601 83.1666ZM411.613 80.3382C412.357 80.3382 412.928 80.5003 413.325 80.8245C413.722 81.1487 413.92 81.6416 413.92 82.3032V86H412.863L412.571 85.2458H412.531C412.372 85.4442 412.21 85.6063 412.045 85.732C411.879 85.8578 411.689 85.9504 411.474 86.0099C411.259 86.0695 410.998 86.0992 410.69 86.0992C410.362 86.0992 410.068 86.0364 409.807 85.9107C409.549 85.785 409.345 85.5931 409.196 85.3351C409.047 85.0737 408.973 84.7429 408.973 84.3427C408.973 83.7538 409.18 83.3205 409.593 83.0426C410.007 82.7614 410.627 82.6059 411.454 82.5761L412.417 82.5464V82.3032C412.417 82.0121 412.341 81.7988 412.189 81.6631C412.036 81.5275 411.825 81.4597 411.553 81.4597C411.285 81.4597 411.022 81.4977 410.764 81.5738C410.506 81.6499 410.248 81.7458 409.99 81.8616L409.489 80.8394C409.784 80.6839 410.113 80.5615 410.477 80.4722C410.844 80.3829 411.223 80.3382 411.613 80.3382ZM412.417 83.4296L411.831 83.4495C411.342 83.4627 411.001 83.5504 410.809 83.7125C410.62 83.8746 410.526 84.0879 410.526 84.3526C410.526 84.5841 410.594 84.7496 410.73 84.8488C410.865 84.9447 411.042 84.9927 411.261 84.9927C411.585 84.9927 411.858 84.8968 412.079 84.7049C412.304 84.513 412.417 84.2401 412.417 83.8861V83.4296ZM421.999 80.3482C422.627 80.3482 423.102 80.5103 423.423 80.8345C423.747 81.1553 423.909 81.6714 423.909 82.3826V86H422.391V82.7597C422.391 82.3628 422.323 82.0634 422.187 81.8616C422.052 81.6598 421.841 81.5589 421.557 81.5589C421.157 81.5589 420.872 81.7028 420.703 81.9906C420.535 82.2751 420.45 82.6837 420.45 83.2163V86H418.937V82.7597C418.937 82.4951 418.907 82.2735 418.848 82.0948C418.788 81.9162 418.697 81.7822 418.575 81.6929C418.452 81.6036 418.295 81.5589 418.103 81.5589C417.822 81.5589 417.601 81.63 417.438 81.7723C417.28 81.9112 417.165 82.118 417.096 82.3926C417.03 82.6638 416.997 82.9963 416.997 83.3899V86H415.483V80.4524H416.64L416.843 81.162H416.927C417.04 80.9701 417.18 80.8146 417.349 80.6955C417.521 80.5764 417.71 80.4888 417.915 80.4325C418.12 80.3763 418.328 80.3482 418.54 80.3482C418.947 80.3482 419.291 80.4143 419.572 80.5466C419.857 80.679 420.075 80.8841 420.227 81.162H420.361C420.526 80.8775 420.76 80.6707 421.061 80.5417C421.365 80.4127 421.678 80.3482 421.999 80.3482ZM428.554 80.3482C429.179 80.3482 429.683 80.5913 430.067 81.0776C430.454 81.5639 430.648 82.2768 430.648 83.2163C430.648 83.8448 430.557 84.3741 430.375 84.8041C430.193 85.2309 429.941 85.5534 429.62 85.7717C429.299 85.9901 428.931 86.0992 428.514 86.0992C428.246 86.0992 428.016 86.0662 427.824 86C427.632 85.9305 427.468 85.8429 427.333 85.737C427.197 85.6278 427.08 85.5121 426.981 85.3897H426.901C426.928 85.522 426.947 85.6576 426.961 85.7966C426.974 85.9355 426.981 86.0711 426.981 86.2034V88.4414H425.467V80.4524H426.698L426.911 81.1719H426.981C427.08 81.023 427.201 80.8857 427.343 80.76C427.485 80.6343 427.655 80.5351 427.854 80.4623C428.056 80.3862 428.289 80.3482 428.554 80.3482ZM428.067 81.5589C427.803 81.5589 427.593 81.6135 427.437 81.7227C427.282 81.8318 427.167 81.9956 427.095 82.2139C427.025 82.4322 426.987 82.7085 426.981 83.0426V83.2063C426.981 83.5636 427.014 83.8663 427.08 84.1144C427.149 84.3625 427.263 84.5511 427.422 84.6801C427.584 84.8091 427.806 84.8736 428.087 84.8736C428.319 84.8736 428.509 84.8091 428.658 84.6801C428.807 84.5511 428.917 84.3625 428.99 84.1144C429.066 83.863 429.104 83.557 429.104 83.1964C429.104 82.6539 429.02 82.2453 428.851 81.9708C428.683 81.6962 428.421 81.5589 428.067 81.5589ZM433.411 86H431.898V78.279H433.411V86ZM437.292 80.3482C437.805 80.3482 438.246 80.4474 438.617 80.6459C438.987 80.8411 439.273 81.1256 439.475 81.4994C439.677 81.8732 439.778 82.3297 439.778 82.8689V83.6033H436.2C436.217 84.03 436.344 84.3658 436.582 84.6106C436.824 84.8521 437.158 84.9728 437.585 84.9728C437.939 84.9728 438.263 84.9365 438.557 84.8637C438.852 84.7909 439.154 84.6817 439.465 84.5362V85.7072C439.191 85.8429 438.903 85.9421 438.602 86.005C438.304 86.0678 437.942 86.0992 437.515 86.0992C436.959 86.0992 436.466 85.9967 436.036 85.7916C435.61 85.5865 435.274 85.2739 435.029 84.8538C434.788 84.4336 434.667 83.9043 434.667 83.2659C434.667 82.6175 434.776 82.0783 434.994 81.6482C435.216 81.2149 435.524 80.8907 435.917 80.6757C436.311 80.4573 436.769 80.3482 437.292 80.3482ZM437.302 81.4249C437.007 81.4249 436.762 81.5192 436.567 81.7078C436.375 81.8963 436.265 82.1924 436.235 82.596H438.359C438.355 82.371 438.314 82.1709 438.235 81.9956C438.158 81.8203 438.043 81.6813 437.887 81.5788C437.735 81.4762 437.54 81.4249 437.302 81.4249ZM446.521 81.9261H449.399V85.6874C449.019 85.8131 448.624 85.914 448.213 85.9901C447.803 86.0629 447.338 86.0992 446.819 86.0992C446.098 86.0992 445.486 85.957 444.983 85.6725C444.48 85.388 444.098 84.9679 443.837 84.4121C443.575 83.8564 443.445 83.1733 443.445 82.3628C443.445 81.6019 443.59 80.9436 443.881 80.3879C444.176 79.8321 444.604 79.4021 445.167 79.0977C445.732 78.7934 446.422 78.6412 447.236 78.6412C447.62 78.6412 447.998 78.6826 448.372 78.7653C448.746 78.848 449.085 78.9555 449.389 79.0878L448.878 80.3184C448.657 80.2059 448.404 80.1116 448.119 80.0356C447.835 79.9595 447.537 79.9214 447.226 79.9214C446.779 79.9214 446.391 80.024 446.06 80.2291C445.732 80.4342 445.478 80.722 445.296 81.0925C445.117 81.4597 445.028 81.893 445.028 82.3926C445.028 82.8656 445.092 83.2857 445.221 83.6529C445.35 84.0168 445.554 84.303 445.832 84.5114C446.109 84.7165 446.472 84.819 446.918 84.819C447.137 84.819 447.32 84.8091 447.469 84.7892C447.621 84.7661 447.763 84.7429 447.896 84.7198V83.2063H446.521V81.9261ZM456.103 80.4524V86H454.942L454.739 85.2904H454.659C454.54 85.479 454.391 85.6328 454.213 85.7519C454.034 85.871 453.837 85.9586 453.622 86.0149C453.407 86.0711 453.184 86.0992 452.952 86.0992C452.555 86.0992 452.21 86.0298 451.915 85.8908C451.621 85.7486 451.391 85.5286 451.225 85.2309C451.063 84.9331 450.982 84.5461 450.982 84.0697V80.4524H452.496V83.6926C452.496 84.0896 452.567 84.389 452.709 84.5908C452.851 84.7926 453.078 84.8935 453.389 84.8935C453.696 84.8935 453.938 84.824 454.113 84.685C454.289 84.5428 454.411 84.336 454.481 84.0648C454.553 83.7902 454.59 83.4561 454.59 83.0624V80.4524H456.103ZM459.204 80.4524V86H457.691V80.4524H459.204ZM458.45 78.279C458.675 78.279 458.869 78.3319 459.031 78.4378C459.193 78.5403 459.274 78.7338 459.274 79.0183C459.274 79.2995 459.193 79.4947 459.031 79.6039C458.869 79.7097 458.675 79.7626 458.45 79.7626C458.222 79.7626 458.027 79.7097 457.865 79.6039C457.706 79.4947 457.626 79.2995 457.626 79.0183C457.626 78.7338 457.706 78.5403 457.865 78.4378C458.027 78.3319 458.222 78.279 458.45 78.279ZM462.554 86.0992C461.935 86.0992 461.431 85.8578 461.04 85.3748C460.653 84.8885 460.46 84.1756 460.46 83.2361C460.46 82.2867 460.657 81.5688 461.05 81.0826C461.444 80.593 461.958 80.3482 462.594 80.3482C462.858 80.3482 463.091 80.3846 463.293 80.4573C463.495 80.5301 463.669 80.6277 463.814 80.7501C463.963 80.8725 464.089 81.0098 464.191 81.162H464.241C464.221 81.0561 464.196 80.9006 464.167 80.6955C464.14 80.4871 464.127 80.2737 464.127 80.0554V78.279H465.645V86H464.484L464.191 85.2805H464.127C464.031 85.4327 463.91 85.5716 463.765 85.6973C463.622 85.8197 463.452 85.9173 463.254 85.9901C463.055 86.0629 462.822 86.0992 462.554 86.0992ZM463.085 84.8935C463.498 84.8935 463.789 84.7711 463.958 84.5263C464.13 84.2782 464.221 83.906 464.231 83.4098V83.246C464.231 82.7068 464.148 82.295 463.983 82.0105C463.818 81.7227 463.51 81.5788 463.06 81.5788C462.726 81.5788 462.465 81.7227 462.276 82.0105C462.087 82.2983 461.993 82.7134 461.993 83.256C461.993 83.7985 462.087 84.207 462.276 84.4816C462.468 84.7562 462.737 84.8935 463.085 84.8935ZM469.516 80.3482C470.028 80.3482 470.47 80.4474 470.841 80.6459C471.211 80.8411 471.497 81.1256 471.699 81.4994C471.901 81.8732 472.002 82.3297 472.002 82.8689V83.6033H468.424C468.441 84.03 468.568 84.3658 468.806 84.6106C469.048 84.8521 469.382 84.9728 469.808 84.9728C470.162 84.9728 470.487 84.9365 470.781 84.8637C471.075 84.7909 471.378 84.6817 471.689 84.5362V85.7072C471.415 85.8429 471.127 85.9421 470.826 86.005C470.528 86.0678 470.166 86.0992 469.739 86.0992C469.183 86.0992 468.69 85.9967 468.26 85.7916C467.834 85.5865 467.498 85.2739 467.253 84.8538C467.011 84.4336 466.891 83.9043 466.891 83.2659C466.891 82.6175 467 82.0783 467.218 81.6482C467.44 81.2149 467.748 80.8907 468.141 80.6757C468.535 80.4573 468.993 80.3482 469.516 80.3482ZM469.526 81.4249C469.231 81.4249 468.986 81.5192 468.791 81.7078C468.599 81.8963 468.489 82.1924 468.459 82.596H470.583C470.579 82.371 470.538 82.1709 470.458 81.9956C470.382 81.8203 470.267 81.6813 470.111 81.5788C469.959 81.4762 469.764 81.4249 469.526 81.4249ZM474.746 86H473.232V78.279H474.746V86ZM477.852 80.4524V86H476.339V80.4524H477.852ZM477.098 78.279C477.323 78.279 477.516 78.3319 477.678 78.4378C477.84 78.5403 477.921 78.7338 477.921 79.0183C477.921 79.2995 477.84 79.4947 477.678 79.6039C477.516 79.7097 477.323 79.7626 477.098 79.7626C476.87 79.7626 476.674 79.7097 476.512 79.6039C476.353 79.4947 476.274 79.2995 476.274 79.0183C476.274 78.7338 476.353 78.5403 476.512 78.4378C476.674 78.3319 476.87 78.279 477.098 78.279ZM482.596 80.3482C483.188 80.3482 483.664 80.5103 484.025 80.8345C484.385 81.1553 484.566 81.6714 484.566 82.3826V86H483.052V82.7597C483.052 82.3628 482.98 82.0634 482.834 81.8616C482.692 81.6598 482.467 81.5589 482.159 81.5589C481.696 81.5589 481.38 81.7161 481.211 82.0303C481.043 82.3446 480.958 82.7978 480.958 83.3899V86H479.445V80.4524H480.601L480.804 81.162H480.889C481.008 80.9701 481.155 80.8146 481.33 80.6955C481.509 80.5764 481.706 80.4888 481.921 80.4325C482.139 80.3763 482.364 80.3482 482.596 80.3482ZM488.411 80.3482C488.924 80.3482 489.366 80.4474 489.736 80.6459C490.107 80.8411 490.393 81.1256 490.595 81.4994C490.796 81.8732 490.897 82.3297 490.897 82.8689V83.6033H487.32C487.336 84.03 487.464 84.3658 487.702 84.6106C487.943 84.8521 488.277 84.9728 488.704 84.9728C489.058 84.9728 489.382 84.9365 489.677 84.8637C489.971 84.7909 490.274 84.6817 490.585 84.5362V85.7072C490.31 85.8429 490.022 85.9421 489.721 86.005C489.424 86.0678 489.061 86.0992 488.635 86.0992C488.079 86.0992 487.586 85.9967 487.156 85.7916C486.729 85.5865 486.393 85.2739 486.149 84.8538C485.907 84.4336 485.786 83.9043 485.786 83.2659C485.786 82.6175 485.896 82.0783 486.114 81.6482C486.336 81.2149 486.643 80.8907 487.037 80.6757C487.431 80.4573 487.889 80.3482 488.411 80.3482ZM488.421 81.4249C488.127 81.4249 487.882 81.5192 487.687 81.7078C487.495 81.8963 487.384 82.1924 487.354 82.596H489.478C489.475 82.371 489.434 82.1709 489.354 81.9956C489.278 81.8203 489.162 81.6813 489.007 81.5788C488.855 81.4762 488.659 81.4249 488.421 81.4249ZM495.998 84.3526C495.998 84.7297 495.909 85.0489 495.73 85.3103C495.555 85.5683 495.292 85.7651 494.941 85.9008C494.591 86.0331 494.154 86.0992 493.631 86.0992C493.244 86.0992 492.912 86.0744 492.634 86.0248C492.36 85.9752 492.082 85.8925 491.8 85.7767V84.5263C492.102 84.6619 492.424 84.7744 492.768 84.8637C493.115 84.9497 493.42 84.9927 493.681 84.9927C493.976 84.9927 494.186 84.9497 494.311 84.8637C494.44 84.7744 494.505 84.6586 494.505 84.5163C494.505 84.4237 494.478 84.341 494.425 84.2682C494.376 84.1921 494.267 84.1078 494.098 84.0152C493.929 83.9192 493.665 83.7952 493.304 83.643C492.957 83.4974 492.67 83.3502 492.446 83.2014C492.224 83.0525 492.058 82.8772 491.949 82.6754C491.843 82.4703 491.791 82.2106 491.791 81.8963C491.791 81.3836 491.989 80.9982 492.386 80.7402C492.786 80.4788 493.321 80.3482 493.989 80.3482C494.333 80.3482 494.66 80.3829 494.971 80.4524C495.286 80.5218 495.608 80.6327 495.939 80.7848L495.482 81.8765C495.208 81.7574 494.948 81.6598 494.703 81.5837C494.462 81.5076 494.215 81.4696 493.964 81.4696C493.742 81.4696 493.575 81.4994 493.463 81.5589C493.35 81.6185 493.294 81.7094 493.294 81.8318C493.294 81.9212 493.322 82.0005 493.378 82.07C493.438 82.1395 493.55 82.2172 493.716 82.3032C493.885 82.3859 494.131 82.4934 494.455 82.6258C494.769 82.7548 495.042 82.8904 495.274 83.0327C495.506 83.1716 495.684 83.3453 495.81 83.5537C495.936 83.7588 495.998 84.0251 495.998 84.3526ZM427.923 95.2163C427.923 95.6794 427.86 96.0896 427.735 96.4469C427.612 96.8041 427.432 97.1068 427.194 97.3549C426.959 97.5997 426.675 97.785 426.34 97.9107C426.01 98.0364 425.636 98.0992 425.219 98.0992C424.829 98.0992 424.47 98.0364 424.142 97.9107C423.818 97.785 423.535 97.5997 423.294 97.3549C423.056 97.1068 422.87 96.8041 422.738 96.4469C422.609 96.0896 422.544 95.6794 422.544 95.2163C422.544 94.601 422.654 94.0799 422.872 93.6532C423.09 93.2265 423.401 92.9023 423.805 92.6806C424.208 92.459 424.69 92.3482 425.249 92.3482C425.768 92.3482 426.228 92.459 426.628 92.6806C427.032 92.9023 427.348 93.2265 427.576 93.6532C427.808 94.0799 427.923 94.601 427.923 95.2163ZM424.088 95.2163C424.088 95.5801 424.127 95.8861 424.207 96.1342C424.286 96.3824 424.41 96.5693 424.579 96.695C424.748 96.8207 424.968 96.8835 425.239 96.8835C425.507 96.8835 425.723 96.8207 425.889 96.695C426.058 96.5693 426.18 96.3824 426.256 96.1342C426.335 95.8861 426.375 95.5801 426.375 95.2163C426.375 94.8491 426.335 94.5447 426.256 94.3032C426.18 94.0584 426.058 93.8748 425.889 93.7524C425.72 93.63 425.5 93.5688 425.229 93.5688C424.829 93.5688 424.538 93.7061 424.356 93.9807C424.177 94.2553 424.088 94.6671 424.088 95.2163ZM432.27 92.3482C432.346 92.3482 432.434 92.3531 432.533 92.3631C432.636 92.3697 432.718 92.3796 432.781 92.3928L432.667 93.812C432.617 93.7954 432.546 93.7839 432.454 93.7773C432.364 93.7673 432.287 93.7624 432.221 93.7624C432.025 93.7624 431.835 93.7872 431.65 93.8368C431.468 93.8864 431.304 93.9675 431.159 94.0799C431.013 94.1891 430.897 94.3347 430.811 94.5166C430.729 94.6952 430.687 94.9152 430.687 95.1766V98H429.174V92.4524H430.32L430.543 93.3852H430.618C430.727 93.1967 430.863 93.0247 431.025 92.8692C431.19 92.7104 431.377 92.5847 431.585 92.4921C431.797 92.3961 432.025 92.3482 432.27 92.3482ZM438.865 90.7454C439.801 90.7454 440.484 90.9472 440.914 91.3508C441.344 91.7511 441.559 92.3035 441.559 93.0081C441.559 93.3257 441.511 93.63 441.415 93.9212C441.319 94.209 441.162 94.4653 440.944 94.6903C440.729 94.9152 440.441 95.0939 440.08 95.2262C439.72 95.3552 439.275 95.4197 438.746 95.4197H438.086V98H436.547V90.7454H438.865ZM438.785 92.0058H438.086V94.1593H438.592C438.88 94.1593 439.129 94.1213 439.341 94.0452C439.553 93.9691 439.717 93.85 439.832 93.6879C439.948 93.5258 440.006 93.3174 440.006 93.0627C440.006 92.7054 439.907 92.4408 439.708 92.2688C439.51 92.0934 439.202 92.0058 438.785 92.0058ZM447.851 95.2163C447.851 95.6794 447.788 96.0896 447.663 96.4469C447.54 96.8041 447.36 97.1068 447.122 97.3549C446.887 97.5997 446.602 97.785 446.268 97.9107C445.937 98.0364 445.564 98.0992 445.147 98.0992C444.756 98.0992 444.398 98.0364 444.07 97.9107C443.746 97.785 443.463 97.5997 443.221 97.3549C442.983 97.1068 442.798 96.8041 442.666 96.4469C442.537 96.0896 442.472 95.6794 442.472 95.2163C442.472 94.601 442.581 94.0799 442.8 93.6532C443.018 93.2265 443.329 92.9023 443.733 92.6806C444.136 92.459 444.618 92.3482 445.177 92.3482C445.696 92.3482 446.156 92.459 446.556 92.6806C446.96 92.9023 447.276 93.2265 447.504 93.6532C447.735 94.0799 447.851 94.601 447.851 95.2163ZM444.015 95.2163C444.015 95.5801 444.055 95.8861 444.135 96.1342C444.214 96.3824 444.338 96.5693 444.507 96.695C444.675 96.8207 444.895 96.8835 445.167 96.8835C445.435 96.8835 445.651 96.8207 445.817 96.695C445.985 96.5693 446.108 96.3824 446.184 96.1342C446.263 95.8861 446.303 95.5801 446.303 95.2163C446.303 94.8491 446.263 94.5447 446.184 94.3032C446.108 94.0584 445.985 93.8748 445.817 93.7524C445.648 93.63 445.428 93.5688 445.157 93.5688C444.756 93.5688 444.465 93.7061 444.283 93.9807C444.105 94.2553 444.015 94.6671 444.015 95.2163ZM450.615 98H449.102V90.279H450.615V98ZM453.721 92.4524V98H452.208V92.4524H453.721ZM452.967 90.279C453.192 90.279 453.386 90.3319 453.548 90.4378C453.71 90.5403 453.791 90.7338 453.791 91.0183C453.791 91.2995 453.71 91.4947 453.548 91.6039C453.386 91.7097 453.192 91.7626 452.967 91.7626C452.739 91.7626 452.544 91.7097 452.382 91.6039C452.223 91.4947 452.143 91.2995 452.143 91.0183C452.143 90.7338 452.223 90.5403 452.382 90.4378C452.544 90.3319 452.739 90.279 452.967 90.279ZM457.567 98.0992C457.018 98.0992 456.55 98 456.163 97.8015C455.776 97.5997 455.481 97.2888 455.279 96.8686C455.078 96.4485 454.977 95.911 454.977 95.256C454.977 94.5778 455.091 94.0254 455.319 93.5986C455.551 93.1686 455.87 92.8526 456.277 92.6509C456.687 92.4491 457.162 92.3482 457.701 92.3482C458.085 92.3482 458.415 92.3862 458.693 92.4623C458.975 92.5351 459.219 92.6227 459.428 92.7253L458.981 93.8963C458.743 93.8004 458.521 93.7227 458.316 93.6631C458.111 93.6003 457.906 93.5688 457.701 93.5688C457.436 93.5688 457.216 93.6317 457.041 93.7574C456.866 93.8798 456.735 94.0651 456.649 94.3132C456.563 94.5613 456.52 94.8722 456.52 95.246C456.52 95.6132 456.566 95.9176 456.659 96.1591C456.751 96.4005 456.885 96.5808 457.061 96.6999C457.236 96.8157 457.449 96.8736 457.701 96.8736C458.015 96.8736 458.295 96.8323 458.54 96.7496C458.784 96.6635 459.022 96.5445 459.254 96.3923V97.6874C459.022 97.8329 458.779 97.9371 458.525 98C458.273 98.0662 457.954 98.0992 457.567 98.0992ZM462.058 92.4524V98H460.544V92.4524H462.058ZM461.303 90.279C461.528 90.279 461.722 90.3319 461.884 90.4378C462.046 90.5403 462.127 90.7338 462.127 91.0183C462.127 91.2995 462.046 91.4947 461.884 91.6039C461.722 91.7097 461.528 91.7626 461.303 91.7626C461.075 91.7626 460.88 91.7097 460.718 91.6039C460.559 91.4947 460.48 91.2995 460.48 91.0183C460.48 90.7338 460.559 90.5403 460.718 90.4378C460.88 90.3319 461.075 90.279 461.303 90.279ZM465.938 92.3482C466.451 92.3482 466.892 92.4474 467.263 92.6459C467.633 92.8411 467.92 93.1256 468.121 93.4994C468.323 93.8732 468.424 94.3297 468.424 94.8689V95.6033H464.846C464.863 96.03 464.99 96.3658 465.228 96.6106C465.47 96.8521 465.804 96.9728 466.231 96.9728C466.585 96.9728 466.909 96.9365 467.203 96.8637C467.498 96.7909 467.8 96.6817 468.111 96.5362V97.7072C467.837 97.8429 467.549 97.9421 467.248 98.005C466.95 98.0678 466.588 98.0992 466.161 98.0992C465.606 98.0992 465.113 97.9967 464.683 97.7916C464.256 97.5865 463.92 97.2739 463.675 96.8538C463.434 96.4336 463.313 95.9043 463.313 95.2659C463.313 94.6175 463.422 94.0783 463.641 93.6482C463.862 93.2149 464.17 92.8907 464.563 92.6757C464.957 92.4573 465.415 92.3482 465.938 92.3482ZM465.948 93.4249C465.654 93.4249 465.409 93.5192 465.214 93.7078C465.022 93.8963 464.911 94.1924 464.881 94.596H467.005C467.002 94.371 466.96 94.1709 466.881 93.9956C466.805 93.8203 466.689 93.6813 466.533 93.5788C466.381 93.4762 466.186 93.4249 465.948 93.4249ZM473.525 96.3526C473.525 96.7297 473.436 97.0489 473.257 97.3103C473.082 97.5683 472.819 97.7651 472.468 97.9008C472.117 98.0331 471.681 98.0992 471.158 98.0992C470.771 98.0992 470.439 98.0744 470.161 98.0248C469.886 97.9752 469.608 97.8925 469.327 97.7767V96.5263C469.628 96.6619 469.951 96.7744 470.295 96.8637C470.642 96.9497 470.946 96.9927 471.208 96.9927C471.502 96.9927 471.712 96.9497 471.838 96.8637C471.967 96.7744 472.031 96.6586 472.031 96.5163C472.031 96.4237 472.005 96.341 471.952 96.2682C471.902 96.1921 471.793 96.1078 471.625 96.0152C471.456 95.9192 471.191 95.7952 470.831 95.643C470.483 95.4974 470.197 95.3502 469.972 95.2014C469.751 95.0525 469.585 94.8772 469.476 94.6754C469.37 94.4703 469.317 94.2106 469.317 93.8963C469.317 93.3836 469.516 92.9982 469.913 92.7402C470.313 92.4788 470.847 92.3482 471.515 92.3482C471.859 92.3482 472.187 92.3829 472.498 92.4524C472.812 92.5218 473.135 92.6327 473.466 92.7848L473.009 93.8765C472.734 93.7574 472.475 93.6598 472.23 93.5837C471.988 93.5076 471.742 93.4696 471.491 93.4696C471.269 93.4696 471.102 93.4994 470.989 93.5589C470.877 93.6185 470.821 93.7094 470.821 93.8318C470.821 93.9212 470.849 94.0005 470.905 94.07C470.965 94.1395 471.077 94.2172 471.242 94.3032C471.411 94.3859 471.658 94.4934 471.982 94.6258C472.296 94.7548 472.569 94.8904 472.801 95.0327C473.032 95.1716 473.211 95.3453 473.336 95.5537C473.462 95.7588 473.525 96.0251 473.525 96.3526Z" fill="#21272A" style="fill:#21272A;fill:color(display-p3 0.1294 0.1529 0.1647);fill-opacity:1;"/>
<path d="M539.038 86L537.291 80.3085H537.246C537.253 80.4441 537.263 80.6492 537.276 80.9238C537.293 81.195 537.307 81.4845 537.321 81.7921C537.334 82.0998 537.34 82.3777 537.34 82.6258V86H535.966V78.7454H538.06L539.777 84.293H539.807L541.628 78.7454H543.722V86H542.288V82.5662C542.288 82.338 542.291 82.075 542.298 81.7773C542.308 81.4795 542.319 81.1967 542.332 80.9287C542.346 80.6575 542.356 80.454 542.362 80.3184H542.317L540.447 86H539.038ZM547.721 80.3482C548.234 80.3482 548.676 80.4474 549.046 80.6459C549.417 80.8411 549.703 81.1256 549.905 81.4994C550.106 81.8732 550.207 82.3297 550.207 82.8689V83.6033H546.63C546.646 84.03 546.773 84.3658 547.012 84.6106C547.253 84.8521 547.587 84.9728 548.014 84.9728C548.368 84.9728 548.692 84.9365 548.987 84.8637C549.281 84.7909 549.584 84.6817 549.895 84.5362V85.7072C549.62 85.8429 549.332 85.9421 549.031 86.005C548.733 86.0678 548.371 86.0992 547.944 86.0992C547.389 86.0992 546.896 85.9967 546.466 85.7916C546.039 85.5865 545.703 85.2739 545.458 84.8538C545.217 84.4336 545.096 83.9043 545.096 83.2659C545.096 82.6175 545.205 82.0783 545.424 81.6482C545.645 81.2149 545.953 80.8907 546.347 80.6757C546.74 80.4573 547.199 80.3482 547.721 80.3482ZM547.731 81.4249C547.437 81.4249 547.192 81.5192 546.997 81.7078C546.805 81.8963 546.694 82.1924 546.664 82.596H548.788C548.785 82.371 548.743 82.1709 548.664 81.9956C548.588 81.8203 548.472 81.6813 548.317 81.5788C548.164 81.4762 547.969 81.4249 547.731 81.4249ZM553.71 80.3382C554.455 80.3382 555.025 80.5003 555.422 80.8245C555.819 81.1487 556.018 81.6416 556.018 82.3032V86H554.961L554.668 85.2458H554.628C554.47 85.4442 554.308 85.6063 554.142 85.732C553.977 85.8578 553.787 85.9504 553.572 86.0099C553.356 86.0695 553.095 86.0992 552.788 86.0992C552.46 86.0992 552.166 86.0364 551.904 85.9107C551.646 85.785 551.443 85.5931 551.294 85.3351C551.145 85.0737 551.071 84.7429 551.071 84.3427C551.071 83.7538 551.277 83.3205 551.691 83.0426C552.104 82.7614 552.725 82.6059 553.552 82.5761L554.514 82.5464V82.3032C554.514 82.0121 554.438 81.7988 554.286 81.6631C554.134 81.5275 553.922 81.4597 553.651 81.4597C553.383 81.4597 553.12 81.4977 552.862 81.5738C552.604 81.6499 552.346 81.7458 552.088 81.8616L551.587 80.8394C551.881 80.6839 552.21 80.5615 552.574 80.4722C552.941 80.3829 553.32 80.3382 553.71 80.3382ZM554.514 83.4296L553.929 83.4495C553.439 83.4627 553.098 83.5504 552.907 83.7125C552.718 83.8746 552.624 84.0879 552.624 84.3526C552.624 84.5841 552.692 84.7496 552.827 84.8488C552.963 84.9447 553.14 84.9927 553.358 84.9927C553.682 84.9927 553.955 84.8968 554.177 84.7049C554.402 84.513 554.514 84.2401 554.514 83.8861V83.4296ZM561.451 84.3526C561.451 84.7297 561.362 85.0489 561.183 85.3103C561.008 85.5683 560.745 85.7651 560.394 85.9008C560.044 86.0331 559.607 86.0992 559.084 86.0992C558.697 86.0992 558.365 86.0744 558.087 86.0248C557.812 85.9752 557.535 85.8925 557.253 85.7767V84.5263C557.554 84.6619 557.877 84.7744 558.221 84.8637C558.568 84.9497 558.873 84.9927 559.134 84.9927C559.428 84.9927 559.639 84.9497 559.764 84.8637C559.893 84.7744 559.958 84.6586 559.958 84.5163C559.958 84.4237 559.931 84.341 559.878 84.2682C559.829 84.1921 559.72 84.1078 559.551 84.0152C559.382 83.9192 559.117 83.7952 558.757 83.643C558.41 83.4974 558.123 83.3502 557.898 83.2014C557.677 83.0525 557.511 82.8772 557.402 82.6754C557.296 82.4703 557.243 82.2106 557.243 81.8963C557.243 81.3836 557.442 80.9982 557.839 80.7402C558.239 80.4788 558.773 80.3482 559.442 80.3482C559.786 80.3482 560.113 80.3829 560.424 80.4524C560.738 80.5218 561.061 80.6327 561.392 80.7848L560.935 81.8765C560.661 81.7574 560.401 81.6598 560.156 81.5837C559.915 81.5076 559.668 81.4696 559.417 81.4696C559.195 81.4696 559.028 81.4994 558.916 81.5589C558.803 81.6185 558.747 81.7094 558.747 81.8318C558.747 81.9212 558.775 82.0005 558.831 82.07C558.891 82.1395 559.003 82.2172 559.169 82.3032C559.337 82.3859 559.584 82.4934 559.908 82.6258C560.222 82.7548 560.495 82.8904 560.727 83.0327C560.958 83.1716 561.137 83.3453 561.263 83.5537C561.388 83.7588 561.451 84.0251 561.451 84.3526ZM567.723 80.4524V86H566.562L566.359 85.2904H566.279C566.16 85.479 566.012 85.6328 565.833 85.7519C565.654 85.871 565.457 85.9586 565.242 86.0149C565.027 86.0711 564.804 86.0992 564.572 86.0992C564.176 86.0992 563.83 86.0298 563.535 85.8908C563.241 85.7486 563.011 85.5286 562.846 85.2309C562.684 84.9331 562.603 84.5461 562.603 84.0697V80.4524H564.116V83.6926C564.116 84.0896 564.187 84.389 564.329 84.5908C564.472 84.7926 564.698 84.8935 565.009 84.8935C565.317 84.8935 565.558 84.824 565.734 84.685C565.909 84.5428 566.031 84.336 566.101 84.0648C566.174 83.7902 566.21 83.4561 566.21 83.0624V80.4524H567.723ZM572.408 80.3482C572.484 80.3482 572.571 80.3531 572.671 80.3631C572.773 80.3697 572.856 80.3796 572.919 80.3928L572.805 81.812C572.755 81.7954 572.684 81.7839 572.591 81.7773C572.502 81.7673 572.424 81.7624 572.358 81.7624C572.163 81.7624 571.973 81.7872 571.787 81.8368C571.605 81.8864 571.442 81.9675 571.296 82.0799C571.151 82.1891 571.035 82.3347 570.949 82.5166C570.866 82.6952 570.825 82.9152 570.825 83.1766V86H569.311V80.4524H570.458L570.681 81.3852H570.755C570.864 81.1967 571 81.0247 571.162 80.8692C571.328 80.7104 571.514 80.5847 571.723 80.4921C571.935 80.3961 572.163 80.3482 572.408 80.3482ZM576.214 80.3482C576.726 80.3482 577.168 80.4474 577.538 80.6459C577.909 80.8411 578.195 81.1256 578.397 81.4994C578.599 81.8732 578.7 82.3297 578.7 82.8689V83.6033H575.122C575.138 84.03 575.266 84.3658 575.504 84.6106C575.745 84.8521 576.08 84.9728 576.506 84.9728C576.86 84.9728 577.185 84.9365 577.479 84.8637C577.773 84.7909 578.076 84.6817 578.387 84.5362V85.7072C578.112 85.8429 577.825 85.9421 577.524 86.005C577.226 86.0678 576.864 86.0992 576.437 86.0992C575.881 86.0992 575.388 85.9967 574.958 85.7916C574.531 85.5865 574.196 85.2739 573.951 84.8538C573.709 84.4336 573.589 83.9043 573.589 83.2659C573.589 82.6175 573.698 82.0783 573.916 81.6482C574.138 81.2149 574.445 80.8907 574.839 80.6757C575.233 80.4573 575.691 80.3482 576.214 80.3482ZM576.224 81.4249C575.929 81.4249 575.684 81.5192 575.489 81.7078C575.297 81.8963 575.186 82.1924 575.157 82.596H577.28C577.277 82.371 577.236 82.1709 577.156 81.9956C577.08 81.8203 576.965 81.6813 576.809 81.5788C576.657 81.4762 576.462 81.4249 576.224 81.4249ZM586.445 80.3482C587.074 80.3482 587.549 80.5103 587.87 80.8345C588.194 81.1553 588.356 81.6714 588.356 82.3826V86H586.837V82.7597C586.837 82.3628 586.77 82.0634 586.634 81.8616C586.498 81.6598 586.288 81.5589 586.004 81.5589C585.604 81.5589 585.319 81.7028 585.15 81.9906C584.982 82.2751 584.897 82.6837 584.897 83.2163V86H583.384V82.7597C583.384 82.4951 583.354 82.2735 583.295 82.0948C583.235 81.9162 583.144 81.7822 583.022 81.6929C582.899 81.6036 582.742 81.5589 582.55 81.5589C582.269 81.5589 582.047 81.63 581.885 81.7723C581.726 81.9112 581.612 82.118 581.543 82.3926C581.477 82.6638 581.444 82.9963 581.444 83.3899V86H579.93V80.4524H581.086L581.29 81.162H581.374C581.487 80.9701 581.627 80.8146 581.796 80.6955C581.968 80.5764 582.157 80.4888 582.362 80.4325C582.567 80.3763 582.775 80.3482 582.987 80.3482C583.394 80.3482 583.738 80.4143 584.019 80.5466C584.303 80.679 584.522 80.8841 584.674 81.162H584.808C584.973 80.8775 585.207 80.6707 585.508 80.5417C585.812 80.4127 586.125 80.3482 586.445 80.3482ZM592.201 80.3482C592.714 80.3482 593.156 80.4474 593.526 80.6459C593.897 80.8411 594.183 81.1256 594.385 81.4994C594.587 81.8732 594.687 82.3297 594.687 82.8689V83.6033H591.11C591.126 84.03 591.254 84.3658 591.492 84.6106C591.733 84.8521 592.067 84.9728 592.494 84.9728C592.848 84.9728 593.172 84.9365 593.467 84.8637C593.761 84.7909 594.064 84.6817 594.375 84.5362V85.7072C594.1 85.8429 593.813 85.9421 593.511 86.005C593.214 86.0678 592.852 86.0992 592.425 86.0992C591.869 86.0992 591.376 85.9967 590.946 85.7916C590.519 85.5865 590.184 85.2739 589.939 84.8538C589.697 84.4336 589.577 83.9043 589.577 83.2659C589.577 82.6175 589.686 82.0783 589.904 81.6482C590.126 81.2149 590.433 80.8907 590.827 80.6757C591.221 80.4573 591.679 80.3482 592.201 80.3482ZM592.211 81.4249C591.917 81.4249 591.672 81.5192 591.477 81.7078C591.285 81.8963 591.174 82.1924 591.145 82.596H593.268C593.265 82.371 593.224 82.1709 593.144 81.9956C593.068 81.8203 592.952 81.6813 592.797 81.5788C592.645 81.4762 592.45 81.4249 592.211 81.4249ZM599.069 80.3482C599.661 80.3482 600.138 80.5103 600.498 80.8345C600.859 81.1553 601.039 81.6714 601.039 82.3826V86H599.526V82.7597C599.526 82.3628 599.453 82.0634 599.307 81.8616C599.165 81.6598 598.94 81.5589 598.632 81.5589C598.169 81.5589 597.853 81.7161 597.685 82.0303C597.516 82.3446 597.432 82.7978 597.432 83.3899V86H595.918V80.4524H597.074L597.278 81.162H597.362C597.481 80.9701 597.628 80.8146 597.804 80.6955C597.982 80.5764 598.179 80.4888 598.394 80.4325C598.613 80.3763 598.837 80.3482 599.069 80.3482ZM604.934 84.8935C605.1 84.8935 605.26 84.8769 605.416 84.8438C605.574 84.8107 605.731 84.7694 605.887 84.7198V85.8462C605.725 85.919 605.523 85.9785 605.282 86.0248C605.043 86.0744 604.782 86.0992 604.498 86.0992C604.167 86.0992 603.869 86.0463 603.604 85.9405C603.343 85.8313 603.136 85.6444 602.984 85.3797C602.835 85.1118 602.761 84.7396 602.761 84.2633V81.5887H602.036V80.9486L602.87 80.4424L603.307 79.2714H604.274V80.4524H605.827V81.5887H604.274V84.2633C604.274 84.475 604.334 84.6338 604.453 84.7396C604.575 84.8422 604.736 84.8935 604.934 84.8935ZM561.035 98H559.496V92.0256H557.526V90.7454H563.004V92.0256H561.035V98ZM569.043 95.2163C569.043 95.6794 568.98 96.0896 568.855 96.4469C568.732 96.8041 568.552 97.1068 568.314 97.3549C568.079 97.5997 567.795 97.785 567.46 97.9107C567.13 98.0364 566.756 98.0992 566.339 98.0992C565.949 98.0992 565.59 98.0364 565.262 97.9107C564.938 97.785 564.655 97.5997 564.414 97.3549C564.176 97.1068 563.99 96.8041 563.858 96.4469C563.729 96.0896 563.664 95.6794 563.664 95.2163C563.664 94.601 563.774 94.0799 563.992 93.6532C564.21 93.2265 564.521 92.9023 564.925 92.6806C565.328 92.459 565.81 92.3482 566.369 92.3482C566.888 92.3482 567.348 92.459 567.748 92.6806C568.152 92.9023 568.468 93.2265 568.696 93.6532C568.928 94.0799 569.043 94.601 569.043 95.2163ZM565.208 95.2163C565.208 95.5801 565.247 95.8861 565.327 96.1342C565.406 96.3824 565.53 96.5693 565.699 96.695C565.868 96.8207 566.088 96.8835 566.359 96.8835C566.627 96.8835 566.843 96.8207 567.009 96.695C567.178 96.5693 567.3 96.3824 567.376 96.1342C567.455 95.8861 567.495 95.5801 567.495 95.2163C567.495 94.8491 567.455 94.5447 567.376 94.3032C567.3 94.0584 567.178 93.8748 567.009 93.7524C566.84 93.63 566.62 93.5688 566.349 93.5688C565.949 93.5688 565.658 93.7061 565.476 93.9807C565.297 94.2553 565.208 94.6671 565.208 95.2163ZM575.335 95.2163C575.335 95.6794 575.272 96.0896 575.147 96.4469C575.024 96.8041 574.844 97.1068 574.606 97.3549C574.371 97.5997 574.086 97.785 573.752 97.9107C573.422 98.0364 573.048 98.0992 572.631 98.0992C572.241 98.0992 571.882 98.0364 571.554 97.9107C571.23 97.785 570.947 97.5997 570.706 97.3549C570.467 97.1068 570.282 96.8041 570.15 96.4469C570.021 96.0896 569.956 95.6794 569.956 95.2163C569.956 94.601 570.066 94.0799 570.284 93.6532C570.502 93.2265 570.813 92.9023 571.217 92.6806C571.62 92.459 572.102 92.3482 572.661 92.3482C573.18 92.3482 573.64 92.459 574.04 92.6806C574.444 92.9023 574.76 93.2265 574.988 93.6532C575.22 94.0799 575.335 94.601 575.335 95.2163ZM571.5 95.2163C571.5 95.5801 571.539 95.8861 571.619 96.1342C571.698 96.3824 571.822 96.5693 571.991 96.695C572.16 96.8207 572.38 96.8835 572.651 96.8835C572.919 96.8835 573.135 96.8207 573.301 96.695C573.47 96.5693 573.592 96.3824 573.668 96.1342C573.747 95.8861 573.787 95.5801 573.787 95.2163C573.787 94.8491 573.747 94.5447 573.668 94.3032C573.592 94.0584 573.47 93.8748 573.301 93.7524C573.132 93.63 572.912 93.5688 572.641 93.5688C572.241 93.5688 571.949 93.7061 571.768 93.9807C571.589 94.2553 571.5 94.6671 571.5 95.2163ZM578.099 98H576.586V90.279H578.099V98ZM583.562 96.3526C583.562 96.7297 583.473 97.0489 583.295 97.3103C583.119 97.5683 582.856 97.7651 582.506 97.9008C582.155 98.0331 581.718 98.0992 581.196 98.0992C580.808 98.0992 580.476 98.0744 580.198 98.0248C579.924 97.9752 579.646 97.8925 579.365 97.7767V96.5263C579.666 96.6619 579.988 96.7744 580.332 96.8637C580.679 96.9497 580.984 96.9927 581.245 96.9927C581.54 96.9927 581.75 96.9497 581.875 96.8637C582.004 96.7744 582.069 96.6586 582.069 96.5163C582.069 96.4237 582.042 96.341 581.989 96.2682C581.94 96.1921 581.831 96.1078 581.662 96.0152C581.493 95.9192 581.229 95.7952 580.868 95.643C580.521 95.4974 580.235 95.3502 580.01 95.2014C579.788 95.0525 579.623 94.8772 579.513 94.6754C579.408 94.4703 579.355 94.2106 579.355 93.8963C579.355 93.3836 579.553 92.9982 579.95 92.7402C580.35 92.4788 580.885 92.3482 581.553 92.3482C581.897 92.3482 582.224 92.3829 582.535 92.4524C582.85 92.5218 583.172 92.6327 583.503 92.7848L583.046 93.8765C582.772 93.7574 582.512 93.6598 582.267 93.5837C582.026 93.5076 581.779 93.4696 581.528 93.4696C581.306 93.4696 581.139 93.4994 581.027 93.5589C580.914 93.6185 580.858 93.7094 580.858 93.8318C580.858 93.9212 580.886 94.0005 580.942 94.07C581.002 94.1395 581.114 94.2172 581.28 94.3032C581.449 94.3859 581.695 94.4934 582.019 94.6258C582.334 94.7548 582.606 94.8904 582.838 95.0327C583.07 95.1716 583.248 95.3453 583.374 95.5537C583.5 95.7588 583.562 96.0251 583.562 96.3526Z" fill="#21272A" style="fill:#21272A;fill:color(display-p3 0.1294 0.1529 0.1647);fill-opacity:1;"/>
<path d="M46.4688 46.9062C46.4688 47.4757 46.9305 47.9375 47.5 47.9375C48.0695 47.9375 48.5312 47.4757 48.5312 46.9062V40.7188H46.4688V46.9062Z" fill="white" style="fill:white;fill-opacity:1;"/>
<path d="M58.8438 41.75H36.1562C35.5868 41.75 35.125 41.2882 35.125 40.7188V24.2188C35.125 23.6493 35.5868 23.1875 36.1562 23.1875H58.8438C59.4132 23.1875 59.875 23.6493 59.875 24.2188V40.7188C59.875 41.2882 59.4132 41.75 58.8438 41.75ZM37.1875 39.6875H57.8125V25.25H37.1875V39.6875Z" fill="white" style="fill:white;fill-opacity:1;"/>
<path d="M60.9062 41.75H34.0938C33.5243 41.75 33.0625 41.2882 33.0625 40.7188C33.0625 40.1493 33.5243 39.6875 34.0938 39.6875H60.9062C61.4757 39.6875 61.9375 40.1493 61.9375 40.7188C61.9375 41.2882 61.4757 41.75 60.9062 41.75Z" fill="white" style="fill:white;fill-opacity:1;"/>
<path d="M60.9062 25.25H34.0938C33.5243 25.25 33.0625 24.7882 33.0625 24.2188V20.0938C33.0625 19.5243 33.5243 19.0625 34.0938 19.0625H60.9062C61.4757 19.0625 61.9375 19.5243 61.9375 20.0938V24.2188C61.9375 24.7882 61.4757 25.25 60.9062 25.25ZM35.125 23.1875H59.875V21.125H35.125V23.1875Z" fill="white" style="fill:white;fill-opacity:1;"/>
<path d="M320.656 41.75H305.188V21.125H321.688V32.4688H323.75V20.0938C323.75 19.5238 323.288 19.0625 322.719 19.0625H304.156C303.587 19.0625 303.125 19.5238 303.125 20.0938V42.7812C303.125 43.3512 303.587 43.8125 304.156 43.8125H320.656V41.75Z" fill="white" style="fill:white;fill-opacity:1;"/>
<path d="M323.75 40.2031V44.8438L323.338 44.5346C322.971 44.2586 322.467 44.2586 322.1 44.5346L321.688 44.8438V40.2031H319.625V46.9062C319.625 47.297 319.846 47.6535 320.195 47.8287C320.543 48.002 320.962 47.9657 321.275 47.731L322.719 46.6484L324.162 47.731C324.345 47.868 324.562 47.9375 324.781 47.9375C324.938 47.9375 325.097 47.9012 325.243 47.8287C325.592 47.6535 325.812 47.297 325.812 46.9062V40.2031H323.75Z" fill="white" style="fill:white;fill-opacity:1;"/>
<path d="M322.719 41.75C319.876 41.75 317.562 39.4367 317.562 36.5938C317.562 33.7508 319.876 31.4375 322.719 31.4375C325.562 31.4375 327.875 33.7508 327.875 36.5938C327.875 39.4367 325.562 41.75 322.719 41.75ZM322.719 33.5C321.013 33.5 319.625 34.8878 319.625 36.5938C319.625 38.2997 321.013 39.6875 322.719 39.6875C324.425 39.6875 325.812 38.2997 325.812 36.5938C325.812 34.8878 324.425 33.5 322.719 33.5Z" fill="white" style="fill:white;fill-opacity:1;"/>
<path d="M322.719 37.625C323.288 37.625 323.75 37.1633 323.75 36.5938C323.75 36.0242 323.288 35.5625 322.719 35.5625C322.149 35.5625 321.688 36.0242 321.688 36.5938C321.688 37.1633 322.149 37.625 322.719 37.625Z" fill="white" style="fill:white;fill-opacity:1;"/>
<path d="M318.594 29.375H308.281C307.712 29.375 307.25 28.9137 307.25 28.3438C307.25 27.7738 307.712 27.3125 308.281 27.3125H318.594C319.163 27.3125 319.625 27.7738 319.625 28.3438C319.625 28.9137 319.163 29.375 318.594 29.375Z" fill="white" style="fill:white;fill-opacity:1;"/>
<path d="M318.594 25.25H308.281C307.712 25.25 307.25 24.7887 307.25 24.2188C307.25 23.6488 307.712 23.1875 308.281 23.1875H318.594C319.163 23.1875 319.625 23.6488 319.625 24.2188C319.625 24.7887 319.163 25.25 318.594 25.25Z" fill="white" style="fill:white;fill-opacity:1;"/>
<path d="M312.406 39.6875H308.281C307.712 39.6875 307.25 39.2262 307.25 38.6562C307.25 38.0863 307.712 37.625 308.281 37.625H312.406C312.976 37.625 313.438 38.0863 313.438 38.6562C313.438 39.2262 312.976 39.6875 312.406 39.6875Z" fill="white" style="fill:white;fill-opacity:1;"/>
<path d="M448.531 23.1875H440.281V25.25H448.531V23.1875Z" fill="white" style="fill:white;fill-opacity:1;"/>
<path d="M458.844 29.375H454.719V31.4375H458.844V29.375Z" fill="white" style="fill:white;fill-opacity:1;"/>
<path d="M458.844 41.75H454.719V43.8125H458.844V41.75Z" fill="white" style="fill:white;fill-opacity:1;"/>
<path d="M448.531 41.75H440.281V43.8125H448.531V41.75Z" fill="white" style="fill:white;fill-opacity:1;"/>
<path d="M444.406 39.6875C443.837 39.6875 443.375 39.2257 443.375 38.6562V28.3438C443.375 27.7743 443.837 27.3125 444.406 27.3125C444.976 27.3125 445.438 27.7743 445.438 28.3438V38.6562C445.438 39.2257 444.976 39.6875 444.406 39.6875Z" fill="white" style="fill:white;fill-opacity:1;"/>
<path d="M440.281 47.9375H436.156C435.587 47.9375 435.125 47.4757 435.125 46.9062V26.2812C435.125 25.7118 435.587 25.25 436.156 25.25H440.281C440.851 25.25 441.312 25.7118 441.312 26.2812V46.9062C441.312 47.4757 440.851 47.9375 440.281 47.9375ZM437.188 45.875H439.25V27.3125H437.188V45.875Z" fill="white" style="fill:white;fill-opacity:1;"/>
<path d="M448.531 47.9375H440.281C439.712 47.9375 439.25 47.4757 439.25 46.9062V20.0938C439.25 19.5243 439.712 19.0625 440.281 19.0625H448.531C449.101 19.0625 449.562 19.5243 449.562 20.0938V46.9062C449.562 47.4757 449.101 47.9375 448.531 47.9375ZM441.312 45.875H447.5V21.125H441.312V45.875Z" fill="white" style="fill:white;fill-opacity:1;"/>
<path d="M454.719 47.9375H448.531C447.962 47.9375 447.5 47.4757 447.5 46.9062V22.1562C447.5 21.5868 447.962 21.125 448.531 21.125H454.719C455.288 21.125 455.75 21.5868 455.75 22.1562V46.9062C455.75 47.4757 455.288 47.9375 454.719 47.9375ZM449.562 45.875H453.688V23.1875H449.562V45.875Z" fill="white" style="fill:white;fill-opacity:1;"/>
<path d="M458.844 47.9375H454.719C454.149 47.9375 453.688 47.4757 453.688 46.9062V26.2812C453.688 25.7118 454.149 25.25 454.719 25.25H458.844C459.413 25.25 459.875 25.7118 459.875 26.2812V46.9062C459.875 47.4757 459.413 47.9375 458.844 47.9375ZM455.75 45.875H457.812V27.3125H455.75V45.875Z" fill="white" style="fill:white;fill-opacity:1;"/>
<path d="M460.906 47.9375H434.094C433.524 47.9375 433.062 47.4757 433.062 46.9062C433.062 46.3368 433.524 45.875 434.094 45.875H460.906C461.476 45.875 461.938 46.3368 461.938 46.9062C461.938 47.4757 461.476 47.9375 460.906 47.9375Z" fill="white" style="fill:white;fill-opacity:1;"/>
<path d="M576.46 24.6232L575.001 23.165L573.543 24.6232L575.002 26.0816C575.203 26.283 575.467 26.3838 575.731 26.3838C575.995 26.3838 576.259 26.283 576.46 26.0816C576.863 25.6788 576.863 25.026 576.46 24.6232Z" fill="white" style="fill:white;fill-opacity:1;"/>
<path d="M575.001 28.9975L572.085 26.0811L570.626 27.5392L573.543 30.4558C573.744 30.6572 574.008 30.758 574.272 30.758C574.536 30.758 574.8 30.6573 575.001 30.4558C575.404 30.053 575.404 29.4003 575.001 28.9975Z" fill="white" style="fill:white;fill-opacity:1;"/>
<path d="M570.627 30.4573L569.168 28.998L567.709 30.4568L569.167 31.9156C569.369 32.117 569.633 32.2177 569.897 32.2177C570.161 32.2177 570.425 32.1171 570.626 31.9156C571.029 31.5137 571.029 30.8601 570.627 30.4573Z" fill="white" style="fill:white;fill-opacity:1;"/>
<path d="M569.168 34.8315L566.251 31.915L564.792 33.3732L567.709 36.2898C567.911 36.4912 568.175 36.592 568.439 36.592C568.702 36.592 568.966 36.4913 569.168 36.2898C569.57 35.887 569.57 35.2343 569.168 34.8315Z" fill="white" style="fill:white;fill-opacity:1;"/>
<path d="M564.792 36.2903L563.334 34.832L561.876 36.2902L563.334 37.7486C563.536 37.95 563.8 38.0508 564.063 38.0508C564.327 38.0508 564.591 37.95 564.792 37.7486C565.195 37.3458 565.195 36.6931 564.792 36.2903Z" fill="white" style="fill:white;fill-opacity:1;"/>
<path d="M563.334 40.6664L560.417 37.749L558.959 39.2073L561.876 42.1246C562.077 42.326 562.341 42.4268 562.605 42.4268C562.869 42.4268 563.133 42.3261 563.334 42.1246C563.737 41.7218 563.737 41.0692 563.334 40.6664Z" fill="white" style="fill:white;fill-opacity:1;"/>
<path d="M562.605 48.2594C562.341 48.2594 562.077 48.1586 561.876 47.9572L556.042 42.1243C555.849 41.9309 555.74 41.6691 555.74 41.3952C555.74 41.1213 555.849 40.8594 556.042 40.6661L576.46 20.2474C578.47 18.2384 581.742 18.2373 583.752 20.2474C585.762 22.2575 585.762 25.5296 583.752 27.5397L563.334 47.9572C563.133 48.1586 562.869 48.2594 562.605 48.2594ZM558.23 41.3952L562.605 45.7699L582.293 26.0815C583.499 24.8751 583.499 22.9123 582.293 21.7057C581.087 20.4982 579.124 20.4982 577.918 21.7057L558.23 41.3952Z" fill="white" style="fill:white;fill-opacity:1;"/>
<path d="M580.106 24.9248C580.676 24.9248 581.137 24.4631 581.137 23.8936C581.137 23.324 580.676 22.8623 580.106 22.8623C579.536 22.8623 579.075 23.324 579.075 23.8936C579.075 24.4631 579.536 24.9248 580.106 24.9248Z" fill="white" style="fill:white;fill-opacity:1;"/>
</svg>
